<svg width="523" height="99" viewBox="0 0 523 99" fill="none" xmlns="http://www.w3.org/2000/svg">
<path d="M27.8 95.56L27.4401 96.493L27.4481 96.4961L27.4561 96.499L27.8 95.56ZM13.16 86.44L12.4671 87.1611L12.4742 87.1678L13.16 86.44ZM3.56 72.64L2.64226 73.0372L2.64448 73.0423L3.56 72.64ZM3.56 37.48L4.47553 37.8823L4.47772 37.8772L3.56 37.48ZM13.16 23.56L12.4742 22.8322L12.4672 22.8389L13.16 23.56ZM27.8 14.56L28.1482 15.4974L28.1554 15.4947L27.8 14.56ZM67.04 15.4L66.6316 16.3128L66.6361 16.3148L67.04 15.4ZM82.4 27.16L83.0709 27.9015L83.7674 27.2714L83.1821 26.5368L82.4 27.16ZM67.28 40.84L66.5181 41.4876L67.1861 42.2735L67.9509 41.5815L67.28 40.84ZM58.28 33.52L57.8151 34.4054L57.8241 34.41L58.28 33.52ZM38 32.68L38.3624 33.612L38.3624 33.612L38 32.68ZM30.56 37.6L29.8397 36.9064L29.8392 36.9069L30.56 37.6ZM25.76 45.16L24.8333 44.7843L24.8289 44.7952L24.8247 44.8061L25.76 45.16ZM25.76 64.84L24.8247 65.1939L24.8289 65.2048L24.8333 65.2157L25.76 64.84ZM30.56 72.52L29.8262 73.1994L29.8393 73.2135L29.8529 73.2271L30.56 72.52ZM38 77.32L38.3624 76.388L38.3624 76.388L38 77.32ZM58.28 76.48L57.8241 75.5899L57.8152 75.5946L58.28 76.48ZM67.28 69.16L67.9509 68.4185L67.1861 67.7265L66.5181 68.5124L67.28 69.16ZM82.4 82.84L83.1772 83.4692L83.7728 82.7335L83.0709 82.0985L82.4 82.84ZM67.04 94.6L67.4484 95.5128L67.4538 95.5104L67.04 94.6ZM46.28 97.68C39.7459 97.68 33.7035 96.6569 28.1439 94.621L27.4561 96.499C33.2566 98.6231 39.5341 99.68 46.28 99.68V97.68ZM28.1599 94.627C22.6746 92.5113 17.9068 89.5389 13.8458 85.7122L12.4742 87.1678C16.7332 91.1811 21.7254 94.2887 27.4401 96.493L28.1599 94.627ZM13.8528 85.7189C9.86906 81.8914 6.74391 77.4003 4.47552 72.2377L2.64448 73.0423C5.01609 78.4397 8.29095 83.1486 12.4672 87.1611L13.8528 85.7189ZM4.47772 72.2428C2.217 67.0197 1.08 61.2765 1.08 55H-0.92C-0.92 61.5235 0.262999 67.5403 2.64228 73.0372L4.47772 72.2428ZM1.08 55C1.08 48.7232 2.21706 43.0222 4.47552 37.8823L2.64448 37.0777C0.262938 42.4978 -0.92 48.4768 -0.92 55H1.08ZM4.47772 37.8772C6.74673 32.635 9.87165 28.1062 13.8528 24.2811L12.4672 22.8389C8.28835 26.8538 5.01327 31.605 2.64228 37.0828L4.47772 37.8772ZM13.8458 24.2878C17.904 20.4637 22.6679 17.533 28.1482 15.4974L27.4518 13.6226C21.7322 15.747 16.736 18.8163 12.4742 22.8322L13.8458 24.2878ZM28.1554 15.4947C33.7118 13.3817 39.7502 12.32 46.28 12.32V10.32C39.5298 10.32 33.2482 11.4183 27.4446 13.6253L28.1554 15.4947ZM46.28 12.32C53.9223 12.32 60.6996 13.659 66.6316 16.3128L67.4484 14.4872C61.2204 11.701 54.1577 10.32 46.28 10.32V12.32ZM66.6361 16.3148C72.6527 18.9715 77.6415 22.7932 81.6179 27.7832L83.1821 26.5368C78.9985 21.2868 73.7473 17.2685 67.4439 14.4852L66.6361 16.3148ZM81.7291 26.4185L66.6091 40.0985L67.9509 41.5815L83.0709 27.9015L81.7291 26.4185ZM68.0419 40.1923C65.2486 36.9061 62.148 34.3776 58.7359 32.63L57.8241 34.41C60.972 36.0223 63.8714 38.3739 66.5181 41.4876L68.0419 40.1923ZM58.7448 32.6346C55.3867 30.8716 51.6244 30 47.48 30V32C51.3357 32 54.7734 32.8084 57.8152 34.4054L58.7448 32.6346ZM47.48 30C43.93 30 40.6455 30.5782 37.6376 31.748L38.3624 33.612C41.1145 32.5418 44.15 32 47.48 32V30ZM37.6376 31.748C34.6266 32.9189 32.0234 34.6387 29.8397 36.9064L31.2803 38.2936C33.2566 36.2413 35.6134 34.6811 38.3624 33.612L37.6376 31.748ZM29.8392 36.9069C27.742 39.0879 26.076 41.719 24.8333 44.7843L26.6867 45.5357C27.844 42.681 29.378 40.272 31.2808 38.2931L29.8392 36.9069ZM24.8247 44.8061C23.6565 47.8936 23.08 51.2955 23.08 55H25.08C25.08 51.5044 25.6235 48.3464 26.6953 45.5139L24.8247 44.8061ZM23.08 55C23.08 58.7044 23.6565 62.1064 24.8247 65.1939L26.6953 64.4861C25.6235 61.6536 25.08 58.4955 25.08 55H23.08ZM24.8333 65.2157C26.0748 68.2782 27.7374 70.9434 29.8262 73.1994L31.2938 71.8406C29.3826 69.7766 27.8452 67.3218 26.6867 64.4643L24.8333 65.2157ZM29.8529 73.2271C32.0359 75.4101 34.635 77.0843 37.6376 78.252L38.3624 76.388C35.605 75.3157 33.2441 73.7899 31.2671 71.8129L29.8529 73.2271ZM37.6376 78.252C40.6455 79.4218 43.93 80 47.48 80V78C44.15 78 41.1145 77.4582 38.3624 76.388L37.6376 78.252ZM47.48 80C51.6244 80 55.3867 79.1284 58.7448 77.3654L57.8152 75.5946C54.7734 77.1916 51.3357 78 47.48 78V80ZM58.7359 77.37C62.148 75.6224 65.2486 73.0939 68.0419 69.8076L66.5181 68.5124C63.8714 71.6261 60.972 73.9776 57.8241 75.59L58.7359 77.37ZM66.6091 69.9015L81.7291 83.5815L83.0709 82.0985L67.9509 68.4185L66.6091 69.9015ZM81.6228 82.2108C77.6447 87.1248 72.6512 90.951 66.6262 93.6896L67.4538 95.5104C73.7488 92.649 78.9953 88.6352 83.1772 83.4692L81.6228 82.2108ZM66.6316 93.6872C60.6996 96.341 53.9223 97.68 46.28 97.68V99.68C54.1577 99.68 61.2204 98.299 67.4484 95.5128L66.6316 93.6872ZM103.484 93.76L103.947 92.8734L103.484 93.76ZM90.4044 81.88L89.5504 82.4004L89.5552 82.4082L89.5602 82.416L90.4044 81.88ZM90.4044 46.96L89.5601 46.424L89.5541 46.4336L90.4044 46.96ZM103.484 35.2L103.937 36.0919L103.947 36.0866L103.484 35.2ZM141.404 35.2L140.942 36.0866L140.949 36.0906L140.957 36.0944L141.404 35.2ZM154.484 46.96L153.634 47.4864L153.634 47.4864L154.484 46.96ZM154.484 81.88L155.335 82.4064L155.338 82.4004L154.484 81.88ZM141.404 93.76L140.947 92.8707L140.942 92.8734L141.404 93.76ZM129.404 78.16L128.905 77.2938L128.897 77.2981L128.89 77.3025L129.404 78.16ZM134.324 72.88L135.213 73.3395L135.219 73.3272L134.324 72.88ZM134.324 56.08L133.436 56.5394L133.439 56.5458L133.443 56.5522L134.324 56.08ZM129.404 50.8L128.89 51.6575L128.897 51.6619L128.905 51.6662L129.404 50.8ZM115.484 50.8L114.985 49.9338L114.977 49.9381L114.97 49.9425L115.484 50.8ZM110.564 56.08L109.689 55.5969L109.683 55.6078L110.564 56.08ZM110.564 72.88L109.67 73.3272L109.679 73.3453L109.689 73.3631L110.564 72.88ZM115.484 78.16L114.97 79.0175L114.977 79.0219L114.985 79.0262L115.484 78.16ZM122.444 97.08C115.462 97.08 109.305 95.6688 103.947 92.8734L103.022 94.6466C108.704 97.6112 115.187 99.08 122.444 99.08V97.08ZM103.947 92.8734C98.5758 90.0711 94.3503 86.2291 91.2486 81.344L89.5602 82.416C92.8585 87.6109 97.353 91.6889 103.022 94.6466L103.947 92.8734ZM91.2583 81.3596C88.2427 76.411 86.7244 70.7543 86.7244 64.36H84.7244C84.7244 71.0857 86.326 77.109 89.5504 82.4004L91.2583 81.3596ZM86.7244 64.36C86.7244 57.9655 88.2428 52.3517 91.2546 47.4864L89.5541 46.4336C86.326 51.6483 84.7244 57.6345 84.7244 64.36H86.7244ZM91.2486 47.496C94.3487 42.6134 98.5708 38.8137 103.937 36.0918L103.032 34.3082C97.358 37.1863 92.8601 41.2266 89.5602 46.424L91.2486 47.496ZM103.947 36.0866C109.305 33.2912 115.462 31.88 122.444 31.88V29.88C115.187 29.88 108.704 31.3488 103.022 34.3134L103.947 36.0866ZM122.444 31.88C129.427 31.88 135.584 33.2912 140.942 36.0866L141.867 34.3134C136.185 31.3488 129.702 29.88 122.444 29.88V31.88ZM140.957 36.0944C146.401 38.8164 150.617 42.6131 153.634 47.4864L155.335 46.4336C152.111 41.2269 147.608 37.1836 141.852 34.3056L140.957 36.0944ZM153.634 47.4864C156.646 52.3517 158.164 57.9655 158.164 64.36H160.164C160.164 57.6345 158.563 51.6483 155.335 46.4336L153.634 47.4864ZM158.164 64.36C158.164 70.7543 156.646 76.411 153.63 81.3596L155.338 82.4004C158.563 77.109 160.164 71.0857 160.164 64.36H158.164ZM153.634 81.3536C150.616 86.2295 146.396 90.0684 140.947 92.8707L141.862 94.6493C147.613 91.6916 152.113 87.6105 155.335 82.4064L153.634 81.3536ZM140.942 92.8734C135.584 95.6688 129.427 97.08 122.444 97.08V99.08C129.702 99.08 136.185 97.6112 141.867 94.6466L140.942 92.8734ZM122.444 80.96C125.241 80.96 127.744 80.3226 129.919 79.0175L128.89 77.3025C127.065 78.3974 124.928 78.96 122.444 78.96V80.96ZM129.904 79.0262C132.164 77.7222 133.933 75.8139 135.213 73.3394L133.436 72.4206C132.316 74.5861 130.804 76.1978 128.905 77.2938L129.904 79.0262ZM135.219 73.3272C136.502 70.7609 137.124 67.7613 137.124 64.36H135.124C135.124 67.5187 134.547 70.1991 133.43 72.4328L135.219 73.3272ZM137.124 64.36C137.124 60.9618 136.503 58.0291 135.206 55.6078L133.443 56.5522C134.546 58.6108 135.124 61.1982 135.124 64.36H137.124ZM135.213 55.6206C133.933 53.1461 132.164 51.2378 129.904 49.9338L128.905 51.6662C130.804 52.7622 132.316 54.3739 133.436 56.5394L135.213 55.6206ZM129.919 49.9425C127.744 48.6374 125.241 48 122.444 48V50C124.928 50 127.065 50.5626 128.89 51.6575L129.919 49.9425ZM122.444 48C119.721 48 117.227 48.6403 114.985 49.9338L115.984 51.6662C117.902 50.5597 120.048 50 122.444 50V48ZM114.97 49.9425C112.799 51.2451 111.042 53.1438 109.689 55.5969L111.44 56.5631C112.647 54.3762 114.17 52.7549 115.999 51.6575L114.97 49.9425ZM109.683 55.6078C108.386 58.0291 107.764 60.9618 107.764 64.36H109.764C109.764 61.1982 110.343 58.6108 111.446 56.5522L109.683 55.6078ZM107.764 64.36C107.764 67.7613 108.387 70.7609 109.67 73.3272L111.459 72.4328C110.342 70.1991 109.764 67.5187 109.764 64.36H107.764ZM109.689 73.3631C111.042 75.8162 112.799 77.7149 114.97 79.0175L115.999 77.3025C114.17 76.2051 112.647 74.5838 111.44 72.3969L109.689 73.3631ZM114.985 79.0262C117.227 80.3197 119.721 80.96 122.444 80.96V78.96C120.048 78.96 117.902 78.4003 115.984 77.2938L114.985 79.0262ZM186.088 97L185.164 97.3805L185.419 98H186.088V97ZM159.328 31.96V30.96H157.836L158.404 32.3405L159.328 31.96ZM182.728 31.96L183.659 31.5943L183.41 30.96H182.728V31.96ZM204.088 86.32V87.32H205.556L205.019 85.9543L204.088 86.32ZM192.328 86.32L191.404 85.9384L190.834 87.32H192.328V86.32ZM214.768 31.96V30.96H214.099L213.844 31.5784L214.768 31.96ZM236.488 31.96L237.413 32.3419L237.984 30.96H236.488V31.96ZM209.608 97V98H210.277L210.533 97.382L209.608 97ZM187.013 96.6195L160.253 31.5795L158.404 32.3405L185.164 97.3805L187.013 96.6195ZM159.328 32.96H182.728V30.96H159.328V32.96ZM181.798 32.3257L203.158 86.6857L205.019 85.9543L183.659 31.5943L181.798 32.3257ZM204.088 85.32H192.328V87.32H204.088V85.32ZM193.253 86.7016L215.693 32.3416L213.844 31.5784L191.404 85.9384L193.253 86.7016ZM214.768 32.96H236.488V30.96H214.768V32.96ZM235.564 31.578L208.684 96.618L210.533 97.382L237.413 32.3419L235.564 31.578ZM209.608 96H186.088V98H209.608V96ZM242.383 97H241.383V98H242.383V97ZM242.383 31.96V30.96H241.383V31.96H242.383ZM265.183 31.96H266.183V30.96H265.183V31.96ZM265.183 97V98H266.183V97H265.183ZM243.703 21.28L244.374 20.539L244.374 20.539L243.703 21.28ZM243.703 4L244.374 4.74098L244.374 4.74098L243.703 4ZM263.863 3.88L263.204 4.63257L263.211 4.63849L263.218 4.64429L263.863 3.88ZM263.863 21.28L264.546 22.0103L264.546 22.0095L263.863 21.28ZM243.383 97V31.96H241.383V97H243.383ZM242.383 32.96H265.183V30.96H242.383V32.96ZM264.183 31.96V97H266.183V31.96H264.183ZM265.183 96H242.383V98H265.183V96ZM253.783 23.76C249.817 23.76 246.714 22.6596 244.374 20.539L243.031 22.021C245.811 24.5403 249.428 25.76 253.783 25.76V23.76ZM244.374 20.539C242.022 18.4076 240.863 15.7963 240.863 12.64H238.863C238.863 16.3637 240.263 19.5124 243.031 22.021L244.374 20.539ZM240.863 12.64C240.863 9.48367 242.022 6.87236 244.374 4.74098L243.031 3.25901C240.263 5.76763 238.863 8.91632 238.863 12.64H240.863ZM244.374 4.74098C246.714 2.62034 249.817 1.52 253.783 1.52V-0.480002C249.428 -0.480002 245.811 0.73965 243.031 3.25901L244.374 4.74098ZM253.783 1.52C257.757 1.52 260.865 2.58563 263.204 4.63257L264.521 3.12742C261.74 0.694368 258.128 -0.480002 253.783 -0.480002V1.52ZM263.218 4.64429C265.546 6.60845 266.703 9.12547 266.703 12.28H268.703C268.703 8.55452 267.299 5.47154 264.507 3.11571L263.218 4.64429ZM266.703 12.28C266.703 15.6117 265.531 18.345 263.179 20.5505L264.546 22.0095C267.314 19.415 268.703 16.1483 268.703 12.28H266.703ZM263.179 20.5497C260.928 22.6561 257.835 23.76 253.783 23.76V25.76C258.21 25.76 261.837 24.5439 264.546 22.0103L263.179 20.5497ZM292.12 94L291.616 94.8638L291.624 94.8687L291.633 94.8735L292.12 94ZM280.6 82.36L279.731 82.8561L279.735 82.8621L280.6 82.36ZM280.6 46.6L281.464 47.1021L281.468 47.0961L280.6 46.6ZM292.12 34.96L291.633 34.0865L291.627 34.09L292.12 34.96ZM322.48 34.48L321.95 35.328L321.958 35.3328L322.48 34.48ZM331.36 45.52L332.287 45.146L332.287 45.146L331.36 45.52ZM331.48 83.44L332.412 83.801L331.48 83.44ZM322.84 94.48L322.31 93.632L322.84 94.48ZM319.96 78.16L319.46 77.2938L319.453 77.2981L319.445 77.3025L319.96 78.16ZM324.88 72.88L325.768 73.3395L325.774 73.3272L324.88 72.88ZM324.88 56.08L323.991 56.5394L323.995 56.5458L323.998 56.5522L324.88 56.08ZM319.96 50.8L319.445 51.6575L319.453 51.6619L319.46 51.6662L319.96 50.8ZM306.04 50.8L305.54 49.9338L305.533 49.9381L305.525 49.9425L306.04 50.8ZM301.24 56.08L302.121 56.5522L302.125 56.5458L302.128 56.5394L301.24 56.08ZM301.24 72.88L300.345 73.3273L300.351 73.3394L301.24 72.88ZM306.04 78.16L305.525 79.0175L305.533 79.0219L305.54 79.0262L306.04 78.16ZM327.4 97H326.4V98H327.4V97ZM327.4 85.84L326.4 85.8344V85.84H327.4ZM327.52 64.36L328.52 64.3656L328.52 64.3349L328.518 64.3042L327.52 64.36ZM326.32 42.88H325.32V42.9079L325.321 42.9358L326.32 42.88ZM326.32 7.95999V6.95999H325.32V7.95999H326.32ZM349.12 7.95999H350.12V6.95999H349.12V7.95999ZM349.12 97V98H350.12V97H349.12ZM308.32 97.08C302.56 97.08 297.329 95.7586 292.607 93.1265L291.633 94.8735C296.671 97.6814 302.24 99.08 308.32 99.08V97.08ZM292.624 93.1362C287.978 90.4264 284.26 86.6731 281.464 81.8579L279.735 82.8621C282.699 87.9669 286.661 91.9736 291.616 94.8638L292.624 93.1362ZM281.468 81.8639C278.69 77.0024 277.28 71.1806 277.28 64.36H275.28C275.28 71.4594 276.749 77.6376 279.731 82.8561L281.468 81.8639ZM277.28 64.36C277.28 57.6211 278.689 51.8818 281.464 47.1021L279.735 46.0979C276.75 51.2382 275.28 57.3389 275.28 64.36H277.28ZM281.468 47.0961C284.264 42.2037 287.977 38.4567 292.613 35.83L291.627 34.09C286.662 36.9033 282.696 40.9163 279.731 46.1039L281.468 47.0961ZM292.607 35.8335C297.329 33.2014 302.56 31.88 308.32 31.88V29.88C302.24 29.88 296.671 31.2786 291.633 34.0865L292.607 35.8335ZM308.32 31.88C313.777 31.88 318.302 33.0484 321.95 35.328L323.01 33.632C318.977 31.1115 314.063 29.88 308.32 29.88V31.88ZM321.958 35.3328C325.666 37.6032 328.499 41.0992 330.432 45.894L332.287 45.146C330.221 40.0208 327.134 36.1568 323.002 33.6271L321.958 35.3328ZM330.432 45.894C332.369 50.6963 333.36 56.8384 333.36 64.36H335.36C335.36 56.6816 334.351 50.2637 332.287 45.146L330.432 45.894ZM333.36 64.36C333.36 72.0482 332.407 78.2741 330.547 83.079L332.412 83.801C334.392 78.6859 335.36 72.1918 335.36 64.36H333.36ZM330.547 83.079C328.691 87.8738 325.936 91.3657 322.31 93.632L323.37 95.328C327.424 92.7943 330.428 88.9262 332.412 83.801L330.547 83.079ZM322.31 93.632C318.669 95.9077 314.026 97.08 308.32 97.08V99.08C314.294 99.08 319.331 97.8523 323.37 95.328L322.31 93.632ZM313.12 80.96C315.843 80.96 318.304 80.3197 320.474 79.0175L319.445 77.3025C317.616 78.4003 315.517 78.96 313.12 78.96V80.96ZM320.459 79.0262C322.72 77.7222 324.488 75.8139 325.768 73.3394L323.991 72.4206C322.871 74.5861 321.36 76.1978 319.46 77.2938L320.459 79.0262ZM325.774 73.3272C327.057 70.7609 327.68 67.7613 327.68 64.36H325.68C325.68 67.5187 325.102 70.1991 323.985 72.4328L325.774 73.3272ZM327.68 64.36C327.68 60.9618 327.058 58.0291 325.761 55.6078L323.998 56.5522C325.101 58.6108 325.68 61.1982 325.68 64.36H327.68ZM325.768 55.6206C324.488 53.1461 322.72 51.2378 320.459 49.9338L319.46 51.6662C321.36 52.7622 322.871 54.3739 323.991 56.5394L325.768 55.6206ZM320.474 49.9425C318.304 48.6403 315.843 48 313.12 48V50C315.517 50 317.616 50.5597 319.445 51.6575L320.474 49.9425ZM313.12 48C310.322 48 307.787 48.6376 305.54 49.9338L306.539 51.6662C308.453 50.5624 310.637 50 313.12 50V48ZM305.525 49.9425C303.348 51.2491 301.626 53.1561 300.351 55.6206L302.128 56.5394C303.253 54.3639 304.732 52.7509 306.554 51.6575L305.525 49.9425ZM300.358 55.6078C299.061 58.0291 298.44 60.9618 298.44 64.36H300.44C300.44 61.1982 301.018 58.6108 302.121 56.5522L300.358 55.6078ZM298.44 64.36C298.44 67.7613 299.062 70.7609 300.345 73.3272L302.134 72.4328C301.017 70.1991 300.44 67.5187 300.44 64.36H298.44ZM300.351 73.3394C301.626 75.8039 303.348 77.7109 305.525 79.0175L306.554 77.3025C304.732 76.2091 303.253 74.5961 302.128 72.4206L300.351 73.3394ZM305.54 79.0262C307.787 80.3224 310.322 80.96 313.12 80.96V78.96C310.637 78.96 308.453 78.3976 306.539 77.2938L305.54 79.0262ZM328.4 97V85.84H326.4V97H328.4ZM328.4 85.8456L328.52 64.3656L326.52 64.3544L326.4 85.8344L328.4 85.8456ZM328.518 64.3042L327.318 42.8242L325.321 42.9358L326.521 64.4158L328.518 64.3042ZM327.32 42.88V7.95999H325.32V42.88H327.32ZM326.32 8.95999H349.12V6.95999H326.32V8.95999ZM348.12 7.95999V97H350.12V7.95999H348.12ZM349.12 96H327.4V98H349.12V96ZM362.229 71.56H361.229V72.56H362.229V71.56ZM362.229 54.04V53.04H361.229V54.04H362.229ZM397.269 54.04H398.269V53.04H397.269V54.04ZM397.269 71.56V72.56H398.269V71.56H397.269ZM363.229 71.56V54.04H361.229V71.56H363.229ZM362.229 55.04H397.269V53.04H362.229V55.04ZM396.269 54.04V71.56H398.269V54.04H396.269ZM397.269 70.56H362.229V72.56H397.269V70.56ZM416.617 97H415.617V98H416.617V97ZM416.617 21.52L417.311 20.8003L415.617 19.1658V21.52H416.617ZM426.817 31.36V32.36H429.294L427.511 30.6403L426.817 31.36ZM401.017 31.36H400.017V32.36H401.017V31.36ZM401.017 13V12H400.017V13H401.017ZM440.377 13H441.377V12H440.377V13ZM440.377 97V98H441.377V97H440.377ZM417.617 97V21.52H415.617V97H417.617ZM415.923 22.2397L426.123 32.0797L427.511 30.6403L417.311 20.8003L415.923 22.2397ZM426.817 30.36H401.017V32.36H426.817V30.36ZM402.017 31.36V13H400.017V31.36H402.017ZM401.017 14H440.377V12H401.017V14ZM439.377 13V97H441.377V13H439.377ZM440.377 96H416.617V98H440.377V96ZM504.25 16L503.773 16.8793L503.778 16.882L504.25 16ZM517.81 29.92L516.922 30.381L516.926 30.3879L516.93 30.3948L517.81 29.92ZM516.97 77.68L516.096 77.1926L516.095 77.1961L516.97 77.68ZM501.25 93.28L500.777 92.3985L500.773 92.4009L501.25 93.28ZM464.53 97L464.781 96.032L464.772 96.0298L464.764 96.0278L464.53 97ZM453.37 92.56L452.478 92.1078L452.061 92.9291L452.846 93.4117L453.37 92.56ZM462.01 75.52L462.583 74.7008L461.639 74.0399L461.118 75.0678L462.01 75.52ZM469.45 79L469.207 79.9701L469.225 79.9745L469.242 79.9782L469.45 79ZM492.97 73.96L493.684 74.6598L493.684 74.6598L492.97 73.96ZM498.37 48.04L499.011 47.2731L496.966 45.5616L497.382 48.196L498.37 48.04ZM504.25 52.96L505.149 53.3975L505.491 52.6946L504.891 52.1931L504.25 52.96ZM498.61 60.4L499.263 61.1574L499.263 61.1574L498.61 60.4ZM490.45 64.96L490.133 64.0113L490.133 64.0113L490.45 64.96ZM465.25 63.28L464.789 64.1678L464.799 64.1728L464.809 64.1777L465.25 63.28ZM454.81 54.04L453.975 54.5909L453.98 54.5986L454.81 54.04ZM455.29 24.88L456.11 25.4524L456.115 25.4452L455.29 24.88ZM467.17 14.92L467.593 15.8259L467.605 15.8202L467.17 14.92ZM479.41 29.56L478.946 28.6742L478.946 28.6742L479.41 29.56ZM475.33 33.28L474.491 32.735L474.484 32.746L475.33 33.28ZM477.01 46.6L476.331 47.3348L476.338 47.3412L476.345 47.3474L477.01 46.6ZM491.53 48.16L491.977 49.0544L491.977 49.0544L491.53 48.16ZM495.61 44.44L496.467 44.9545L496.467 44.9545L495.61 44.44ZM495.61 33.4L494.752 33.9145L494.758 33.9243L494.764 33.934L495.61 33.4ZM491.53 29.68L491.051 30.5579L491.067 30.5664L491.082 30.5744L491.53 29.68ZM483.73 12.32C491.518 12.32 498.187 13.8535 503.773 16.8793L504.726 15.1207C498.792 11.9065 491.781 10.32 483.73 10.32V12.32ZM503.778 16.882C509.432 19.9021 513.811 24.3909 516.922 30.381L518.697 29.459C515.409 23.129 510.748 18.3379 504.721 15.118L503.778 16.882ZM516.93 30.3948C520.11 36.2897 521.73 43.7146 521.73 52.72H523.73C523.73 43.4854 522.07 35.7103 518.69 29.4452L516.93 30.3948ZM521.73 52.72C521.73 62.3496 519.836 70.4932 516.096 77.1926L517.843 78.1674C521.784 71.1068 523.73 62.6104 523.73 52.72H521.73ZM516.095 77.1961C512.426 83.831 507.324 88.8913 500.777 92.3985L501.722 94.1615C508.615 90.4687 513.994 85.129 517.845 78.1639L516.095 77.1961ZM500.773 92.4009C494.303 95.9087 486.713 97.68 477.97 97.68V99.68C486.987 99.68 494.916 97.8513 501.726 94.1591L500.773 92.4009ZM477.97 97.68C473.411 97.68 469.015 97.1299 464.781 96.032L464.279 97.968C468.684 99.1101 473.248 99.68 477.97 99.68V97.68ZM464.764 96.0278C460.525 95.0074 456.907 93.5628 453.894 91.7083L452.846 93.4117C456.072 95.3972 459.894 96.9126 464.296 97.9722L464.764 96.0278ZM454.262 93.0122L462.902 75.9722L461.118 75.0678L452.478 92.1078L454.262 93.0122ZM461.436 76.3392C463.925 78.0816 466.516 79.2974 469.207 79.9701L469.692 78.0299C467.263 77.4226 464.894 76.3184 462.583 74.7008L461.436 76.3392ZM469.242 79.9782C471.951 80.5528 474.701 80.84 477.49 80.84V78.84C474.839 78.84 472.228 78.5672 469.657 78.0218L469.242 79.9782ZM477.49 80.84C484.186 80.84 489.622 78.8063 493.684 74.6598L492.255 73.2602C488.637 76.9537 483.753 78.84 477.49 78.84V80.84ZM493.684 74.6598C497.766 70.4925 499.73 64.4828 499.73 56.8H497.73C497.73 64.1572 495.853 69.5875 492.255 73.2602L493.684 74.6598ZM499.73 56.8C499.73 56.7973 499.73 56.7947 499.73 56.792C499.73 56.7894 499.73 56.7867 499.73 56.7841C499.73 56.7814 499.73 56.7787 499.73 56.7761C499.73 56.7734 499.73 56.7708 499.73 56.7681C499.73 56.7655 499.73 56.7628 499.73 56.7601C499.73 56.7575 499.73 56.7548 499.73 56.7522C499.73 56.7495 499.73 56.7469 499.73 56.7442C499.73 56.7415 499.73 56.7389 499.73 56.7362C499.73 56.7336 499.73 56.7309 499.73 56.7282C499.73 56.7256 499.73 56.7229 499.73 56.7203C499.73 56.7176 499.73 56.7149 499.73 56.7123C499.73 56.7096 499.73 56.707 499.73 56.7043C499.73 56.7016 499.73 56.699 499.73 56.6963C499.73 56.6937 499.73 56.691 499.73 56.6883C499.73 56.6857 499.73 56.683 499.73 56.6804C499.73 56.6777 499.73 56.675 499.73 56.6724C499.73 56.6697 499.73 56.6671 499.73 56.6644C499.73 56.6617 499.73 56.6591 499.73 56.6564C499.73 56.6538 499.73 56.6511 499.73 56.6484C499.73 56.6458 499.73 56.6431 499.73 56.6404C499.73 56.6378 499.73 56.6351 499.73 56.6325C499.73 56.6298 499.73 56.6271 499.73 56.6245C499.73 56.6218 499.73 56.6191 499.73 56.6165C499.73 56.6138 499.73 56.6111 499.73 56.6085C499.73 56.6058 499.73 56.6032 499.73 56.6005C499.73 56.5978 499.73 56.5952 499.73 56.5925C499.73 56.5898 499.73 56.5872 499.73 56.5845C499.73 56.5818 499.73 56.5792 499.73 56.5765C499.73 56.5739 499.73 56.5712 499.73 56.5685C499.73 56.5659 499.73 56.5632 499.73 56.5605C499.73 56.5579 499.73 56.5552 499.73 56.5525C499.73 56.5499 499.73 56.5472 499.73 56.5445C499.73 56.5419 499.73 56.5392 499.73 56.5365C499.73 56.5339 499.73 56.5312 499.73 56.5285C499.73 56.5259 499.73 56.5232 499.73 56.5205C499.73 56.5179 499.73 56.5152 499.73 56.5125C499.73 56.5099 499.73 56.5072 499.73 56.5045C499.73 56.5019 499.73 56.4992 499.73 56.4965C499.73 56.4939 499.73 56.4912 499.73 56.4885C499.73 56.4859 499.73 56.4832 499.73 56.4805C499.73 56.4778 499.73 56.4752 499.73 56.4725C499.73 56.4698 499.73 56.4672 499.73 56.4645C499.73 56.4618 499.73 56.4592 499.73 56.4565C499.73 56.4538 499.73 56.4512 499.73 56.4485C499.73 56.4458 499.73 56.4431 499.73 56.4405C499.73 56.4378 499.73 56.4351 499.73 56.4325C499.73 56.4298 499.73 56.4271 499.73 56.4245C499.73 56.4218 499.73 56.4191 499.73 56.4164C499.73 56.4138 499.73 56.4111 499.73 56.4084C499.73 56.4058 499.73 56.4031 499.73 56.4004C499.73 56.3977 499.73 56.3951 499.73 56.3924C499.73 56.3897 499.73 56.3871 499.73 56.3844C499.73 56.3817 499.73 56.379 499.73 56.3764C499.73 56.3737 499.73 56.371 499.73 56.3684C499.73 56.3657 499.73 56.363 499.73 56.3603C499.73 56.3577 499.73 56.355 499.73 56.3523C499.73 56.3496 499.73 56.347 499.73 56.3443C499.73 56.3416 499.73 56.3389 499.73 56.3363C499.73 56.3336 499.73 56.3309 499.73 56.3282C499.73 56.3256 499.73 56.3229 499.73 56.3202C499.73 56.3176 499.73 56.3149 499.73 56.3122C499.73 56.3095 499.73 56.3069 499.73 56.3042C499.73 56.3015 499.73 56.2988 499.73 56.2962C499.73 56.2935 499.73 56.2908 499.73 56.2881C499.73 56.2854 499.73 56.2828 499.73 56.2801C499.73 56.2774 499.73 56.2747 499.73 56.2721C499.73 56.2694 499.73 56.2667 499.73 56.264C499.73 56.2614 499.73 56.2587 499.73 56.256C499.73 56.2533 499.73 56.2507 499.73 56.248C499.73 56.2453 499.73 56.2426 499.73 56.2399C499.73 56.2373 499.73 56.2346 499.73 56.2319C499.73 56.2292 499.73 56.2266 499.73 56.2239C499.73 56.2212 499.73 56.2185 499.73 56.2158C499.73 56.2132 499.73 56.2105 499.73 56.2078C499.73 56.2051 499.73 56.2024 499.73 56.1998C499.73 56.1971 499.73 56.1944 499.73 56.1917C499.73 56.189 499.73 56.1864 499.73 56.1837C499.73 56.181 499.73 56.1783 499.73 56.1757C499.73 56.173 499.73 56.1703 499.73 56.1676C499.73 56.1649 499.73 56.1622 499.73 56.1596C499.73 56.1569 499.73 56.1542 499.73 56.1515C499.73 56.1488 499.73 56.1462 499.73 56.1435C499.73 56.1408 499.73 56.1381 499.73 56.1354C499.73 56.1328 499.73 56.1301 499.73 56.1274C499.73 56.1247 499.73 56.122 499.73 56.1193C499.73 56.1167 499.73 56.114 499.73 56.1113C499.73 56.1086 499.73 56.1059 499.73 56.1033C499.73 56.1006 499.73 56.0979 499.73 56.0952C499.73 56.0925 499.73 56.0898 499.73 56.0872C499.73 56.0845 499.73 56.0818 499.73 56.0791C499.73 56.0764 499.73 56.0737 499.73 56.0711C499.73 56.0684 499.73 56.0657 499.73 56.063C499.73 56.0603 499.73 56.0576 499.73 56.0549C499.73 56.0523 499.73 56.0496 499.73 56.0469C499.73 56.0442 499.73 56.0415 499.73 56.0388C499.73 56.0362 499.73 56.0335 499.73 56.0308C499.73 56.0281 499.73 56.0254 499.73 56.0227C499.73 56.02 499.73 56.0174 499.73 56.0147C499.73 56.012 499.73 56.0093 499.73 56.0066C499.73 56.0039 499.73 56.0012 499.73 55.9985C499.73 55.9959 499.73 55.9932 499.73 55.9905C499.73 55.9878 499.73 55.9851 499.73 55.9824C499.73 55.9797 499.73 55.977 499.73 55.9744C499.73 55.9717 499.73 55.969 499.73 55.9663C499.73 55.9636 499.73 55.9609 499.73 55.9582C499.73 55.9555 499.73 55.9529 499.73 55.9502C499.73 55.9475 499.73 55.9448 499.73 55.9421C499.73 55.9394 499.73 55.9367 499.73 55.934C499.73 55.9313 499.73 55.9287 499.73 55.926C499.73 55.9233 499.73 55.9206 499.73 55.9179C499.73 55.9152 499.73 55.9125 499.73 55.9098C499.73 55.9071 499.73 55.9044 499.73 55.9018C499.73 55.8991 499.73 55.8964 499.73 55.8937C499.73 55.891 499.73 55.8883 499.73 55.8856C499.73 55.8829 499.73 55.8802 499.73 55.8775C499.73 55.8748 499.73 55.8722 499.73 55.8695C499.73 55.8668 499.73 55.8641 499.73 55.8614C499.73 55.8587 499.73 55.856 499.73 55.8533C499.73 55.8506 499.73 55.8479 499.73 55.8452C499.73 55.8425 499.73 55.8398 499.73 55.8372C499.73 55.8345 499.73 55.8318 499.73 55.8291C499.73 55.8264 499.73 55.8237 499.73 55.821C499.73 55.8183 499.73 55.8156 499.73 55.8129C499.73 55.8102 499.73 55.8075 499.73 55.8048C499.73 55.8021 499.73 55.7994 499.73 55.7968C499.73 55.7941 499.73 55.7914 499.73 55.7887C499.73 55.786 499.73 55.7833 499.73 55.7806C499.73 55.7779 499.73 55.7752 499.73 55.7725C499.73 55.7698 499.73 55.7671 499.73 55.7644C499.73 55.7617 499.73 55.759 499.73 55.7563C499.73 55.7536 499.73 55.7509 499.73 55.7482C499.73 55.7455 499.73 55.7428 499.73 55.7401C499.73 55.7375 499.73 55.7348 499.73 55.7321C499.73 55.7294 499.73 55.7267 499.73 55.724C499.73 55.7213 499.73 55.7186 499.73 55.7159C499.73 55.7132 499.73 55.7105 499.73 55.7078C499.73 55.7051 499.73 55.7024 499.73 55.6997C499.73 55.697 499.73 55.6943 499.73 55.6916C499.73 55.6889 499.73 55.6862 499.73 55.6835C499.73 55.6808 499.73 55.6781 499.73 55.6754C499.73 55.6727 499.73 55.67 499.73 55.6673C499.73 55.6646 499.73 55.6619 499.73 55.6592C499.73 55.6565 499.73 55.6538 499.73 55.6511C499.73 55.6484 499.73 55.6457 499.73 55.643C499.73 55.6403 499.73 55.6376 499.73 55.6349C499.73 55.6322 499.73 55.6295 499.73 55.6268C499.73 55.6241 499.73 55.6214 499.73 55.6187C499.73 55.616 499.73 55.6133 499.73 55.6106C499.73 55.6079 499.73 55.6052 499.73 55.6025C499.73 55.5998 499.73 55.5971 499.73 55.5944C499.73 55.5917 499.73 55.589 499.73 55.5863C499.73 55.5836 499.73 55.5809 499.73 55.5782C499.73 55.5755 499.73 55.5728 499.73 55.5701C499.73 55.5674 499.73 55.5647 499.73 55.562C499.73 55.5593 499.73 55.5565 499.73 55.5538C499.73 55.5511 499.73 55.5484 499.73 55.5457C499.73 55.543 499.73 55.5403 499.73 55.5376C499.73 55.5349 499.73 55.5322 499.73 55.5295C499.73 55.5268 499.73 55.5241 499.73 55.5214C499.73 55.5187 499.73 55.516 499.73 55.5133C499.73 55.5106 499.73 55.5079 499.73 55.5052C499.73 55.5025 499.73 55.4998 499.73 55.497C499.73 55.4943 499.73 55.4916 499.73 55.4889C499.73 55.4862 499.73 55.4835 499.73 55.4808C499.73 55.4781 499.73 55.4754 499.73 55.4727C499.73 55.47 499.73 55.4673 499.73 55.4646C499.73 55.4619 499.73 55.4592 499.73 55.4565C499.73 55.4537 499.73 55.451 499.73 55.4483C499.73 55.4456 499.73 55.4429 499.73 55.4402C499.73 55.4375 499.73 55.4348 499.73 55.4321C499.73 55.4294 499.73 55.4267 499.73 55.424C499.73 55.4212 499.73 55.4185 499.73 55.4158C499.73 55.4131 499.73 55.4104 499.73 55.4077C499.73 55.405 499.73 55.4023 499.73 55.3996C499.73 55.3969 499.73 55.3942 499.73 55.3914C499.73 55.3887 499.73 55.386 499.73 55.3833C499.73 55.3806 499.73 55.3779 499.73 55.3752C499.73 55.3725 499.73 55.3698 499.73 55.3671C499.73 55.3643 499.73 55.3616 499.73 55.3589C499.73 55.3562 499.73 55.3535 499.73 55.3508C499.73 55.3481 499.73 55.3454 499.73 55.3427C499.73 55.3399 499.73 55.3372 499.73 55.3345C499.73 55.3318 499.73 55.3291 499.73 55.3264C499.73 55.3237 499.73 55.321 499.73 55.3182C499.73 55.3155 499.73 55.3128 499.73 55.3101C499.73 55.3074 499.73 55.3047 499.73 55.302C499.73 55.2993 499.73 55.2965 499.73 55.2938C499.73 55.2911 499.73 55.2884 499.73 55.2857C499.73 55.283 499.73 55.2803 499.73 55.2776C499.73 55.2748 499.73 55.2721 499.73 55.2694C499.73 55.2667 499.73 55.264 499.73 55.2613C499.73 55.2586 499.73 55.2558 499.73 55.2531C499.73 55.2504 499.73 55.2477 499.73 55.245C499.73 55.2423 499.73 55.2395 499.73 55.2368C499.73 55.2341 499.73 55.2314 499.73 55.2287C499.73 55.226 499.73 55.2233 499.73 55.2205C499.73 55.2178 499.73 55.2151 499.73 55.2124C499.73 55.2097 499.73 55.207 499.73 55.2042C499.73 55.2015 499.73 55.1988 499.73 55.1961C499.73 55.1934 499.73 55.1907 499.73 55.1879C499.73 55.1852 499.73 55.1825 499.73 55.1798C499.73 55.1771 499.73 55.1743 499.73 55.1716C499.73 55.1689 499.73 55.1662 499.73 55.1635C499.73 55.1608 499.73 55.158 499.73 55.1553C499.73 55.1526 499.73 55.1499 499.73 55.1472C499.73 55.1444 499.73 55.1417 499.73 55.139C499.73 55.1363 499.73 55.1336 499.73 55.1309C499.73 55.1281 499.73 55.1254 499.73 55.1227C499.73 55.12 499.73 55.1173 499.73 55.1145C499.73 55.1118 499.73 55.1091 499.73 55.1064C499.73 55.1037 499.73 55.1009 499.73 55.0982C499.73 55.0955 499.73 55.0928 499.73 55.09C499.73 55.0873 499.73 55.0846 499.73 55.0819C499.73 55.0792 499.73 55.0764 499.73 55.0737C499.73 55.071 499.73 55.0683 499.73 55.0656C499.73 55.0628 499.73 55.0601 499.73 55.0574C499.73 55.0547 499.73 55.0519 499.73 55.0492C499.73 55.0465 499.73 55.0438 499.73 55.0411C499.73 55.0383 499.73 55.0356 499.73 55.0329C499.73 55.0302 499.73 55.0274 499.73 55.0247C499.73 55.022 499.73 55.0193 499.73 55.0165C499.73 55.0138 499.73 55.0111 499.73 55.0084C499.73 55.0057 499.73 55.0029 499.73 55.0002C499.73 54.9975 499.73 54.9948 499.73 54.992C499.73 54.9893 499.73 54.9866 499.73 54.9839C499.73 54.9811 499.73 54.9784 499.73 54.9757C499.73 54.973 499.73 54.9702 499.73 54.9675C499.73 54.9648 499.73 54.9621 499.73 54.9593C499.73 54.9566 499.73 54.9539 499.73 54.9511C499.73 54.9484 499.73 54.9457 499.73 54.943C499.73 54.9402 499.73 54.9375 499.73 54.9348C499.73 54.9321 499.73 54.9293 499.73 54.9266C499.73 54.9239 499.73 54.9212 499.73 54.9184C499.73 54.9157 499.73 54.913 499.73 54.9102C499.73 54.9075 499.73 54.9048 499.73 54.9021C499.73 54.8993 499.73 54.8966 499.73 54.8939C499.73 54.8911 499.73 54.8884 499.73 54.8857C499.73 54.883 499.73 54.8802 499.73 54.8775C499.73 54.8748 499.73 54.872 499.73 54.8693C499.73 54.8666 499.73 54.8639 499.73 54.8611C499.73 54.8584 499.73 54.8557 499.73 54.8529C499.73 54.8502 499.73 54.8475 499.73 54.8448C499.73 54.842 499.73 54.8393 499.73 54.8366C499.73 54.8338 499.73 54.8311 499.73 54.8284C499.73 54.8256 499.73 54.8229 499.73 54.8202C499.73 54.8174 499.73 54.8147 499.73 54.812C499.73 54.8093 499.73 54.8065 499.73 54.8038C499.73 54.8011 499.73 54.7983 499.73 54.7956C499.73 54.7929 499.73 54.7901 499.73 54.7874C499.73 54.7847 499.73 54.7819 499.73 54.7792C499.73 54.7765 499.73 54.7737 499.73 54.771C499.73 54.7683 499.73 54.7655 499.73 54.7628C499.73 54.7601 499.73 54.7573 499.73 54.7546C499.73 54.7519 499.73 54.7491 499.73 54.7464C499.73 54.7437 499.73 54.7409 499.73 54.7382C499.73 54.7355 499.73 54.7327 499.73 54.73C499.73 54.7273 499.73 54.7245 499.73 54.7218C499.73 54.7191 499.73 54.7163 499.73 54.7136C499.73 54.7109 499.73 54.7081 499.73 54.7054C499.73 54.7026 499.73 54.6999 499.73 54.6972C499.73 54.6944 499.73 54.6917 499.73 54.689C499.73 54.6862 499.73 54.6835 499.73 54.6808C499.73 54.678 499.73 54.6753 499.73 54.6726C499.73 54.6698 499.73 54.6671 499.73 54.6643C499.73 54.6616 499.73 54.6589 499.73 54.6561C499.73 54.6534 499.73 54.6507 499.73 54.6479C499.73 54.6452 499.73 54.6424 499.73 54.6397C499.73 54.637 499.73 54.6342 499.73 54.6315C499.73 54.6288 499.73 54.626 499.73 54.6233C499.73 54.6205 499.73 54.6178 499.73 54.6151C499.73 54.6123 499.73 54.6096 499.73 54.6068C499.73 54.6041 499.73 54.6014 499.73 54.5986C499.73 54.5959 499.73 54.5932 499.73 54.5904C499.73 54.5877 499.73 54.5849 499.73 54.5822C499.73 54.5795 499.73 54.5767 499.73 54.574C499.73 54.5712 499.73 54.5685 499.73 54.5658C499.73 54.563 499.73 54.5603 499.73 54.5575C499.73 54.5548 499.73 54.552 499.73 54.5493C499.73 54.5466 499.73 54.5438 499.73 54.5411C499.73 54.5383 499.73 54.5356 499.73 54.5329C499.73 54.5301 499.73 54.5274 499.73 54.5246C499.73 54.5219 499.73 54.5191 499.73 54.5164C499.73 54.5137 499.73 54.5109 499.73 54.5082C499.73 54.5054 499.73 54.5027 499.73 54.5C499.73 54.4972 499.73 54.4945 499.73 54.4917C499.73 54.489 499.73 54.4862 499.73 54.4835C499.73 54.4807 499.73 54.478 499.73 54.4753C499.73 54.4725 499.73 54.4698 499.73 54.467C499.73 54.4643 499.73 54.4615 499.73 54.4588C499.73 54.4561 499.73 54.4533 499.73 54.4506C499.73 54.4478 499.73 54.4451 499.73 54.4423C499.73 54.4396 499.73 54.4368 499.73 54.4341C499.73 54.4313 499.73 54.4286 499.73 54.4259C499.73 54.4231 499.73 54.4204 499.73 54.4176C499.73 54.4149 499.73 54.4121 499.73 54.4094C499.73 54.4066 499.73 54.4039 499.73 54.4011C499.73 54.3984 499.73 54.3956 499.73 54.3929C499.73 54.3902 499.73 54.3874 499.73 54.3847C499.73 54.3819 499.73 54.3792 499.73 54.3764C499.73 54.3737 499.73 54.3709 499.73 54.3682C499.73 54.3654 499.73 54.3627 499.73 54.3599C499.73 54.3572 499.73 54.3544 499.73 54.3517C499.73 54.3489 499.73 54.3462 499.73 54.3434C499.73 54.3407 499.73 54.3379 499.73 54.3352C499.73 54.3324 499.73 54.3297 499.73 54.3269C499.73 54.3242 499.73 54.3214 499.73 54.3187C499.73 54.3159 499.73 54.3132 499.73 54.3104C499.73 54.3077 499.73 54.3049 499.73 54.3022C499.73 54.2994 499.73 54.2967 499.73 54.2939C499.73 54.2912 499.73 54.2884 499.73 54.2857C499.73 54.2829 499.73 54.2802 499.73 54.2774C499.73 54.2747 499.73 54.2719 499.73 54.2692C499.73 54.2664 499.73 54.2637 499.73 54.2609C499.73 54.2582 499.73 54.2554 499.73 54.2527C499.73 54.2499 499.73 54.2472 499.73 54.2444C499.73 54.2417 499.73 54.2389 499.73 54.2362C499.73 54.2334 499.73 54.2307 499.73 54.2279C499.73 54.2252 499.73 54.2224 499.73 54.2196C499.73 54.2169 499.73 54.2141 499.73 54.2114C499.73 54.2086 499.73 54.2059 499.73 54.2031C499.73 54.2004 499.73 54.1976 499.73 54.1949C499.73 54.1921 499.73 54.1894 499.73 54.1866C499.73 54.1838 499.73 54.1811 499.73 54.1783C499.73 54.1756 499.73 54.1728 499.73 54.1701C499.73 54.1673 499.73 54.1646 499.73 54.1618C499.73 54.159 499.73 54.1563 499.73 54.1535C499.73 54.1508 499.73 54.148 499.73 54.1453C499.73 54.1425 499.73 54.1398 499.73 54.137C499.73 54.1342 499.73 54.1315 499.73 54.1287C499.73 54.126 499.73 54.1232 499.73 54.1205C499.73 54.1177 499.73 54.1149 499.73 54.1122C499.73 54.1094 499.73 54.1067 499.73 54.1039C499.73 54.1012 499.73 54.0984 499.73 54.0956C499.73 54.0929 499.73 54.0901 499.73 54.0874C499.73 54.0846 499.73 54.0819 499.73 54.0791C499.73 54.0763 499.73 54.0736 499.73 54.0708C499.73 54.0681 499.73 54.0653 499.73 54.0625C499.73 54.0598 499.73 54.057 499.73 54.0543C499.73 54.0515 499.73 54.0487 499.73 54.046C499.73 54.0432 499.73 54.0405 499.73 54.0377C499.73 54.0349 499.73 54.0322 499.73 54.0294C499.73 54.0267 499.73 54.0239 499.73 54.0211C499.73 54.0184 499.73 54.0156 499.73 54.0129C499.73 54.0101 499.73 54.0073 499.73 54.0046C499.73 54.0018 499.73 53.9991 499.73 53.9963C499.73 53.9935 499.73 53.9908 499.73 53.988C499.73 53.9852 499.73 53.9825 499.73 53.9797C499.73 53.977 499.73 53.9742 499.73 53.9714C499.73 53.9687 499.73 53.9659 499.73 53.9631C499.73 53.9604 499.73 53.9576 499.73 53.9549C499.73 53.9521 499.73 53.9493 499.73 53.9466C499.73 53.9438 499.73 53.941 499.73 53.9383C499.73 53.9355 499.73 53.9328 499.73 53.93C499.73 53.9272 499.73 53.9245 499.73 53.9217C499.73 53.9189 499.73 53.9162 499.73 53.9134C499.73 53.9106 499.73 53.9079 499.73 53.9051C499.73 53.9023 499.73 53.8996 499.73 53.8968C499.73 53.894 499.73 53.8913 499.73 53.8885C499.73 53.8858 499.73 53.883 499.73 53.8802C499.73 53.8775 499.73 53.8747 499.73 53.8719C499.73 53.8692 499.73 53.8664 499.73 53.8636C499.73 53.8609 499.73 53.8581 499.73 53.8553C499.73 53.8526 499.73 53.8498 499.73 53.847C499.73 53.8443 499.73 53.8415 499.73 53.8387C499.73 53.836 499.73 53.8332 499.73 53.8304C499.73 53.8277 499.73 53.8249 499.73 53.8221C499.73 53.8193 499.73 53.8166 499.73 53.8138C499.73 53.811 499.73 53.8083 499.73 53.8055C499.73 53.8027 499.73 53.8 499.73 53.7972C499.73 53.7944 499.73 53.7917 499.73 53.7889C499.73 53.7861 499.73 53.7834 499.73 53.7806C499.73 53.7778 499.73 53.775 499.73 53.7723C499.73 53.7695 499.73 53.7667 499.73 53.764C499.73 53.7612 499.73 53.7584 499.73 53.7557C499.73 53.7529 499.73 53.7501 499.73 53.7473C499.73 53.7446 499.73 53.7418 499.73 53.739C499.73 53.7363 499.73 53.7335 499.73 53.7307C499.73 53.7279 499.73 53.7252 499.73 53.7224C499.73 53.7196 499.73 53.7169 499.73 53.7141C499.73 53.7113 499.73 53.7085 499.73 53.7058C499.73 53.703 499.73 53.7002 499.73 53.6975C499.73 53.6947 499.73 53.6919 499.73 53.6891C499.73 53.6864 499.73 53.6836 499.73 53.6808C499.73 53.678 499.73 53.6753 499.73 53.6725C499.73 53.6697 499.73 53.667 499.73 53.6642C499.73 53.6614 499.73 53.6586 499.73 53.6559C499.73 53.6531 499.73 53.6503 499.73 53.6475C499.73 53.6448 499.73 53.642 499.73 53.6392C499.73 53.6364 499.73 53.6337 499.73 53.6309C499.73 53.6281 499.73 53.6253 499.73 53.6226C499.73 53.6198 499.73 53.617 499.73 53.6142C499.73 53.6115 499.73 53.6087 499.73 53.6059C499.73 53.6031 499.73 53.6004 499.73 53.5976C499.73 53.5948 499.73 53.592 499.73 53.5892C499.73 53.5865 499.73 53.5837 499.73 53.5809C499.73 53.5781 499.73 53.5754 499.73 53.5726C499.73 53.5698 499.73 53.567 499.73 53.5643C499.73 53.5615 499.73 53.5587 499.73 53.5559C499.73 53.5531 499.73 53.5504 499.73 53.5476C499.73 53.5448 499.73 53.542 499.73 53.5393C499.73 53.5365 499.73 53.5337 499.73 53.5309C499.73 53.5281 499.73 53.5254 499.73 53.5226C499.73 53.5198 499.73 53.517 499.73 53.5142C499.73 53.5115 499.73 53.5087 499.73 53.5059C499.73 53.5031 499.73 53.5003 499.73 53.4976C499.73 53.4948 499.73 53.492 499.73 53.4892C499.73 53.4864 499.73 53.4837 499.73 53.4809C499.73 53.4781 499.73 53.4753 499.73 53.4725C499.73 53.4698 499.73 53.467 499.73 53.4642C499.73 53.4614 499.73 53.4586 499.73 53.4559C499.73 53.4531 499.73 53.4503 499.73 53.4475C499.73 53.4447 499.73 53.442 499.73 53.4392C499.73 53.4364 499.73 53.4336 499.73 53.4308C499.73 53.428 499.73 53.4253 499.73 53.4225C499.73 53.4197 499.73 53.4169 499.73 53.4141C499.73 53.4113 499.73 53.4086 499.73 53.4058C499.73 53.403 499.73 53.4002 499.73 53.3974C499.73 53.3946 499.73 53.3919 499.73 53.3891C499.73 53.3863 499.73 53.3835 499.73 53.3807C499.73 53.3779 499.73 53.3752 499.73 53.3724C499.73 53.3696 499.73 53.3668 499.73 53.364C499.73 53.3612 499.73 53.3585 499.73 53.3557C499.73 53.3529 499.73 53.3501 499.73 53.3473C499.73 53.3445 499.73 53.3417 499.73 53.339C499.73 53.3362 499.73 53.3334 499.73 53.3306C499.73 53.3278 499.73 53.325 499.73 53.3222C499.73 53.3195 499.73 53.3167 499.73 53.3139C499.73 53.3111 499.73 53.3083 499.73 53.3055C499.73 53.3027 499.73 53.2999 499.73 53.2972C499.73 53.2944 499.73 53.2916 499.73 53.2888C499.73 53.286 499.73 53.2832 499.73 53.2804C499.73 53.2776 499.73 53.2749 499.73 53.2721C499.73 53.2693 499.73 53.2665 499.73 53.2637C499.73 53.2609 499.73 53.2581 499.73 53.2553C499.73 53.2525 499.73 53.2498 499.73 53.247C499.73 53.2442 499.73 53.2414 499.73 53.2386C499.73 53.2358 499.73 53.233 499.73 53.2302C499.73 53.2274 499.73 53.2247 499.73 53.2219C499.73 53.2191 499.73 53.2163 499.73 53.2135C499.73 53.2107 499.73 53.2079 499.73 53.2051C499.73 53.2023 499.73 53.1995 499.73 53.1968C499.73 53.194 499.73 53.1912 499.73 53.1884C499.73 53.1856 499.73 53.1828 499.73 53.18C499.73 53.1772 499.73 53.1744 499.73 53.1716C499.73 53.1688 499.73 53.166 499.73 53.1633C499.73 53.1605 499.73 53.1577 499.73 53.1549C499.73 53.1521 499.73 53.1493 499.73 53.1465C499.73 53.1437 499.73 53.1409 499.73 53.1381C499.73 53.1353 499.73 53.1325 499.73 53.1297C499.73 53.127 499.73 53.1242 499.73 53.1214C499.73 53.1186 499.73 53.1158 499.73 53.113C499.73 53.1102 499.73 53.1074 499.73 53.1046C499.73 53.1018 499.73 53.099 499.73 53.0962C499.73 53.0934 499.73 53.0906 499.73 53.0878C499.73 53.085 499.73 53.0822 499.73 53.0794C499.73 53.0767 499.73 53.0739 499.73 53.0711C499.73 53.0683 499.73 53.0655 499.73 53.0627C499.73 53.0599 499.73 53.0571 499.73 53.0543C499.73 53.0515 499.73 53.0487 499.73 53.0459C499.73 53.0431 499.73 53.0403 499.73 53.0375C499.73 53.0347 499.73 53.0319 499.73 53.0291C499.73 53.0263 499.73 53.0235 499.73 53.0207C499.73 53.0179 499.73 53.0151 499.73 53.0123C499.73 53.0095 499.73 53.0067 499.73 53.0039C499.73 53.0011 499.73 52.9983 499.73 52.9956C499.73 52.9928 499.73 52.99 499.73 52.9872C499.73 52.9844 499.73 52.9816 499.73 52.9788C499.73 52.976 499.73 52.9732 499.73 52.9704C499.73 52.9676 499.73 52.9648 499.73 52.962C499.73 52.9592 499.73 52.9564 499.73 52.9536C499.73 52.9508 499.73 52.948 499.73 52.9452C499.73 52.9424 499.73 52.9396 499.73 52.9368C499.73 52.934 499.73 52.9312 499.73 52.9284C499.73 52.9256 499.73 52.9228 499.73 52.92C499.73 52.9172 499.73 52.9144 499.73 52.9116C499.73 52.9088 499.73 52.906 499.73 52.9032C499.73 52.9004 499.73 52.8976 499.73 52.8948C499.73 52.8919 499.73 52.8891 499.73 52.8863C499.73 52.8835 499.73 52.8807 499.73 52.8779C499.73 52.8751 499.73 52.8723 499.73 52.8695C499.73 52.8667 499.73 52.8639 499.73 52.8611C499.73 52.8583 499.73 52.8555 499.73 52.8527C499.73 52.8499 499.73 52.8471 499.73 52.8443C499.73 52.8415 499.73 52.8387 499.73 52.8359C499.73 52.8331 499.73 52.8303 499.73 52.8275C499.73 52.8247 499.73 52.8219 499.73 52.8191C499.73 52.8163 499.73 52.8135 499.73 52.8107C499.73 52.8078 499.73 52.805 499.73 52.8022C499.73 52.7994 499.73 52.7966 499.73 52.7938C499.73 52.791 499.73 52.7882 499.73 52.7854C499.73 52.7826 499.73 52.7798 499.73 52.777C499.73 52.7742 499.73 52.7714 499.73 52.7686C499.73 52.7658 499.73 52.763 499.73 52.7601C499.73 52.7573 499.73 52.7545 499.73 52.7517C499.73 52.7489 499.73 52.7461 499.73 52.7433C499.73 52.7405 499.73 52.7377 499.73 52.7349C499.73 52.7321 499.73 52.7293 499.73 52.7265C499.73 52.7237 499.73 52.7208 499.73 52.718C499.73 52.7152 499.73 52.7124 499.73 52.7096C499.73 52.7068 499.73 52.704 499.73 52.7012C499.73 52.6984 499.73 52.6956 499.73 52.6928C499.73 52.6899 499.73 52.6871 499.73 52.6843C499.73 52.6815 499.73 52.6787 499.73 52.6759C499.73 52.6731 499.73 52.6703 499.73 52.6675C499.73 52.6647 499.73 52.6618 499.73 52.659C499.73 52.6562 499.73 52.6534 499.73 52.6506C499.73 52.6478 499.73 52.645 499.73 52.6422C499.73 52.6394 499.73 52.6366 499.73 52.6337C499.73 52.6309 499.73 52.6281 499.73 52.6253C499.73 52.6225 499.73 52.6197 499.73 52.6169C499.73 52.6141 499.73 52.6112 499.73 52.6084C499.73 52.6056 499.73 52.6028 499.73 52.6H497.73C497.73 52.6028 497.73 52.6056 497.73 52.6084C497.73 52.6112 497.73 52.6141 497.73 52.6169C497.73 52.6197 497.73 52.6225 497.73 52.6253C497.73 52.6281 497.73 52.6309 497.73 52.6337C497.73 52.6366 497.73 52.6394 497.73 52.6422C497.73 52.645 497.73 52.6478 497.73 52.6506C497.73 52.6534 497.73 52.6562 497.73 52.659C497.73 52.6618 497.73 52.6647 497.73 52.6675C497.73 52.6703 497.73 52.6731 497.73 52.6759C497.73 52.6787 497.73 52.6815 497.73 52.6843C497.73 52.6871 497.73 52.6899 497.73 52.6928C497.73 52.6956 497.73 52.6984 497.73 52.7012C497.73 52.704 497.73 52.7068 497.73 52.7096C497.73 52.7124 497.73 52.7152 497.73 52.718C497.73 52.7208 497.73 52.7237 497.73 52.7265C497.73 52.7293 497.73 52.7321 497.73 52.7349C497.73 52.7377 497.73 52.7405 497.73 52.7433C497.73 52.7461 497.73 52.7489 497.73 52.7517C497.73 52.7545 497.73 52.7573 497.73 52.7601C497.73 52.763 497.73 52.7658 497.73 52.7686C497.73 52.7714 497.73 52.7742 497.73 52.777C497.73 52.7798 497.73 52.7826 497.73 52.7854C497.73 52.7882 497.73 52.791 497.73 52.7938C497.73 52.7966 497.73 52.7994 497.73 52.8022C497.73 52.805 497.73 52.8078 497.73 52.8107C497.73 52.8135 497.73 52.8163 497.73 52.8191C497.73 52.8219 497.73 52.8247 497.73 52.8275C497.73 52.8303 497.73 52.8331 497.73 52.8359C497.73 52.8387 497.73 52.8415 497.73 52.8443C497.73 52.8471 497.73 52.8499 497.73 52.8527C497.73 52.8555 497.73 52.8583 497.73 52.8611C497.73 52.8639 497.73 52.8667 497.73 52.8695C497.73 52.8723 497.73 52.8751 497.73 52.8779C497.73 52.8807 497.73 52.8835 497.73 52.8863C497.73 52.8891 497.73 52.8919 497.73 52.8948C497.73 52.8976 497.73 52.9004 497.73 52.9032C497.73 52.906 497.73 52.9088 497.73 52.9116C497.73 52.9144 497.73 52.9172 497.73 52.92C497.73 52.9228 497.73 52.9256 497.73 52.9284C497.73 52.9312 497.73 52.934 497.73 52.9368C497.73 52.9396 497.73 52.9424 497.73 52.9452C497.73 52.948 497.73 52.9508 497.73 52.9536C497.73 52.9564 497.73 52.9592 497.73 52.962C497.73 52.9648 497.73 52.9676 497.73 52.9704C497.73 52.9732 497.73 52.976 497.73 52.9788C497.73 52.9816 497.73 52.9844 497.73 52.9872C497.73 52.99 497.73 52.9928 497.73 52.9956C497.73 52.9983 497.73 53.0011 497.73 53.0039C497.73 53.0067 497.73 53.0095 497.73 53.0123C497.73 53.0151 497.73 53.0179 497.73 53.0207C497.73 53.0235 497.73 53.0263 497.73 53.0291C497.73 53.0319 497.73 53.0347 497.73 53.0375C497.73 53.0403 497.73 53.0431 497.73 53.0459C497.73 53.0487 497.73 53.0515 497.73 53.0543C497.73 53.0571 497.73 53.0599 497.73 53.0627C497.73 53.0655 497.73 53.0683 497.73 53.0711C497.73 53.0739 497.73 53.0767 497.73 53.0794C497.73 53.0822 497.73 53.085 497.73 53.0878C497.73 53.0906 497.73 53.0934 497.73 53.0962C497.73 53.099 497.73 53.1018 497.73 53.1046C497.73 53.1074 497.73 53.1102 497.73 53.113C497.73 53.1158 497.73 53.1186 497.73 53.1214C497.73 53.1242 497.73 53.127 497.73 53.1297C497.73 53.1325 497.73 53.1353 497.73 53.1381C497.73 53.1409 497.73 53.1437 497.73 53.1465C497.73 53.1493 497.73 53.1521 497.73 53.1549C497.73 53.1577 497.73 53.1605 497.73 53.1633C497.73 53.166 497.73 53.1688 497.73 53.1716C497.73 53.1744 497.73 53.1772 497.73 53.18C497.73 53.1828 497.73 53.1856 497.73 53.1884C497.73 53.1912 497.73 53.194 497.73 53.1968C497.73 53.1995 497.73 53.2023 497.73 53.2051C497.73 53.2079 497.73 53.2107 497.73 53.2135C497.73 53.2163 497.73 53.2191 497.73 53.2219C497.73 53.2247 497.73 53.2274 497.73 53.2302C497.73 53.233 497.73 53.2358 497.73 53.2386C497.73 53.2414 497.73 53.2442 497.73 53.247C497.73 53.2498 497.73 53.2525 497.73 53.2553C497.73 53.2581 497.73 53.2609 497.73 53.2637C497.73 53.2665 497.73 53.2693 497.73 53.2721C497.73 53.2749 497.73 53.2776 497.73 53.2804C497.73 53.2832 497.73 53.286 497.73 53.2888C497.73 53.2916 497.73 53.2944 497.73 53.2972C497.73 53.2999 497.73 53.3027 497.73 53.3055C497.73 53.3083 497.73 53.3111 497.73 53.3139C497.73 53.3167 497.73 53.3195 497.73 53.3222C497.73 53.325 497.73 53.3278 497.73 53.3306C497.73 53.3334 497.73 53.3362 497.73 53.339C497.73 53.3417 497.73 53.3445 497.73 53.3473C497.73 53.3501 497.73 53.3529 497.73 53.3557C497.73 53.3585 497.73 53.3612 497.73 53.364C497.73 53.3668 497.73 53.3696 497.73 53.3724C497.73 53.3752 497.73 53.3779 497.73 53.3807C497.73 53.3835 497.73 53.3863 497.73 53.3891C497.73 53.3919 497.73 53.3946 497.73 53.3974C497.73 53.4002 497.73 53.403 497.73 53.4058C497.73 53.4086 497.73 53.4113 497.73 53.4141C497.73 53.4169 497.73 53.4197 497.73 53.4225C497.73 53.4253 497.73 53.428 497.73 53.4308C497.73 53.4336 497.73 53.4364 497.73 53.4392C497.73 53.442 497.73 53.4447 497.73 53.4475C497.73 53.4503 497.73 53.4531 497.73 53.4559C497.73 53.4586 497.73 53.4614 497.73 53.4642C497.73 53.467 497.73 53.4698 497.73 53.4725C497.73 53.4753 497.73 53.4781 497.73 53.4809C497.73 53.4837 497.73 53.4864 497.73 53.4892C497.73 53.492 497.73 53.4948 497.73 53.4976C497.73 53.5003 497.73 53.5031 497.73 53.5059C497.73 53.5087 497.73 53.5115 497.73 53.5142C497.73 53.517 497.73 53.5198 497.73 53.5226C497.73 53.5254 497.73 53.5281 497.73 53.5309C497.73 53.5337 497.73 53.5365 497.73 53.5393C497.73 53.542 497.73 53.5448 497.73 53.5476C497.73 53.5504 497.73 53.5531 497.73 53.5559C497.73 53.5587 497.73 53.5615 497.73 53.5643C497.73 53.567 497.73 53.5698 497.73 53.5726C497.73 53.5754 497.73 53.5781 497.73 53.5809C497.73 53.5837 497.73 53.5865 497.73 53.5892C497.73 53.592 497.73 53.5948 497.73 53.5976C497.73 53.6004 497.73 53.6031 497.73 53.6059C497.73 53.6087 497.73 53.6115 497.73 53.6142C497.73 53.617 497.73 53.6198 497.73 53.6226C497.73 53.6253 497.73 53.6281 497.73 53.6309C497.73 53.6337 497.73 53.6364 497.73 53.6392C497.73 53.642 497.73 53.6448 497.73 53.6475C497.73 53.6503 497.73 53.6531 497.73 53.6559C497.73 53.6586 497.73 53.6614 497.73 53.6642C497.73 53.667 497.73 53.6697 497.73 53.6725C497.73 53.6753 497.73 53.678 497.73 53.6808C497.73 53.6836 497.73 53.6864 497.73 53.6891C497.73 53.6919 497.73 53.6947 497.73 53.6975C497.73 53.7002 497.73 53.703 497.73 53.7058C497.73 53.7085 497.73 53.7113 497.73 53.7141C497.73 53.7169 497.73 53.7196 497.73 53.7224C497.73 53.7252 497.73 53.7279 497.73 53.7307C497.73 53.7335 497.73 53.7363 497.73 53.739C497.73 53.7418 497.73 53.7446 497.73 53.7473C497.73 53.7501 497.73 53.7529 497.73 53.7557C497.73 53.7584 497.73 53.7612 497.73 53.764C497.73 53.7667 497.73 53.7695 497.73 53.7723C497.73 53.775 497.73 53.7778 497.73 53.7806C497.73 53.7834 497.73 53.7861 497.73 53.7889C497.73 53.7917 497.73 53.7944 497.73 53.7972C497.73 53.8 497.73 53.8027 497.73 53.8055C497.73 53.8083 497.73 53.811 497.73 53.8138C497.73 53.8166 497.73 53.8193 497.73 53.8221C497.73 53.8249 497.73 53.8277 497.73 53.8304C497.73 53.8332 497.73 53.836 497.73 53.8387C497.73 53.8415 497.73 53.8443 497.73 53.847C497.73 53.8498 497.73 53.8526 497.73 53.8553C497.73 53.8581 497.73 53.8609 497.73 53.8636C497.73 53.8664 497.73 53.8692 497.73 53.8719C497.73 53.8747 497.73 53.8775 497.73 53.8802C497.73 53.883 497.73 53.8858 497.73 53.8885C497.73 53.8913 497.73 53.894 497.73 53.8968C497.73 53.8996 497.73 53.9023 497.73 53.9051C497.73 53.9079 497.73 53.9106 497.73 53.9134C497.73 53.9162 497.73 53.9189 497.73 53.9217C497.73 53.9245 497.73 53.9272 497.73 53.93C497.73 53.9328 497.73 53.9355 497.73 53.9383C497.73 53.941 497.73 53.9438 497.73 53.9466C497.73 53.9493 497.73 53.9521 497.73 53.9549C497.73 53.9576 497.73 53.9604 497.73 53.9631C497.73 53.9659 497.73 53.9687 497.73 53.9714C497.73 53.9742 497.73 53.977 497.73 53.9797C497.73 53.9825 497.73 53.9852 497.73 53.988C497.73 53.9908 497.73 53.9935 497.73 53.9963C497.73 53.9991 497.73 54.0018 497.73 54.0046C497.73 54.0073 497.73 54.0101 497.73 54.0129C497.73 54.0156 497.73 54.0184 497.73 54.0211C497.73 54.0239 497.73 54.0267 497.73 54.0294C497.73 54.0322 497.73 54.0349 497.73 54.0377C497.73 54.0405 497.73 54.0432 497.73 54.046C497.73 54.0487 497.73 54.0515 497.73 54.0543C497.73 54.057 497.73 54.0598 497.73 54.0625C497.73 54.0653 497.73 54.0681 497.73 54.0708C497.73 54.0736 497.73 54.0763 497.73 54.0791C497.73 54.0819 497.73 54.0846 497.73 54.0874C497.73 54.0901 497.73 54.0929 497.73 54.0956C497.73 54.0984 497.73 54.1012 497.73 54.1039C497.73 54.1067 497.73 54.1094 497.73 54.1122C497.73 54.1149 497.73 54.1177 497.73 54.1205C497.73 54.1232 497.73 54.126 497.73 54.1287C497.73 54.1315 497.73 54.1342 497.73 54.137C497.73 54.1398 497.73 54.1425 497.73 54.1453C497.73 54.148 497.73 54.1508 497.73 54.1535C497.73 54.1563 497.73 54.159 497.73 54.1618C497.73 54.1646 497.73 54.1673 497.73 54.1701C497.73 54.1728 497.73 54.1756 497.73 54.1783C497.73 54.1811 497.73 54.1838 497.73 54.1866C497.73 54.1894 497.73 54.1921 497.73 54.1949C497.73 54.1976 497.73 54.2004 497.73 54.2031C497.73 54.2059 497.73 54.2086 497.73 54.2114C497.73 54.2141 497.73 54.2169 497.73 54.2196C497.73 54.2224 497.73 54.2252 497.73 54.2279C497.73 54.2307 497.73 54.2334 497.73 54.2362C497.73 54.2389 497.73 54.2417 497.73 54.2444C497.73 54.2472 497.73 54.2499 497.73 54.2527C497.73 54.2554 497.73 54.2582 497.73 54.2609C497.73 54.2637 497.73 54.2664 497.73 54.2692C497.73 54.2719 497.73 54.2747 497.73 54.2774C497.73 54.2802 497.73 54.2829 497.73 54.2857C497.73 54.2884 497.73 54.2912 497.73 54.2939C497.73 54.2967 497.73 54.2994 497.73 54.3022C497.73 54.3049 497.73 54.3077 497.73 54.3104C497.73 54.3132 497.73 54.3159 497.73 54.3187C497.73 54.3214 497.73 54.3242 497.73 54.3269C497.73 54.3297 497.73 54.3324 497.73 54.3352C497.73 54.3379 497.73 54.3407 497.73 54.3434C497.73 54.3462 497.73 54.3489 497.73 54.3517C497.73 54.3544 497.73 54.3572 497.73 54.3599C497.73 54.3627 497.73 54.3654 497.73 54.3682C497.73 54.3709 497.73 54.3737 497.73 54.3764C497.73 54.3792 497.73 54.3819 497.73 54.3847C497.73 54.3874 497.73 54.3902 497.73 54.3929C497.73 54.3956 497.73 54.3984 497.73 54.4011C497.73 54.4039 497.73 54.4066 497.73 54.4094C497.73 54.4121 497.73 54.4149 497.73 54.4176C497.73 54.4204 497.73 54.4231 497.73 54.4259C497.73 54.4286 497.73 54.4313 497.73 54.4341C497.73 54.4368 497.73 54.4396 497.73 54.4423C497.73 54.4451 497.73 54.4478 497.73 54.4506C497.73 54.4533 497.73 54.4561 497.73 54.4588C497.73 54.4615 497.73 54.4643 497.73 54.467C497.73 54.4698 497.73 54.4725 497.73 54.4753C497.73 54.478 497.73 54.4807 497.73 54.4835C497.73 54.4862 497.73 54.489 497.73 54.4917C497.73 54.4945 497.73 54.4972 497.73 54.5C497.73 54.5027 497.73 54.5054 497.73 54.5082C497.73 54.5109 497.73 54.5137 497.73 54.5164C497.73 54.5191 497.73 54.5219 497.73 54.5246C497.73 54.5274 497.73 54.5301 497.73 54.5329C497.73 54.5356 497.73 54.5383 497.73 54.5411C497.73 54.5438 497.73 54.5466 497.73 54.5493C497.73 54.552 497.73 54.5548 497.73 54.5575C497.73 54.5603 497.73 54.563 497.73 54.5658C497.73 54.5685 497.73 54.5712 497.73 54.574C497.73 54.5767 497.73 54.5795 497.73 54.5822C497.73 54.5849 497.73 54.5877 497.73 54.5904C497.73 54.5932 497.73 54.5959 497.73 54.5986C497.73 54.6014 497.73 54.6041 497.73 54.6068C497.73 54.6096 497.73 54.6123 497.73 54.6151C497.73 54.6178 497.73 54.6205 497.73 54.6233C497.73 54.626 497.73 54.6288 497.73 54.6315C497.73 54.6342 497.73 54.637 497.73 54.6397C497.73 54.6424 497.73 54.6452 497.73 54.6479C497.73 54.6507 497.73 54.6534 497.73 54.6561C497.73 54.6589 497.73 54.6616 497.73 54.6643C497.73 54.6671 497.73 54.6698 497.73 54.6726C497.73 54.6753 497.73 54.678 497.73 54.6808C497.73 54.6835 497.73 54.6862 497.73 54.689C497.73 54.6917 497.73 54.6944 497.73 54.6972C497.73 54.6999 497.73 54.7026 497.73 54.7054C497.73 54.7081 497.73 54.7109 497.73 54.7136C497.73 54.7163 497.73 54.7191 497.73 54.7218C497.73 54.7245 497.73 54.7273 497.73 54.73C497.73 54.7327 497.73 54.7355 497.73 54.7382C497.73 54.7409 497.73 54.7437 497.73 54.7464C497.73 54.7491 497.73 54.7519 497.73 54.7546C497.73 54.7573 497.73 54.7601 497.73 54.7628C497.73 54.7655 497.73 54.7683 497.73 54.771C497.73 54.7737 497.73 54.7765 497.73 54.7792C497.73 54.7819 497.73 54.7847 497.73 54.7874C497.73 54.7901 497.73 54.7929 497.73 54.7956C497.73 54.7983 497.73 54.8011 497.73 54.8038C497.73 54.8065 497.73 54.8093 497.73 54.812C497.73 54.8147 497.73 54.8174 497.73 54.8202C497.73 54.8229 497.73 54.8256 497.73 54.8284C497.73 54.8311 497.73 54.8338 497.73 54.8366C497.73 54.8393 497.73 54.842 497.73 54.8448C497.73 54.8475 497.73 54.8502 497.73 54.8529C497.73 54.8557 497.73 54.8584 497.73 54.8611C497.73 54.8639 497.73 54.8666 497.73 54.8693C497.73 54.872 497.73 54.8748 497.73 54.8775C497.73 54.8802 497.73 54.883 497.73 54.8857C497.73 54.8884 497.73 54.8911 497.73 54.8939C497.73 54.8966 497.73 54.8993 497.73 54.9021C497.73 54.9048 497.73 54.9075 497.73 54.9102C497.73 54.913 497.73 54.9157 497.73 54.9184C497.73 54.9212 497.73 54.9239 497.73 54.9266C497.73 54.9293 497.73 54.9321 497.73 54.9348C497.73 54.9375 497.73 54.9402 497.73 54.943C497.73 54.9457 497.73 54.9484 497.73 54.9511C497.73 54.9539 497.73 54.9566 497.73 54.9593C497.73 54.9621 497.73 54.9648 497.73 54.9675C497.73 54.9702 497.73 54.973 497.73 54.9757C497.73 54.9784 497.73 54.9811 497.73 54.9839C497.73 54.9866 497.73 54.9893 497.73 54.992C497.73 54.9948 497.73 54.9975 497.73 55.0002C497.73 55.0029 497.73 55.0057 497.73 55.0084C497.73 55.0111 497.73 55.0138 497.73 55.0165C497.73 55.0193 497.73 55.022 497.73 55.0247C497.73 55.0274 497.73 55.0302 497.73 55.0329C497.73 55.0356 497.73 55.0383 497.73 55.0411C497.73 55.0438 497.73 55.0465 497.73 55.0492C497.73 55.0519 497.73 55.0547 497.73 55.0574C497.73 55.0601 497.73 55.0628 497.73 55.0656C497.73 55.0683 497.73 55.071 497.73 55.0737C497.73 55.0764 497.73 55.0792 497.73 55.0819C497.73 55.0846 497.73 55.0873 497.73 55.09C497.73 55.0928 497.73 55.0955 497.73 55.0982C497.73 55.1009 497.73 55.1037 497.73 55.1064C497.73 55.1091 497.73 55.1118 497.73 55.1145C497.73 55.1173 497.73 55.12 497.73 55.1227C497.73 55.1254 497.73 55.1281 497.73 55.1309C497.73 55.1336 497.73 55.1363 497.73 55.139C497.73 55.1417 497.73 55.1444 497.73 55.1472C497.73 55.1499 497.73 55.1526 497.73 55.1553C497.73 55.158 497.73 55.1608 497.73 55.1635C497.73 55.1662 497.73 55.1689 497.73 55.1716C497.73 55.1743 497.73 55.1771 497.73 55.1798C497.73 55.1825 497.73 55.1852 497.73 55.1879C497.73 55.1907 497.73 55.1934 497.73 55.1961C497.73 55.1988 497.73 55.2015 497.73 55.2042C497.73 55.207 497.73 55.2097 497.73 55.2124C497.73 55.2151 497.73 55.2178 497.73 55.2205C497.73 55.2233 497.73 55.226 497.73 55.2287C497.73 55.2314 497.73 55.2341 497.73 55.2368C497.73 55.2395 497.73 55.2423 497.73 55.245C497.73 55.2477 497.73 55.2504 497.73 55.2531C497.73 55.2558 497.73 55.2586 497.73 55.2613C497.73 55.264 497.73 55.2667 497.73 55.2694C497.73 55.2721 497.73 55.2748 497.73 55.2776C497.73 55.2803 497.73 55.283 497.73 55.2857C497.73 55.2884 497.73 55.2911 497.73 55.2938C497.73 55.2965 497.73 55.2993 497.73 55.302C497.73 55.3047 497.73 55.3074 497.73 55.3101C497.73 55.3128 497.73 55.3155 497.73 55.3182C497.73 55.321 497.73 55.3237 497.73 55.3264C497.73 55.3291 497.73 55.3318 497.73 55.3345C497.73 55.3372 497.73 55.3399 497.73 55.3427C497.73 55.3454 497.73 55.3481 497.73 55.3508C497.73 55.3535 497.73 55.3562 497.73 55.3589C497.73 55.3616 497.73 55.3643 497.73 55.3671C497.73 55.3698 497.73 55.3725 497.73 55.3752C497.73 55.3779 497.73 55.3806 497.73 55.3833C497.73 55.386 497.73 55.3887 497.73 55.3914C497.73 55.3942 497.73 55.3969 497.73 55.3996C497.73 55.4023 497.73 55.405 497.73 55.4077C497.73 55.4104 497.73 55.4131 497.73 55.4158C497.73 55.4185 497.73 55.4212 497.73 55.424C497.73 55.4267 497.73 55.4294 497.73 55.4321C497.73 55.4348 497.73 55.4375 497.73 55.4402C497.73 55.4429 497.73 55.4456 497.73 55.4483C497.73 55.451 497.73 55.4537 497.73 55.4565C497.73 55.4592 497.73 55.4619 497.73 55.4646C497.73 55.4673 497.73 55.47 497.73 55.4727C497.73 55.4754 497.73 55.4781 497.73 55.4808C497.73 55.4835 497.73 55.4862 497.73 55.4889C497.73 55.4916 497.73 55.4943 497.73 55.497C497.73 55.4998 497.73 55.5025 497.73 55.5052C497.73 55.5079 497.73 55.5106 497.73 55.5133C497.73 55.516 497.73 55.5187 497.73 55.5214C497.73 55.5241 497.73 55.5268 497.73 55.5295C497.73 55.5322 497.73 55.5349 497.73 55.5376C497.73 55.5403 497.73 55.543 497.73 55.5457C497.73 55.5484 497.73 55.5511 497.73 55.5538C497.73 55.5565 497.73 55.5593 497.73 55.562C497.73 55.5647 497.73 55.5674 497.73 55.5701C497.73 55.5728 497.73 55.5755 497.73 55.5782C497.73 55.5809 497.73 55.5836 497.73 55.5863C497.73 55.589 497.73 55.5917 497.73 55.5944C497.73 55.5971 497.73 55.5998 497.73 55.6025C497.73 55.6052 497.73 55.6079 497.73 55.6106C497.73 55.6133 497.73 55.616 497.73 55.6187C497.73 55.6214 497.73 55.6241 497.73 55.6268C497.73 55.6295 497.73 55.6322 497.73 55.6349C497.73 55.6376 497.73 55.6403 497.73 55.643C497.73 55.6457 497.73 55.6484 497.73 55.6511C497.73 55.6538 497.73 55.6565 497.73 55.6592C497.73 55.6619 497.73 55.6646 497.73 55.6673C497.73 55.67 497.73 55.6727 497.73 55.6754C497.73 55.6781 497.73 55.6808 497.73 55.6835C497.73 55.6862 497.73 55.6889 497.73 55.6916C497.73 55.6943 497.73 55.697 497.73 55.6997C497.73 55.7024 497.73 55.7051 497.73 55.7078C497.73 55.7105 497.73 55.7132 497.73 55.7159C497.73 55.7186 497.73 55.7213 497.73 55.724C497.73 55.7267 497.73 55.7294 497.73 55.7321C497.73 55.7348 497.73 55.7375 497.73 55.7401C497.73 55.7428 497.73 55.7455 497.73 55.7482C497.73 55.7509 497.73 55.7536 497.73 55.7563C497.73 55.759 497.73 55.7617 497.73 55.7644C497.73 55.7671 497.73 55.7698 497.73 55.7725C497.73 55.7752 497.73 55.7779 497.73 55.7806C497.73 55.7833 497.73 55.786 497.73 55.7887C497.73 55.7914 497.73 55.7941 497.73 55.7968C497.73 55.7994 497.73 55.8021 497.73 55.8048C497.73 55.8075 497.73 55.8102 497.73 55.8129C497.73 55.8156 497.73 55.8183 497.73 55.821C497.73 55.8237 497.73 55.8264 497.73 55.8291C497.73 55.8318 497.73 55.8345 497.73 55.8372C497.73 55.8398 497.73 55.8425 497.73 55.8452C497.73 55.8479 497.73 55.8506 497.73 55.8533C497.73 55.856 497.73 55.8587 497.73 55.8614C497.73 55.8641 497.73 55.8668 497.73 55.8695C497.73 55.8722 497.73 55.8748 497.73 55.8775C497.73 55.8802 497.73 55.8829 497.73 55.8856C497.73 55.8883 497.73 55.891 497.73 55.8937C497.73 55.8964 497.73 55.8991 497.73 55.9018C497.73 55.9044 497.73 55.9071 497.73 55.9098C497.73 55.9125 497.73 55.9152 497.73 55.9179C497.73 55.9206 497.73 55.9233 497.73 55.926C497.73 55.9287 497.73 55.9313 497.73 55.934C497.73 55.9367 497.73 55.9394 497.73 55.9421C497.73 55.9448 497.73 55.9475 497.73 55.9502C497.73 55.9529 497.73 55.9555 497.73 55.9582C497.73 55.9609 497.73 55.9636 497.73 55.9663C497.73 55.969 497.73 55.9717 497.73 55.9744C497.73 55.977 497.73 55.9797 497.73 55.9824C497.73 55.9851 497.73 55.9878 497.73 55.9905C497.73 55.9932 497.73 55.9959 497.73 55.9985C497.73 56.0012 497.73 56.0039 497.73 56.0066C497.73 56.0093 497.73 56.012 497.73 56.0147C497.73 56.0174 497.73 56.02 497.73 56.0227C497.73 56.0254 497.73 56.0281 497.73 56.0308C497.73 56.0335 497.73 56.0362 497.73 56.0388C497.73 56.0415 497.73 56.0442 497.73 56.0469C497.73 56.0496 497.73 56.0523 497.73 56.0549C497.73 56.0576 497.73 56.0603 497.73 56.063C497.73 56.0657 497.73 56.0684 497.73 56.0711C497.73 56.0737 497.73 56.0764 497.73 56.0791C497.73 56.0818 497.73 56.0845 497.73 56.0872C497.73 56.0898 497.73 56.0925 497.73 56.0952C497.73 56.0979 497.73 56.1006 497.73 56.1033C497.73 56.1059 497.73 56.1086 497.73 56.1113C497.73 56.114 497.73 56.1167 497.73 56.1193C497.73 56.122 497.73 56.1247 497.73 56.1274C497.73 56.1301 497.73 56.1328 497.73 56.1354C497.73 56.1381 497.73 56.1408 497.73 56.1435C497.73 56.1462 497.73 56.1488 497.73 56.1515C497.73 56.1542 497.73 56.1569 497.73 56.1596C497.73 56.1622 497.73 56.1649 497.73 56.1676C497.73 56.1703 497.73 56.173 497.73 56.1757C497.73 56.1783 497.73 56.181 497.73 56.1837C497.73 56.1864 497.73 56.189 497.73 56.1917C497.73 56.1944 497.73 56.1971 497.73 56.1998C497.73 56.2024 497.73 56.2051 497.73 56.2078C497.73 56.2105 497.73 56.2132 497.73 56.2158C497.73 56.2185 497.73 56.2212 497.73 56.2239C497.73 56.2266 497.73 56.2292 497.73 56.2319C497.73 56.2346 497.73 56.2373 497.73 56.2399C497.73 56.2426 497.73 56.2453 497.73 56.248C497.73 56.2507 497.73 56.2533 497.73 56.256C497.73 56.2587 497.73 56.2614 497.73 56.264C497.73 56.2667 497.73 56.2694 497.73 56.2721C497.73 56.2747 497.73 56.2774 497.73 56.2801C497.73 56.2828 497.73 56.2854 497.73 56.2881C497.73 56.2908 497.73 56.2935 497.73 56.2962C497.73 56.2988 497.73 56.3015 497.73 56.3042C497.73 56.3069 497.73 56.3095 497.73 56.3122C497.73 56.3149 497.73 56.3176 497.73 56.3202C497.73 56.3229 497.73 56.3256 497.73 56.3282C497.73 56.3309 497.73 56.3336 497.73 56.3363C497.73 56.3389 497.73 56.3416 497.73 56.3443C497.73 56.347 497.73 56.3496 497.73 56.3523C497.73 56.355 497.73 56.3577 497.73 56.3603C497.73 56.363 497.73 56.3657 497.73 56.3684C497.73 56.371 497.73 56.3737 497.73 56.3764C497.73 56.379 497.73 56.3817 497.73 56.3844C497.73 56.3871 497.73 56.3897 497.73 56.3924C497.73 56.3951 497.73 56.3977 497.73 56.4004C497.73 56.4031 497.73 56.4058 497.73 56.4084C497.73 56.4111 497.73 56.4138 497.73 56.4164C497.73 56.4191 497.73 56.4218 497.73 56.4245C497.73 56.4271 497.73 56.4298 497.73 56.4325C497.73 56.4351 497.73 56.4378 497.73 56.4405C497.73 56.4431 497.73 56.4458 497.73 56.4485C497.73 56.4512 497.73 56.4538 497.73 56.4565C497.73 56.4592 497.73 56.4618 497.73 56.4645C497.73 56.4672 497.73 56.4698 497.73 56.4725C497.73 56.4752 497.73 56.4778 497.73 56.4805C497.73 56.4832 497.73 56.4859 497.73 56.4885C497.73 56.4912 497.73 56.4939 497.73 56.4965C497.73 56.4992 497.73 56.5019 497.73 56.5045C497.73 56.5072 497.73 56.5099 497.73 56.5125C497.73 56.5152 497.73 56.5179 497.73 56.5205C497.73 56.5232 497.73 56.5259 497.73 56.5285C497.73 56.5312 497.73 56.5339 497.73 56.5365C497.73 56.5392 497.73 56.5419 497.73 56.5445C497.73 56.5472 497.73 56.5499 497.73 56.5525C497.73 56.5552 497.73 56.5579 497.73 56.5605C497.73 56.5632 497.73 56.5659 497.73 56.5685C497.73 56.5712 497.73 56.5739 497.73 56.5765C497.73 56.5792 497.73 56.5818 497.73 56.5845C497.73 56.5872 497.73 56.5898 497.73 56.5925C497.73 56.5952 497.73 56.5978 497.73 56.6005C497.73 56.6032 497.73 56.6058 497.73 56.6085C497.73 56.6111 497.73 56.6138 497.73 56.6165C497.73 56.6191 497.73 56.6218 497.73 56.6245C497.73 56.6271 497.73 56.6298 497.73 56.6325C497.73 56.6351 497.73 56.6378 497.73 56.6404C497.73 56.6431 497.73 56.6458 497.73 56.6484C497.73 56.6511 497.73 56.6538 497.73 56.6564C497.73 56.6591 497.73 56.6617 497.73 56.6644C497.73 56.6671 497.73 56.6697 497.73 56.6724C497.73 56.675 497.73 56.6777 497.73 56.6804C497.73 56.683 497.73 56.6857 497.73 56.6883C497.73 56.691 497.73 56.6937 497.73 56.6963C497.73 56.699 497.73 56.7016 497.73 56.7043C497.73 56.707 497.73 56.7096 497.73 56.7123C497.73 56.7149 497.73 56.7176 497.73 56.7203C497.73 56.7229 497.73 56.7256 497.73 56.7282C497.73 56.7309 497.73 56.7336 497.73 56.7362C497.73 56.7389 497.73 56.7415 497.73 56.7442C497.73 56.7469 497.73 56.7495 497.73 56.7522C497.73 56.7548 497.73 56.7575 497.73 56.7601C497.73 56.7628 497.73 56.7655 497.73 56.7681C497.73 56.7708 497.73 56.7734 497.73 56.7761C497.73 56.7787 497.73 56.7814 497.73 56.7841C497.73 56.7867 497.73 56.7894 497.73 56.792C497.73 56.7947 497.73 56.7973 497.73 56.8H499.73ZM499.73 52.6C499.73 51.0271 499.605 49.455 499.357 47.884L497.382 48.196C497.614 49.665 497.73 51.1329 497.73 52.6H499.73ZM497.728 48.8069L503.608 53.7269L504.891 52.1931L499.011 47.2731L497.728 48.8069ZM503.35 52.5225C501.965 55.3695 500.166 57.7379 497.957 59.6426L499.263 61.1574C501.693 59.0621 503.654 56.4705 505.149 53.3975L503.35 52.5225ZM497.957 59.6426C495.743 61.5514 493.139 63.0095 490.133 64.0113L490.766 65.9087C494 64.8305 496.837 63.2486 499.263 61.1574L497.957 59.6426ZM490.133 64.0113C487.135 65.0109 483.685 65.52 479.77 65.52V67.52C483.855 67.52 487.525 66.9891 490.766 65.9087L490.133 64.0113ZM479.77 65.52C474.63 65.52 469.943 64.4699 465.69 62.3823L464.809 64.1777C469.357 66.4101 474.349 67.52 479.77 67.52V65.52ZM465.71 62.3922C461.534 60.2269 458.183 57.2583 455.639 53.4814L453.98 54.5986C456.717 58.6617 460.325 61.853 464.789 64.1678L465.71 62.3922ZM455.644 53.4892C453.125 49.6716 451.85 45.1882 451.85 40H449.85C449.85 45.5318 451.215 50.4084 453.975 54.5908L455.644 53.4892ZM451.85 40C451.85 34.3372 453.282 29.5033 456.11 25.4524L454.47 24.3076C451.378 28.7367 449.85 33.9828 449.85 40H451.85ZM456.115 25.4452C458.969 21.2794 462.787 18.0737 467.593 15.8258L466.746 14.0142C461.632 16.4062 457.53 19.8406 454.465 24.3148L456.115 25.4452ZM467.605 15.8202C472.416 13.4924 477.785 12.32 483.73 12.32V10.32C477.515 10.32 471.843 11.5476 466.734 14.0198L467.605 15.8202ZM485.29 27.24C482.917 27.24 480.793 27.7067 478.946 28.6742L479.874 30.4458C481.387 29.6533 483.182 29.24 485.29 29.24V27.24ZM478.946 28.6742C477.113 29.6343 475.624 30.9921 474.491 32.735L476.168 33.825C477.115 32.3679 478.347 31.2457 479.874 30.4458L478.946 28.6742ZM474.484 32.746C473.401 34.461 472.89 36.5373 472.89 38.92H474.89C474.89 36.8226 475.338 35.139 476.175 33.814L474.484 32.746ZM472.89 38.92C472.89 42.3589 474.019 45.1998 476.331 47.3348L477.688 45.8652C475.841 44.1602 474.89 41.8811 474.89 38.92H472.89ZM476.345 47.3474C478.722 49.46 481.774 50.48 485.41 50.48V48.48C482.165 48.48 479.617 47.5799 477.674 45.8526L476.345 47.3474ZM485.41 50.48C487.857 50.48 490.055 50.0152 491.977 49.0544L491.082 47.2656C489.484 48.0648 487.602 48.48 485.41 48.48V50.48ZM491.977 49.0544C493.897 48.0942 495.404 46.7267 496.467 44.9545L494.752 43.9255C493.895 45.3533 492.682 46.4658 491.082 47.2656L491.977 49.0544ZM496.467 44.9545C497.534 43.176 498.05 41.1122 498.05 38.8H496.05C496.05 40.8078 495.605 42.504 494.752 43.9255L496.467 44.9545ZM498.05 38.8C498.05 36.5613 497.531 34.5696 496.455 32.866L494.764 33.934C495.608 35.2704 496.05 36.8787 496.05 38.8H498.05ZM496.467 32.8855C495.404 31.1133 493.897 29.7458 491.977 28.7856L491.082 30.5744C492.682 31.3742 493.895 32.4867 494.752 33.9145L496.467 32.8855ZM492.009 28.8021C490.075 27.7476 487.824 27.24 485.29 27.24V29.24C487.555 29.24 489.464 29.6924 491.051 30.5579L492.009 28.8021Z" fill="black" fill-opacity="0.08"/>
</svg>
