<svg width="557" height="88" viewBox="0 0 557 88" fill="none" xmlns="http://www.w3.org/2000/svg">
<path d="M22.24 34.52V33.52H21.24V34.52H22.24ZM61.24 34.52H62.24V33.52H61.24V34.52ZM61.24 52.28V53.28H62.24V52.28H61.24ZM22.24 52.28H21.24V53.28H22.24V52.28ZM23.92 67.64H22.92V68.64H23.92V67.64ZM67.84 67.64H68.84V66.64H67.84V67.64ZM67.84 86V87H68.84V86H67.84ZM0.4 86H-0.6V87H0.4V86ZM0.4 1.99999V0.999994H-0.6V1.99999H0.4ZM66.28 1.99999H67.28V0.999994H66.28V1.99999ZM66.28 20.36V21.36H67.28V20.36H66.28ZM23.92 20.36V19.36H22.92V20.36H23.92ZM22.24 35.52H61.24V33.52H22.24V35.52ZM60.24 34.52V52.28H62.24V34.52H60.24ZM61.24 51.28H22.24V53.28H61.24V51.28ZM23.24 52.28V34.52H21.24V52.28H23.24ZM23.92 68.64H67.84V66.64H23.92V68.64ZM66.84 67.64V86H68.84V67.64H66.84ZM67.84 85H0.4V87H67.84V85ZM1.4 86V1.99999H-0.6V86H1.4ZM0.4 2.99999H66.28V0.999994H0.4V2.99999ZM65.28 1.99999V20.36H67.28V1.99999H65.28ZM66.28 19.36H23.92V21.36H66.28V19.36ZM22.92 20.36V67.64H24.92V20.36H22.92ZM104.425 84.56L104.065 85.493L104.073 85.4961L104.081 85.499L104.425 84.56ZM89.785 75.44L89.0921 76.1611L89.0992 76.1678L89.785 75.44ZM80.185 61.64L79.2673 62.0372L79.2695 62.0423L80.185 61.64ZM80.185 26.48L81.1005 26.8823L81.1027 26.8772L80.185 26.48ZM89.785 12.56L89.0992 11.8322L89.0922 11.8389L89.785 12.56ZM104.425 3.56L104.773 4.49745L104.78 4.49469L104.425 3.56ZM143.665 4.4L143.257 5.31283L143.261 5.31479L143.665 4.4ZM159.025 16.16L159.696 16.9015L160.392 16.2714L159.807 15.5368L159.025 16.16ZM143.905 29.84L143.143 30.4876L143.811 31.2735L144.576 30.5815L143.905 29.84ZM134.905 22.52L134.44 23.4054L134.449 23.41L134.905 22.52ZM114.625 21.68L114.987 22.612L114.987 22.612L114.625 21.68ZM107.185 26.6L106.465 25.9064L106.464 25.9069L107.185 26.6ZM102.385 34.16L101.458 33.7843L101.454 33.7952L101.45 33.8061L102.385 34.16ZM102.385 53.84L101.45 54.1939L101.454 54.2048L101.458 54.2157L102.385 53.84ZM107.185 61.52L106.451 62.1994L106.464 62.2135L106.478 62.2271L107.185 61.52ZM114.625 66.32L114.987 65.388L114.987 65.388L114.625 66.32ZM134.905 65.48L134.449 64.5899L134.44 64.5946L134.905 65.48ZM143.905 58.16L144.576 57.4185L143.811 56.7265L143.143 57.5124L143.905 58.16ZM159.025 71.84L159.802 72.4692L160.398 71.7335L159.696 71.0985L159.025 71.84ZM143.665 83.6L144.073 84.5128L144.079 84.5104L143.665 83.6ZM122.905 86.68C116.371 86.68 110.328 85.6569 104.769 83.621L104.081 85.499C109.882 87.6231 116.159 88.68 122.905 88.68V86.68ZM104.785 83.627C99.2996 81.5113 94.5318 78.5389 90.4708 74.7122L89.0992 76.1678C93.3582 80.1811 98.3504 83.2887 104.065 85.493L104.785 83.627ZM90.4778 74.7189C86.4941 70.8914 83.3689 66.4003 81.1005 61.2377L79.2695 62.0423C81.6411 67.4397 84.9159 72.1486 89.0922 76.1611L90.4778 74.7189ZM81.1027 61.2428C78.842 56.0197 77.705 50.2765 77.705 44H75.705C75.705 50.5235 76.888 56.5403 79.2673 62.0372L81.1027 61.2428ZM77.705 44C77.705 37.7232 78.8421 32.0222 81.1005 26.8823L79.2695 26.0777C76.8879 31.4978 75.705 37.4768 75.705 44H77.705ZM81.1027 26.8772C83.3717 21.635 86.4967 17.1062 90.4778 13.2811L89.0922 11.8389C84.9134 15.8538 81.6383 20.605 79.2673 26.0828L81.1027 26.8772ZM90.4708 13.2878C94.529 9.46367 99.2929 6.53298 104.773 4.49742L104.077 2.62257C98.3572 4.74702 93.361 7.81632 89.0992 11.8322L90.4708 13.2878ZM104.78 4.49469C110.337 2.3817 116.375 1.31999 122.905 1.31999V-0.680006C116.155 -0.680006 109.873 0.418291 104.07 2.6253L104.78 4.49469ZM122.905 1.31999C130.547 1.31999 137.325 2.659 143.257 5.31282L144.073 3.48718C137.845 0.70099 130.783 -0.680006 122.905 -0.680006V1.31999ZM143.261 5.31479C149.278 7.97148 154.267 11.7932 158.243 16.7832L159.807 15.5368C155.623 10.2868 150.372 6.26851 144.069 3.48521L143.261 5.31479ZM158.354 15.4185L143.234 29.0985L144.576 30.5815L159.696 16.9015L158.354 15.4185ZM144.667 29.1923C141.874 25.9061 138.773 23.3776 135.361 21.63L134.449 23.41C137.597 25.0223 140.496 27.3739 143.143 30.4876L144.667 29.1923ZM135.37 21.6346C132.012 19.8716 128.249 19 124.105 19V21C127.961 21 131.398 21.8084 134.44 23.4054L135.37 21.6346ZM124.105 19C120.555 19 117.27 19.5782 114.263 20.748L114.987 22.612C117.74 21.5418 120.775 21 124.105 21V19ZM114.263 20.748C111.252 21.9189 108.648 23.6387 106.465 25.9064L107.905 27.2936C109.882 25.2413 112.238 23.6811 114.987 22.612L114.263 20.748ZM106.464 25.9069C104.367 28.0879 102.701 30.719 101.458 33.7843L103.312 34.5357C104.469 31.681 106.003 29.272 107.906 27.2931L106.464 25.9069ZM101.45 33.8061C100.281 36.8936 99.705 40.2955 99.705 44H101.705C101.705 40.5044 102.249 37.3464 103.32 34.5139L101.45 33.8061ZM99.705 44C99.705 47.7044 100.281 51.1064 101.45 54.1939L103.32 53.4861C102.249 50.6536 101.705 47.4955 101.705 44H99.705ZM101.458 54.2157C102.7 57.2782 104.362 59.9434 106.451 62.1994L107.919 60.8406C106.008 58.7766 104.47 56.3218 103.312 53.4643L101.458 54.2157ZM106.478 62.2271C108.661 64.4101 111.26 66.0843 114.263 67.252L114.987 65.388C112.23 64.3157 109.869 62.7899 107.892 60.8129L106.478 62.2271ZM114.263 67.252C117.27 68.4218 120.555 69 124.105 69V67C120.775 67 117.74 66.4582 114.987 65.388L114.263 67.252ZM124.105 69C128.249 69 132.012 68.1284 135.37 66.3654L134.44 64.5946C131.398 66.1916 127.961 67 124.105 67V69ZM135.361 66.37C138.773 64.6224 141.874 62.0939 144.667 58.8076L143.143 57.5124C140.496 60.6261 137.597 62.9776 134.449 64.59L135.361 66.37ZM143.234 58.9015L158.354 72.5815L159.696 71.0985L144.576 57.4185L143.234 58.9015ZM158.248 71.2108C154.27 76.1248 149.276 79.951 143.251 82.6896L144.079 84.5104C150.374 81.649 155.62 77.6352 159.802 72.4692L158.248 71.2108ZM143.257 82.6872C137.325 85.341 130.547 86.68 122.905 86.68V88.68C130.783 88.68 137.845 87.299 144.073 84.5128L143.257 82.6872ZM169.619 86H168.619V87H169.619V86ZM169.619 1.99999V0.999994H168.619V1.99999H169.619ZM193.379 1.99999H194.379V0.999994H193.379V1.99999ZM193.379 67.16H192.379V68.16H193.379V67.16ZM233.459 67.16H234.459V66.16H233.459V67.16ZM233.459 86V87H234.459V86H233.459ZM170.619 86V1.99999H168.619V86H170.619ZM169.619 2.99999H193.379V0.999994H169.619V2.99999ZM192.379 1.99999V67.16H194.379V1.99999H192.379ZM193.379 68.16H233.459V66.16H193.379V68.16ZM232.459 67.16V86H234.459V67.16H232.459ZM233.459 85H169.619V87H233.459V85ZM255.227 84.44L254.858 85.3694L254.858 85.3694L255.227 84.44ZM242.387 75.32L241.59 75.9251L241.597 75.934L241.604 75.9427L242.387 75.32ZM242.387 47.84L241.617 47.2014L241.616 47.2031L242.387 47.84ZM255.227 39.32L255.559 40.263L255.567 40.2602L255.227 39.32ZM293.267 39.32L292.921 40.2586L292.93 40.2616L292.938 40.2645L293.267 39.32ZM306.107 47.84L305.329 48.4687L305.336 48.4778L305.344 48.4867L306.107 47.84ZM306.227 75.32L307.017 75.9329L307.023 75.9251L306.227 75.32ZM293.387 84.44L293.022 83.5087L293.018 83.5106L293.387 84.44ZM283.427 68.24L282.805 67.4565L282.798 67.4618L282.792 67.4673L283.427 68.24ZM283.427 53L282.776 53.7593L282.79 53.7717L282.805 53.7835L283.427 53ZM265.067 53L265.701 53.7727L265.704 53.7704L265.067 53ZM265.067 68.24L264.432 69.0127L264.438 69.0182L264.445 69.0235L265.067 68.24ZM256.907 45.32L256.559 46.2576L256.564 46.2594L256.907 45.32ZM245.147 37.4L244.373 38.0333L244.38 38.0419L245.147 37.4ZM245.027 11.84L244.246 11.2152L244.237 11.2261L245.027 11.84ZM256.907 3.44L257.275 4.36957L257.288 4.36437L256.907 3.44ZM291.707 3.44L291.32 4.36219L291.329 4.36593L291.338 4.36949L291.707 3.44ZM303.467 11.84L302.677 12.454L302.686 12.4647L303.467 11.84ZM303.467 37.4L302.693 36.7668L302.691 36.7687L303.467 37.4ZM291.707 45.32L291.364 44.3806L291.707 45.32ZM281.627 32.36L282.263 33.131L282.273 33.1229L282.283 33.1146L281.627 32.36ZM281.507 19.28L280.87 20.051L280.878 20.0576L280.886 20.064L281.507 19.28ZM267.107 19.28L266.47 18.509L266.47 18.509L267.107 19.28ZM267.107 32.36L266.45 33.1146L266.46 33.1229L266.47 33.131L267.107 32.36ZM274.307 86.68C267.123 86.68 260.893 85.6141 255.596 83.5106L254.858 85.3694C260.44 87.5859 266.93 88.68 274.307 88.68V86.68ZM255.596 83.5106C250.29 81.4041 246.163 78.4593 243.169 74.6973L241.604 75.9427C244.85 80.0207 249.283 83.1559 254.858 85.3694L255.596 83.5106ZM243.183 74.7149C240.284 70.9009 238.827 66.437 238.827 61.28H236.827C236.827 66.843 238.409 71.7391 241.59 75.9251L243.183 74.7149ZM238.827 61.28C238.827 56.2061 240.282 51.9584 243.158 48.4769L241.616 47.2031C238.412 51.0816 236.827 55.7939 236.827 61.28H238.827ZM243.156 48.4786C246.141 44.881 250.259 42.1338 255.559 40.263L254.894 38.377C249.314 40.3462 244.872 43.279 241.617 47.2014L243.156 48.4786ZM255.567 40.2602C260.956 38.3076 267.197 37.32 274.307 37.32V35.32C267.016 35.32 260.537 36.3324 254.886 38.3798L255.567 40.2602ZM274.307 37.32C281.416 37.32 287.615 38.3077 292.921 40.2586L293.612 38.3814C288.038 36.3323 281.597 35.32 274.307 35.32V37.32ZM292.938 40.2645C298.319 42.1361 302.429 44.8815 305.329 48.4687L306.884 47.2113C303.704 43.2785 299.254 40.3439 293.595 38.3755L292.938 40.2645ZM305.344 48.4867C308.296 51.9685 309.787 56.2128 309.787 61.28H311.787C311.787 55.7872 310.157 51.0715 306.869 47.1933L305.344 48.4867ZM309.787 61.28C309.787 66.437 308.329 70.9009 305.43 74.7149L307.023 75.9251C310.204 71.7391 311.787 66.843 311.787 61.28H309.787ZM305.436 74.7072C302.527 78.459 298.407 81.4016 293.022 83.5088L293.751 85.3712C299.406 83.1584 303.846 80.021 307.017 75.9328L305.436 74.7072ZM293.018 83.5106C287.72 85.6141 281.49 86.68 274.307 86.68V88.68C281.683 88.68 288.173 87.5859 293.756 85.3694L293.018 83.5106ZM274.307 72C278.302 72 281.592 71.0414 284.061 69.0127L282.792 67.4673C280.782 69.1186 277.991 70 274.307 70V72ZM284.048 69.0235C286.635 66.9717 287.907 64.1078 287.907 60.56H285.907C285.907 63.5722 284.858 65.8283 282.805 67.4565L284.048 69.0235ZM287.907 60.56C287.907 57.083 286.628 54.2631 284.048 52.2165L282.805 53.7835C284.865 55.4169 285.907 57.637 285.907 60.56H287.907ZM284.077 52.2407C281.607 50.1235 278.312 49.12 274.307 49.12V51.12C277.981 51.12 280.766 52.0365 282.776 53.7593L284.077 52.2407ZM274.307 49.12C270.299 49.12 266.973 50.1243 264.429 52.2296L265.704 53.7704C267.8 52.0357 270.634 51.12 274.307 51.12V49.12ZM264.432 52.2273C261.935 54.2785 260.707 57.096 260.707 60.56H262.707C262.707 57.624 263.718 55.4015 265.701 53.7727L264.432 52.2273ZM260.707 60.56C260.707 64.0949 261.928 66.9563 264.432 69.0127L265.701 67.4673C263.725 65.8437 262.707 63.5851 262.707 60.56H260.707ZM264.445 69.0235C266.988 71.0406 270.309 72 274.307 72V70C270.625 70 267.785 69.1194 265.688 67.4565L264.445 69.0235ZM274.307 47.08C267.838 47.08 262.158 46.1727 257.25 44.3806L256.564 46.2594C261.735 48.1473 267.655 49.08 274.307 49.08V47.08ZM257.254 44.3824C252.428 42.592 248.663 40.0427 245.913 36.7581L244.38 38.0419C247.39 41.6373 251.465 44.368 256.559 46.2576L257.254 44.3824ZM245.921 36.7668C243.198 33.4389 241.827 29.4673 241.827 24.8H239.827C239.827 29.8927 241.335 34.321 244.373 38.0332L245.921 36.7668ZM241.827 24.8C241.827 19.9576 243.167 15.8598 245.816 12.4539L244.237 11.2261C241.286 15.0202 239.827 19.5624 239.827 24.8H241.827ZM245.807 12.4647C248.561 9.02253 252.368 6.31676 257.275 4.36949L256.538 2.51051C251.365 4.56323 247.252 7.45746 244.246 11.2153L245.807 12.4647ZM257.288 4.36437C262.185 2.34334 267.851 1.31999 274.307 1.31999V-0.680006C267.642 -0.680006 261.708 0.376649 256.525 2.51562L257.288 4.36437ZM274.307 1.31999C280.844 1.31999 286.507 2.34407 291.32 4.36219L292.093 2.5178C286.986 0.375923 281.049 -0.680006 274.307 -0.680006V1.31999ZM291.338 4.36949C296.243 6.31619 300.006 9.01928 302.677 12.4539L304.256 11.2261C301.327 7.46071 297.25 4.5638 292.075 2.51051L291.338 4.36949ZM302.686 12.4647C305.41 15.8705 306.787 19.9645 306.787 24.8H308.787C308.787 19.5555 307.283 15.0095 304.247 11.2153L302.686 12.4647ZM306.787 24.8C306.787 29.4673 305.415 33.4389 302.693 36.7668L304.241 38.0332C307.278 34.321 308.787 29.8927 308.787 24.8H306.787ZM302.691 36.7687C300.027 40.0422 296.27 42.5895 291.364 44.3806L292.05 46.2594C297.223 44.3705 301.307 41.6378 304.242 38.0313L302.691 36.7687ZM291.364 44.3806C286.455 46.1727 280.775 47.08 274.307 47.08V49.08C280.958 49.08 286.878 48.1473 292.05 46.2594L291.364 44.3806ZM274.307 35.64C277.514 35.64 280.2 34.8357 282.263 33.131L280.99 31.589C279.373 32.9243 277.179 33.64 274.307 33.64V35.64ZM282.283 33.1146C284.368 31.3014 285.387 28.852 285.387 25.88H283.387C283.387 28.348 282.565 30.2186 280.97 31.6054L282.283 33.1146ZM285.387 25.88C285.387 22.7547 284.33 20.2401 282.127 18.4959L280.886 20.064C282.523 21.3599 283.387 23.2453 283.387 25.88H285.387ZM282.143 18.509C280.084 16.8081 277.441 16 274.307 16V18C277.092 18 279.249 18.7119 280.87 20.051L282.143 18.509ZM274.307 16C271.172 16 268.529 16.8081 266.47 18.509L267.743 20.051C269.364 18.7119 271.521 18 274.307 18V16ZM266.47 18.509C264.352 20.2584 263.347 22.7697 263.347 25.88H265.347C265.347 23.2303 266.181 21.3416 267.743 20.051L266.47 18.509ZM263.347 25.88C263.347 28.852 264.365 31.3014 266.45 33.1146L267.763 31.6054C266.168 30.2186 265.347 28.348 265.347 25.88H263.347ZM266.47 33.131C268.529 34.8319 271.172 35.64 274.307 35.64V33.64C271.521 33.64 269.364 32.9281 267.743 31.589L266.47 33.131ZM336.46 82.52L335.931 83.3687L335.937 83.3721L336.46 82.52ZM323.38 67.64L322.483 68.0828L322.483 68.0828L323.38 67.64ZM323.38 20.36L322.483 19.9172L322.483 19.9172L323.38 20.36ZM336.46 5.48L335.937 4.62791L335.931 4.63131L336.46 5.48ZM374.62 5.48L374.091 6.32871L374.097 6.33208L374.62 5.48ZM387.82 20.36L386.923 20.8028L386.923 20.8028L387.82 20.36ZM387.82 67.64L386.923 67.1972L386.923 67.1972L387.82 67.64ZM374.62 82.52L374.097 81.6679L374.091 81.6713L374.62 82.52ZM362.38 65.84L361.755 65.0591L361.747 65.0654L361.74 65.0718L362.38 65.84ZM367.06 58.16L368.013 58.4632L368.015 58.4571L367.06 58.16ZM362.38 22.16L361.74 22.9282L361.747 22.9346L361.755 22.9409L362.38 22.16ZM348.82 22.16L348.195 21.3791L348.187 21.3854L348.18 21.3918L348.82 22.16ZM344.14 29.84L343.193 29.5173L343.19 29.527L343.187 29.5368L344.14 29.84ZM344.14 58.16L343.185 58.4571L343.189 58.4699L343.193 58.4827L344.14 58.16ZM348.82 65.84L348.18 66.6082L348.187 66.6146L348.195 66.6209L348.82 65.84ZM355.66 86.68C348.627 86.68 342.411 85.0021 336.983 81.6679L335.937 83.3721C341.709 86.9179 348.293 88.68 355.66 88.68V86.68ZM336.989 81.6713C331.644 78.3405 327.404 73.5295 324.277 67.1972L322.483 68.0828C325.756 74.7105 330.236 79.8195 335.931 83.3687L336.989 81.6713ZM324.277 67.1972C321.161 60.8883 319.58 53.1686 319.58 44H317.58C317.58 53.3914 319.199 61.4317 322.483 68.0828L324.277 67.1972ZM319.58 44C319.58 34.8314 321.161 27.1117 324.277 20.8028L322.483 19.9172C319.199 26.5683 317.58 34.6086 317.58 44H319.58ZM324.277 20.8028C327.404 14.4705 331.644 9.65954 336.989 6.32869L335.931 4.63131C330.236 8.18045 325.756 13.2894 322.483 19.9172L324.277 20.8028ZM336.983 6.33208C342.411 2.99792 348.627 1.31999 355.66 1.31999V-0.680006C348.293 -0.680006 341.709 1.08207 335.937 4.62792L336.983 6.33208ZM355.66 1.31999C362.611 1.31999 368.745 2.99685 374.091 6.32869L375.149 4.63131C369.455 1.08315 362.949 -0.680006 355.66 -0.680006V1.31999ZM374.097 6.33208C379.52 9.66381 383.798 14.4742 386.923 20.8028L388.717 19.9172C385.442 13.2858 380.92 8.17619 375.143 4.62792L374.097 6.33208ZM386.923 20.8028C390.039 27.1117 391.62 34.8314 391.62 44H393.62C393.62 34.6086 392.001 26.5683 388.717 19.9172L386.923 20.8028ZM391.62 44C391.62 53.1686 390.039 60.8883 386.923 67.1972L388.717 68.0828C392.001 61.4317 393.62 53.3914 393.62 44H391.62ZM386.923 67.1972C383.798 73.5258 379.52 78.3362 374.097 81.6679L375.143 83.3721C380.92 79.8238 385.442 74.7142 388.717 68.0828L386.923 67.1972ZM374.091 81.6713C368.745 85.0032 362.611 86.68 355.66 86.68V88.68C362.949 88.68 369.455 86.9168 375.149 83.3687L374.091 81.6713ZM355.66 69.24C358.448 69.24 360.916 68.3619 363.02 66.6082L361.74 65.0718C360.004 66.5181 357.992 67.24 355.66 67.24V69.24ZM363.005 66.6209C365.213 64.8542 366.858 62.0921 368.013 58.4632L366.107 57.8568C365.022 61.2679 363.547 63.6258 361.755 65.0591L363.005 66.6209ZM368.015 58.4571C369.176 54.7233 369.74 49.8919 369.74 44H367.74C367.74 49.7881 367.184 54.3967 366.105 57.8629L368.015 58.4571ZM369.74 44C369.74 38.0312 369.177 33.1957 368.013 29.5368L366.107 30.1432C367.183 33.5243 367.74 38.1288 367.74 44H369.74ZM368.013 29.5368C366.858 25.9079 365.213 23.1458 363.005 21.3791L361.755 22.9409C363.547 24.3742 365.022 26.7321 366.107 30.1432L368.013 29.5368ZM363.02 21.3918C360.916 19.6381 358.448 18.76 355.66 18.76V20.76C357.992 20.76 360.004 21.4819 361.74 22.9282L363.02 21.3918ZM355.66 18.76C352.873 18.76 350.373 19.6374 348.195 21.3791L349.445 22.9409C351.267 21.4826 353.327 20.76 355.66 20.76V18.76ZM348.18 21.3918C346.066 23.1533 344.426 25.9026 343.193 29.5173L345.087 30.1627C346.254 26.7373 347.734 24.3667 349.46 22.9282L348.18 21.3918ZM343.187 29.5368C342.023 33.1957 341.46 38.0312 341.46 44H343.46C343.46 38.1288 344.017 33.5243 345.093 30.1432L343.187 29.5368ZM341.46 44C341.46 49.8919 342.024 54.7233 343.185 58.4571L345.095 57.8629C344.016 54.3967 343.46 49.7881 343.46 44H341.46ZM343.193 58.4827C344.426 62.0973 346.066 64.8467 348.18 66.6082L349.46 65.0718C347.734 63.6333 346.254 61.2626 345.087 57.8373L343.193 58.4827ZM348.195 66.6209C350.373 68.3626 352.873 69.24 355.66 69.24V67.24C353.327 67.24 351.267 66.5174 349.445 65.0591L348.195 66.6209ZM418.608 82.52L418.08 83.3687L418.085 83.3721L418.608 82.52ZM405.528 67.64L404.632 68.0828L404.632 68.0828L405.528 67.64ZM405.528 20.36L404.632 19.9172L404.632 19.9172L405.528 20.36ZM418.608 5.48L418.085 4.62791L418.08 4.63131L418.608 5.48ZM456.768 5.48L456.24 6.32871L456.245 6.33208L456.768 5.48ZM469.968 20.36L469.072 20.8028L469.072 20.8028L469.968 20.36ZM469.968 67.64L469.072 67.1972L469.072 67.1972L469.968 67.64ZM456.768 82.52L456.245 81.6679L456.24 81.6713L456.768 82.52ZM444.528 65.84L443.904 65.0591L443.896 65.0654L443.888 65.0718L444.528 65.84ZM449.208 58.16L450.161 58.4632L450.163 58.4571L449.208 58.16ZM444.528 22.16L443.888 22.9282L443.896 22.9346L443.904 22.9409L444.528 22.16ZM430.968 22.16L430.344 21.3791L430.336 21.3854L430.328 21.3918L430.968 22.16ZM426.288 29.84L425.342 29.5173L425.339 29.527L425.336 29.5368L426.288 29.84ZM426.288 58.16L425.334 58.4571L425.338 58.4699L425.342 58.4827L426.288 58.16ZM430.968 65.84L430.328 66.6082L430.336 66.6146L430.344 66.6209L430.968 65.84ZM437.808 86.68C430.775 86.68 424.56 85.0021 419.132 81.6679L418.085 83.3721C423.857 86.9179 430.442 88.68 437.808 88.68V86.68ZM419.137 81.6713C413.792 78.3405 409.552 73.5295 406.425 67.1972L404.632 68.0828C407.905 74.7105 412.384 79.8195 418.08 83.3687L419.137 81.6713ZM406.425 67.1972C403.31 60.8883 401.728 53.1686 401.728 44H399.728C399.728 53.3914 401.347 61.4317 404.632 68.0828L406.425 67.1972ZM401.728 44C401.728 34.8314 403.31 27.1117 406.425 20.8028L404.632 19.9172C401.347 26.5683 399.728 34.6086 399.728 44H401.728ZM406.425 20.8028C409.552 14.4705 413.792 9.65954 419.137 6.32869L418.08 4.63131C412.384 8.18045 407.905 13.2894 404.632 19.9172L406.425 20.8028ZM419.132 6.33208C424.56 2.99792 430.775 1.31999 437.808 1.31999V-0.680006C430.442 -0.680006 423.857 1.08207 418.085 4.62792L419.132 6.33208ZM437.808 1.31999C444.76 1.31999 450.893 2.99685 456.24 6.32869L457.297 4.63131C451.604 1.08315 445.097 -0.680006 437.808 -0.680006V1.31999ZM456.245 6.33208C461.669 9.66381 465.947 14.4742 469.072 20.8028L470.865 19.9172C467.59 13.2858 463.068 8.17619 457.292 4.62792L456.245 6.33208ZM469.072 20.8028C472.187 27.1117 473.768 34.8314 473.768 44H475.768C475.768 34.6086 474.15 26.5683 470.865 19.9172L469.072 20.8028ZM473.768 44C473.768 53.1686 472.187 60.8883 469.072 67.1972L470.865 68.0828C474.15 61.4317 475.768 53.3914 475.768 44H473.768ZM469.072 67.1972C465.947 73.5258 461.669 78.3362 456.245 81.6679L457.292 83.3721C463.068 79.8238 467.59 74.7142 470.865 68.0828L469.072 67.1972ZM456.24 81.6713C450.893 85.0032 444.76 86.68 437.808 86.68V88.68C445.097 88.68 451.604 86.9168 457.297 83.3687L456.24 81.6713ZM437.808 69.24C440.596 69.24 443.064 68.3619 445.169 66.6082L443.888 65.0718C442.153 66.5181 440.141 67.24 437.808 67.24V69.24ZM445.153 66.6209C447.361 64.8542 449.007 62.0921 450.161 58.4632L448.256 57.8568C447.17 61.2679 445.695 63.6258 443.904 65.0591L445.153 66.6209ZM450.163 58.4571C451.325 54.7233 451.888 49.8919 451.888 44H449.888C449.888 49.7881 449.332 54.3967 448.254 57.8629L450.163 58.4571ZM451.888 44C451.888 38.0312 451.326 33.1957 450.161 29.5368L448.256 30.1432C449.331 33.5243 449.888 38.1288 449.888 44H451.888ZM450.161 29.5368C449.007 25.9079 447.361 23.1458 445.153 21.3791L443.904 22.9409C445.695 24.3742 447.17 26.7321 448.256 30.1432L450.161 29.5368ZM445.169 21.3918C443.064 19.6381 440.596 18.76 437.808 18.76V20.76C440.141 20.76 442.153 21.4819 443.888 22.9282L445.169 21.3918ZM437.808 18.76C435.021 18.76 432.521 19.6374 430.344 21.3791L431.593 22.9409C433.416 21.4826 435.476 20.76 437.808 20.76V18.76ZM430.328 21.3918C428.214 23.1533 426.574 25.9026 425.342 29.5173L427.235 30.1627C428.403 26.7373 429.882 24.3667 431.609 22.9282L430.328 21.3918ZM425.336 29.5368C424.171 33.1957 423.608 38.0312 423.608 44H425.608C425.608 38.1288 426.166 33.5243 427.241 30.1432L425.336 29.5368ZM423.608 44C423.608 49.8919 424.172 54.7233 425.334 58.4571L427.243 57.8629C426.165 54.3967 425.608 49.7881 425.608 44H423.608ZM425.342 58.4827C426.574 62.0973 428.214 64.8467 430.328 66.6082L431.609 65.0718C429.882 63.6333 428.403 61.2626 427.235 57.8373L425.342 58.4827ZM430.344 66.6209C432.521 68.3626 435.021 69.24 437.808 69.24V67.24C435.476 67.24 433.416 66.5174 431.593 65.0591L430.344 66.6209ZM500.757 82.52L500.228 83.3687L500.233 83.3721L500.757 82.52ZM487.677 67.64L486.78 68.0828L486.78 68.0828L487.677 67.64ZM487.677 20.36L486.78 19.9172L486.78 19.9172L487.677 20.36ZM500.757 5.48L500.233 4.62791L500.228 4.63131L500.757 5.48ZM538.917 5.48L538.388 6.32871L538.393 6.33208L538.917 5.48ZM552.117 20.36L551.22 20.8028L551.22 20.8028L552.117 20.36ZM552.117 67.64L551.22 67.1972L551.22 67.1972L552.117 67.64ZM538.917 82.52L538.393 81.6679L538.388 81.6713L538.917 82.52ZM526.677 65.84L526.052 65.0591L526.044 65.0654L526.037 65.0718L526.677 65.84ZM531.357 58.16L532.31 58.4632L532.312 58.4571L531.357 58.16ZM526.677 22.16L526.037 22.9282L526.044 22.9346L526.052 22.9409L526.677 22.16ZM513.117 22.16L512.492 21.3791L512.484 21.3854L512.477 21.3918L513.117 22.16ZM508.437 29.84L507.49 29.5173L507.487 29.527L507.484 29.5368L508.437 29.84ZM508.437 58.16L507.482 58.4571L507.486 58.4699L507.49 58.4827L508.437 58.16ZM513.117 65.84L512.477 66.6082L512.484 66.6146L512.492 66.6209L513.117 65.84ZM519.957 86.68C512.923 86.68 506.708 85.0021 501.28 81.6679L500.233 83.3721C506.006 86.9179 512.59 88.68 519.957 88.68V86.68ZM501.286 81.6713C495.941 78.3405 491.701 73.5295 488.574 67.1972L486.78 68.0828C490.053 74.7105 494.533 79.8195 500.228 83.3687L501.286 81.6713ZM488.574 67.1972C485.458 60.8883 483.877 53.1686 483.877 44H481.877C481.877 53.3914 483.496 61.4317 486.78 68.0828L488.574 67.1972ZM483.877 44C483.877 34.8314 485.458 27.1117 488.574 20.8028L486.78 19.9172C483.496 26.5683 481.877 34.6086 481.877 44H483.877ZM488.574 20.8028C491.701 14.4705 495.941 9.65954 501.286 6.32869L500.228 4.63131C494.533 8.18045 490.053 13.2894 486.78 19.9172L488.574 20.8028ZM501.28 6.33208C506.708 2.99792 512.923 1.31999 519.957 1.31999V-0.680006C512.59 -0.680006 506.006 1.08207 500.233 4.62792L501.28 6.33208ZM519.957 1.31999C526.908 1.31999 533.042 2.99685 538.388 6.32869L539.446 4.63131C533.752 1.08315 527.246 -0.680006 519.957 -0.680006V1.31999ZM538.393 6.33208C543.817 9.66381 548.095 14.4742 551.22 20.8028L553.014 19.9172C549.739 13.2858 545.217 8.17619 539.44 4.62792L538.393 6.33208ZM551.22 20.8028C554.336 27.1117 555.917 34.8314 555.917 44H557.917C557.917 34.6086 556.298 26.5683 553.014 19.9172L551.22 20.8028ZM555.917 44C555.917 53.1686 554.336 60.8883 551.22 67.1972L553.014 68.0828C556.298 61.4317 557.917 53.3914 557.917 44H555.917ZM551.22 67.1972C548.095 73.5258 543.817 78.3362 538.393 81.6679L539.44 83.3721C545.217 79.8238 549.739 74.7142 553.014 68.0828L551.22 67.1972ZM538.388 81.6713C533.042 85.0032 526.908 86.68 519.957 86.68V88.68C527.246 88.68 533.752 86.9168 539.446 83.3687L538.388 81.6713ZM519.957 69.24C522.745 69.24 525.213 68.3619 527.317 66.6082L526.037 65.0718C524.301 66.5181 522.289 67.24 519.957 67.24V69.24ZM527.302 66.6209C529.51 64.8542 531.155 62.0921 532.31 58.4632L530.404 57.8568C529.319 61.2679 527.844 63.6258 526.052 65.0591L527.302 66.6209ZM532.312 58.4571C533.473 54.7233 534.037 49.8919 534.037 44H532.037C532.037 49.7881 531.48 54.3967 530.402 57.8629L532.312 58.4571ZM534.037 44C534.037 38.0312 533.474 33.1957 532.31 29.5368L530.404 30.1432C531.48 33.5243 532.037 38.1288 532.037 44H534.037ZM532.31 29.5368C531.155 25.9079 529.51 23.1458 527.302 21.3791L526.052 22.9409C527.844 24.3742 529.319 26.7321 530.404 30.1432L532.31 29.5368ZM527.317 21.3918C525.213 19.6381 522.745 18.76 519.957 18.76V20.76C522.289 20.76 524.301 21.4819 526.037 22.9282L527.317 21.3918ZM519.957 18.76C517.17 18.76 514.669 19.6374 512.492 21.3791L513.742 22.9409C515.564 21.4826 517.624 20.76 519.957 20.76V18.76ZM512.477 21.3918C510.363 23.1533 508.723 25.9026 507.49 29.5173L509.383 30.1627C510.551 26.7373 512.031 24.3667 513.757 22.9282L512.477 21.3918ZM507.484 29.5368C506.32 33.1957 505.757 38.0312 505.757 44H507.757C507.757 38.1288 508.314 33.5243 509.39 30.1432L507.484 29.5368ZM505.757 44C505.757 49.8919 506.32 54.7233 507.482 58.4571L509.392 57.8629C508.313 54.3967 507.757 49.7881 507.757 44H505.757ZM507.49 58.4827C508.723 62.0973 510.363 64.8467 512.477 66.6082L513.757 65.0718C512.031 63.6333 510.551 61.2626 509.383 57.8373L507.49 58.4827ZM512.492 66.6209C514.669 68.3626 517.17 69.24 519.957 69.24V67.24C517.624 67.24 515.564 66.5174 513.742 65.0591L512.492 66.6209Z" fill="black" fill-opacity="0.08"/>
</svg>
