<svg width="60" height="60" viewBox="0 0 60 60" fill="none" xmlns="http://www.w3.org/2000/svg">
<g clip-path="url(#clip0_59_419)">
<path d="M34.675 31.1751L36.2751 32.7751L41.075 27.9751" stroke="#D1292E" stroke-width="2" stroke-linecap="round" stroke-linejoin="round"/>
<path d="M52.5001 24.725C52.3501 27.125 51.6751 32.75 49.0251 36.6C48.0751 37.95 46.9251 39.2249 45.7501 40.3749C45.2751 40.8499 44.775 41.2999 44.3 41.7249C42.1 43.6499 39.9251 45.0499 38.7751 45.7749C38.2251 46.1249 37.5501 46.1249 37.0251 45.7749C34.9751 44.4499 29.725 40.8499 26.65 36.4499C24.025 32.6499 23.4001 27.0999 23.2501 24.6999C23.2001 24.0249 23.6252 23.3999 24.2752 23.1249C29.7502 20.8249 34.6501 16.725 36.7501 14.8C37.4001 14.25 38.3502 14.25 38.9502 14.8C40.0502 15.825 41.9251 17.3999 44.2501 19.0499C44.7251 19.3749 45.2252 19.6999 45.7002 20.0499C47.4502 21.1999 49.4001 22.2999 51.4251 23.1249C52.1001 23.3999 52.5001 24.025 52.4501 24.725H52.5001Z" stroke="#D1292E" stroke-width="2" stroke-linecap="round" stroke-linejoin="round"/>
<path d="M23.25 24.7001C23.375 27.0751 24.0249 32.6501 26.6499 36.4501C29.6999 40.8501 34.975 44.4501 37.025 45.7751C37.575 46.1251 38.25 46.1251 38.775 45.7751C39.925 45.0501 42.0749 43.6501 44.2999 41.7251C44.7999 41.3001 45.3 40.8501 45.75 40.3751V43.4752C45.75 48.4252 41.7 52.4751 36.75 52.4751H16.4999C11.5499 52.4751 7.5 48.4252 7.5 43.4752V16.4751C7.5 11.5251 11.5499 7.4751 16.4999 7.4751H36.75C41.7 7.4751 45.75 11.5251 45.75 16.4751V20.0251C45.25 19.7001 44.7499 19.3751 44.2999 19.0251C41.9499 17.3751 40.0999 15.7751 38.9999 14.7751C38.3999 14.2251 37.4499 14.2251 36.7999 14.7751C34.6749 16.7001 29.775 20.8001 24.325 23.1001C23.675 23.3751 23.25 24.0001 23.3 24.6751L23.25 24.7001Z" stroke="#D1292E" stroke-width="2" stroke-linecap="round" stroke-linejoin="round"/>
</g>
<defs>
<clipPath id="clip0_59_419">
<rect width="60" height="60" fill="white"/>
</clipPath>
</defs>
</svg>
