<svg width="541" height="88" viewBox="0 0 541 88" fill="none" xmlns="http://www.w3.org/2000/svg">
<path d="M27.92 84.56L27.5645 85.4948L27.5761 85.499L27.92 84.56ZM13.16 75.44L12.4671 76.1611L12.4742 76.1678L13.16 75.44ZM3.56 61.64L2.64226 62.0372L2.64448 62.0423L3.56 61.64ZM3.56 26.48L4.47553 26.8823L4.47772 26.8772L3.56 26.48ZM13.28 12.56L12.5942 11.8322L12.5942 11.8322L13.28 12.56ZM28.04 3.56L28.3839 4.49904L28.3911 4.49632L28.04 3.56ZM68.12 4.27999L68.5096 3.35903L68.5096 3.35903L68.12 4.27999ZM83.6 15.68L84.2709 16.4215L84.9783 15.7815L84.3723 15.0447L83.6 15.68ZM68.48 29.36L67.7452 30.0383L68.4167 30.7658L69.1509 30.1015L68.48 29.36ZM59.12 22.4L58.6816 23.2988L58.6946 23.3051L58.7078 23.3111L59.12 22.4ZM38.24 21.68L37.8861 20.7447L38.24 21.68ZM30.68 26.6L31.3871 27.3071L31.3938 27.3004L31.4003 27.2936L30.68 26.6ZM25.76 34.16L24.8333 33.7843L24.8306 33.7909L24.828 33.7976L25.76 34.16ZM25.76 53.72L24.8247 54.0739L24.8289 54.0848L24.8333 54.0957L25.76 53.72ZM30.68 61.4L29.9597 62.0936L29.9662 62.1004L29.9729 62.1071L30.68 61.4ZM38.12 66.32L37.7354 67.2431L37.7506 67.2494L37.7661 67.2553L38.12 66.32ZM58.16 66.32L58.4762 67.2687L58.4863 67.2653L58.4963 67.2617L58.16 66.32ZM68.36 60.32L69.1414 59.696L68.5116 58.9072L67.7287 59.5444L68.36 60.32ZM81.68 77L82.2625 77.8128L83.1188 77.1992L82.4614 76.376L81.68 77ZM65 84.92L65.2795 85.8801L65.2795 85.8801L65 84.92ZM60.68 73.88H59.68V74.7424L60.533 74.8691L60.68 73.88ZM60.68 42.2V41.2H59.68V42.2H60.68ZM81.68 42.2H82.68V41.2H81.68V42.2ZM81.68 77L81.533 77.9891L82.68 78.1595V77H81.68ZM46.4 86.68C39.8659 86.68 33.8234 85.6569 28.2639 83.621L27.5761 85.499C33.3766 87.6231 39.6541 88.68 46.4 88.68V86.68ZM28.2754 83.6253C22.7102 81.509 17.9044 78.5367 13.8458 74.7122L12.4742 76.1678C16.7356 80.1833 21.7698 83.291 27.5646 85.4947L28.2754 83.6253ZM13.8528 74.7189C9.86906 70.8914 6.74391 66.4003 4.47552 61.2377L2.64448 62.0423C5.01609 67.4397 8.29095 72.1486 12.4672 76.1611L13.8528 74.7189ZM4.47772 61.2428C2.217 56.0197 1.08 50.2765 1.08 44H-0.92C-0.92 50.5235 0.262999 56.5403 2.64228 62.0372L4.47772 61.2428ZM1.08 44C1.08 37.7232 2.21706 32.0222 4.47552 26.8823L2.64448 26.0777C0.262938 31.4978 -0.92 37.4768 -0.92 44H1.08ZM4.47772 26.8772C6.74491 21.6392 9.90697 17.1124 13.9658 13.2878L12.5942 11.8322C8.33303 15.8475 5.01509 20.6008 2.64228 26.0828L4.47772 26.8772ZM13.9658 13.2878C18.0216 9.46595 22.8234 6.53523 28.3839 4.49901L27.6961 2.62098C21.8966 4.74477 16.8584 7.81404 12.5942 11.8322L13.9658 13.2878ZM28.3911 4.49632C34.0276 2.38264 40.1873 1.31999 46.88 1.31999V-0.680006C39.9727 -0.680006 33.5724 0.417351 27.6889 2.62367L28.3911 4.49632ZM46.88 1.31999C54.6885 1.31999 61.6327 2.62117 67.7304 5.20096L68.5096 3.35903C62.1273 0.658822 54.9115 -0.680006 46.88 -0.680006V1.31999ZM67.7304 5.20096C73.83 7.7816 78.856 11.4869 82.8277 16.3153L84.3723 15.0447C80.184 9.95311 74.89 6.0584 68.5096 3.35903L67.7304 5.20096ZM82.9291 14.9385L67.8091 28.6185L69.1509 30.1015L84.2709 16.4215L82.9291 14.9385ZM69.2148 28.6817C66.2576 25.4781 63.0313 23.0718 59.5322 21.4889L58.7078 23.3111C61.9287 24.7682 64.9424 27.0019 67.7452 30.0383L69.2148 28.6817ZM59.5584 21.5012C56.1265 19.8271 52.2938 19 48.08 19V21C52.0262 21 55.5535 21.7729 58.6816 23.2988L59.5584 21.5012ZM48.08 19C44.3756 19 40.9736 19.5765 37.8861 20.7447L38.5939 22.6153C41.4264 21.5435 44.5845 21 48.08 21V19ZM37.8861 20.7447C34.7954 21.9142 32.1481 23.6338 29.9597 25.9064L31.4003 27.2936C33.3719 25.2462 35.7646 23.6858 38.5939 22.6153L37.8861 20.7447ZM29.9729 25.8929C27.7904 28.0754 26.0792 30.711 24.8333 33.7843L26.6867 34.5357C27.8408 31.689 29.4096 29.2846 31.3871 27.3071L29.9729 25.8929ZM24.828 33.7976C23.6554 36.8129 23.08 40.2191 23.08 44H25.08C25.08 40.4208 25.6246 37.2671 26.692 34.5224L24.828 33.7976ZM23.08 44C23.08 47.6274 23.6574 50.9888 24.8247 54.0739L26.6953 53.3661C25.6226 50.5312 25.08 47.4126 25.08 44H23.08ZM24.8333 54.0957C26.078 57.1661 27.7856 59.8359 29.9597 62.0936L31.4003 60.7064C29.4144 58.6441 27.842 56.1939 26.6867 53.3443L24.8333 54.0957ZM29.9729 62.1071C32.1508 64.285 34.7422 65.9959 37.7354 67.2431L38.5046 65.3969C35.7378 64.2441 33.3692 62.675 31.3871 60.6929L29.9729 62.1071ZM37.7661 67.2553C40.8512 68.4226 44.2126 69 47.84 69V67C44.4274 67 41.3088 66.4574 38.4739 65.3847L37.7661 67.2553ZM47.84 69C51.4682 69 55.0149 68.4225 58.4762 67.2687L57.8438 65.3713C54.5851 66.4575 51.2518 67 47.84 67V69ZM58.4963 67.2617C61.9858 66.0155 65.4837 63.9506 68.9913 61.0956L67.7287 59.5444C64.3563 62.2894 61.0542 64.2245 57.8237 65.3783L58.4963 67.2617ZM67.5786 60.944L80.8986 77.624L82.4614 76.376L69.1414 59.696L67.5786 60.944ZM81.0975 76.1872C76.3993 79.5542 70.9442 82.1479 64.7205 83.9599L65.2795 85.8801C71.6958 84.0121 77.3607 81.3258 82.2625 77.8128L81.0975 76.1872ZM64.7205 83.9599C58.4838 85.7756 52.3779 86.68 46.4 86.68V88.68C52.5821 88.68 58.8762 87.7444 65.2795 85.8801L64.7205 83.9599ZM61.68 73.88V42.2H59.68V73.88H61.68ZM60.68 43.2H81.68V41.2H60.68V43.2ZM80.68 42.2V77H82.68V42.2H80.68ZM81.827 76.0109L60.827 72.8909L60.533 74.8691L81.533 77.9891L81.827 76.0109ZM152.904 1.99999V0.999994H151.904V1.99999H152.904ZM176.664 1.99999H177.664V0.999994H176.664V1.99999ZM176.664 86V87H177.664V86H176.664ZM152.904 86H151.904V87H152.904V86ZM120.504 86V87H121.504V86H120.504ZM96.7438 86H95.7438V87H96.7438V86ZM96.7438 1.99999V0.999994H95.7438V1.99999H96.7438ZM120.504 1.99999H121.504V0.999994H120.504V1.99999ZM154.584 53.24V54.24H155.584V53.24H154.584ZM118.824 53.24H117.824V54.24H118.824V53.24ZM118.824 33.56V32.56H117.824V33.56H118.824ZM154.584 33.56H155.584V32.56H154.584V33.56ZM152.904 2.99999H176.664V0.999994H152.904V2.99999ZM175.664 1.99999V86H177.664V1.99999H175.664ZM176.664 85H152.904V87H176.664V85ZM153.904 86V1.99999H151.904V86H153.904ZM120.504 85H96.7438V87H120.504V85ZM97.7438 86V1.99999H95.7438V86H97.7438ZM96.7438 2.99999H120.504V0.999994H96.7438V2.99999ZM119.504 1.99999V86H121.504V1.99999H119.504ZM154.584 52.24H118.824V54.24H154.584V52.24ZM119.824 53.24V33.56H117.824V53.24H119.824ZM118.824 34.56H154.584V32.56H118.824V34.56ZM153.584 33.56V53.24H155.584V33.56H153.584ZM190.783 60.56H189.783V61.56H190.783V60.56ZM190.783 43.04V42.04H189.783V43.04H190.783ZM225.823 43.04H226.823V42.04H225.823V43.04ZM225.823 60.56V61.56H226.823V60.56H225.823ZM191.783 60.56V43.04H189.783V60.56H191.783ZM190.783 44.04H225.823V42.04H190.783V44.04ZM224.823 43.04V60.56H226.823V43.04H224.823ZM225.823 59.56H190.783V61.56H225.823V59.56ZM286.867 5L286.391 5.8793L286.396 5.88202L286.867 5ZM300.427 18.92L299.539 19.381L299.543 19.3879L299.547 19.3948L300.427 18.92ZM299.587 66.68L298.714 66.1926L298.712 66.1961L299.587 66.68ZM283.867 82.28L283.395 81.3985L283.39 81.4009L283.867 82.28ZM247.147 86L247.398 85.032L247.389 85.0298L247.381 85.0278L247.147 86ZM235.987 81.56L235.095 81.1078L234.679 81.9291L235.463 82.4117L235.987 81.56ZM244.627 64.52L245.2 63.7008L244.256 63.0399L243.735 64.0678L244.627 64.52ZM252.067 68L251.824 68.9701L251.842 68.9745L251.859 68.9782L252.067 68ZM275.587 62.96L276.301 63.6598L276.301 63.6598L275.587 62.96ZM280.987 37.04L281.629 36.2731L279.583 34.5616L279.999 37.196L280.987 37.04ZM286.867 41.96L287.766 42.3975L288.108 41.6946L287.509 41.1931L286.867 41.96ZM281.227 49.4L281.88 50.1574L281.88 50.1574L281.227 49.4ZM273.067 53.96L272.751 53.0113L272.751 53.0113L273.067 53.96ZM247.867 52.28L247.407 53.1678L247.416 53.1728L247.426 53.1777L247.867 52.28ZM237.427 43.04L236.592 43.5909L236.597 43.5986L237.427 43.04ZM237.907 13.88L238.727 14.4524L238.732 14.4452L237.907 13.88ZM249.787 3.92L250.211 4.82589L250.222 4.82016L249.787 3.92ZM262.027 18.56L261.563 17.6742L261.563 17.6742L262.027 18.56ZM257.947 22.28L257.108 21.735L257.101 21.746L257.947 22.28ZM259.627 35.6L258.949 36.3348L258.955 36.3412L258.963 36.3474L259.627 35.6ZM274.147 37.16L274.594 38.0544L274.594 38.0544L274.147 37.16ZM278.227 33.44L279.084 33.9545L279.084 33.9545L278.227 33.44ZM278.227 22.4L277.369 22.9145L277.375 22.9243L277.381 22.934L278.227 22.4ZM274.147 18.68L273.668 19.5579L273.684 19.5664L273.7 19.5744L274.147 18.68ZM266.347 1.31999C274.135 1.31999 280.804 2.85347 286.391 5.87929L287.343 4.12071C281.409 0.906521 274.399 -0.680006 266.347 -0.680006V1.31999ZM286.396 5.88202C292.049 8.90214 296.428 13.3909 299.539 19.381L301.314 18.459C298.026 12.129 293.365 7.33786 287.338 4.11798L286.396 5.88202ZM299.547 19.3948C302.727 25.2897 304.347 32.7146 304.347 41.72H306.347C306.347 32.4854 304.687 24.7103 301.307 18.4452L299.547 19.3948ZM304.347 41.72C304.347 51.3496 302.453 59.4932 298.714 66.1926L300.46 67.1674C304.401 60.1068 306.347 51.6104 306.347 41.72H304.347ZM298.712 66.1961C295.043 72.831 289.941 77.8913 283.395 81.3985L284.339 83.1615C291.232 79.4687 296.611 74.129 300.462 67.1639L298.712 66.1961ZM283.39 81.4009C276.92 84.9087 269.33 86.68 260.587 86.68V88.68C269.604 88.68 277.533 86.8513 284.344 83.1591L283.39 81.4009ZM260.587 86.68C256.028 86.68 251.633 86.1299 247.398 85.032L246.896 86.968C251.301 88.1101 255.866 88.68 260.587 88.68V86.68ZM247.381 85.0278C243.142 84.0074 239.525 82.5628 236.511 80.7083L235.463 82.4117C238.689 84.3972 242.511 85.9126 246.913 86.9722L247.381 85.0278ZM236.879 82.0122L245.519 64.9722L243.735 64.0678L235.095 81.1078L236.879 82.0122ZM244.053 65.3392C246.543 67.0816 249.133 68.2974 251.824 68.9701L252.309 67.0299C249.88 66.4226 247.511 65.3184 245.2 63.7008L244.053 65.3392ZM251.859 68.9782C254.568 69.5528 257.318 69.84 260.107 69.84V67.84C257.456 67.84 254.846 67.5672 252.274 67.0218L251.859 68.9782ZM260.107 69.84C266.803 69.84 272.239 67.8063 276.301 63.6598L274.873 62.2602C271.254 65.9537 266.371 67.84 260.107 67.84V69.84ZM276.301 63.6598C280.383 59.4925 282.347 53.4828 282.347 45.8H280.347C280.347 53.1572 278.47 58.5875 274.873 62.2602L276.301 63.6598ZM282.347 45.8C282.347 45.7973 282.347 45.7947 282.347 45.792C282.347 45.7894 282.347 45.7867 282.347 45.7841C282.347 45.7814 282.347 45.7787 282.347 45.7761C282.347 45.7734 282.347 45.7708 282.347 45.7681C282.347 45.7655 282.347 45.7628 282.347 45.7601C282.347 45.7575 282.347 45.7548 282.347 45.7522C282.347 45.7495 282.347 45.7469 282.347 45.7442C282.347 45.7415 282.347 45.7389 282.347 45.7362C282.347 45.7336 282.347 45.7309 282.347 45.7282C282.347 45.7256 282.347 45.7229 282.347 45.7203C282.347 45.7176 282.347 45.7149 282.347 45.7123C282.347 45.7096 282.347 45.707 282.347 45.7043C282.347 45.7016 282.347 45.699 282.347 45.6963C282.347 45.6937 282.347 45.691 282.347 45.6883C282.347 45.6857 282.347 45.683 282.347 45.6804C282.347 45.6777 282.347 45.675 282.347 45.6724C282.347 45.6697 282.347 45.6671 282.347 45.6644C282.347 45.6617 282.347 45.6591 282.347 45.6564C282.347 45.6538 282.347 45.6511 282.347 45.6484C282.347 45.6458 282.347 45.6431 282.347 45.6404C282.347 45.6378 282.347 45.6351 282.347 45.6325C282.347 45.6298 282.347 45.6271 282.347 45.6245C282.347 45.6218 282.347 45.6191 282.347 45.6165C282.347 45.6138 282.347 45.6111 282.347 45.6085C282.347 45.6058 282.347 45.6032 282.347 45.6005C282.347 45.5978 282.347 45.5952 282.347 45.5925C282.347 45.5898 282.347 45.5872 282.347 45.5845C282.347 45.5818 282.347 45.5792 282.347 45.5765C282.347 45.5739 282.347 45.5712 282.347 45.5685C282.347 45.5659 282.347 45.5632 282.347 45.5605C282.347 45.5579 282.347 45.5552 282.347 45.5525C282.347 45.5499 282.347 45.5472 282.347 45.5445C282.347 45.5419 282.347 45.5392 282.347 45.5365C282.347 45.5339 282.347 45.5312 282.347 45.5285C282.347 45.5259 282.347 45.5232 282.347 45.5205C282.347 45.5179 282.347 45.5152 282.347 45.5125C282.347 45.5099 282.347 45.5072 282.347 45.5045C282.347 45.5019 282.347 45.4992 282.347 45.4965C282.347 45.4939 282.347 45.4912 282.347 45.4885C282.347 45.4859 282.347 45.4832 282.347 45.4805C282.347 45.4778 282.347 45.4752 282.347 45.4725C282.347 45.4698 282.347 45.4672 282.347 45.4645C282.347 45.4618 282.347 45.4592 282.347 45.4565C282.347 45.4538 282.347 45.4512 282.347 45.4485C282.347 45.4458 282.347 45.4431 282.347 45.4405C282.347 45.4378 282.347 45.4351 282.347 45.4325C282.347 45.4298 282.347 45.4271 282.347 45.4245C282.347 45.4218 282.347 45.4191 282.347 45.4164C282.347 45.4138 282.347 45.4111 282.347 45.4084C282.347 45.4058 282.347 45.4031 282.347 45.4004C282.347 45.3977 282.347 45.3951 282.347 45.3924C282.347 45.3897 282.347 45.3871 282.347 45.3844C282.347 45.3817 282.347 45.379 282.347 45.3764C282.347 45.3737 282.347 45.371 282.347 45.3684C282.347 45.3657 282.347 45.363 282.347 45.3603C282.347 45.3577 282.347 45.355 282.347 45.3523C282.347 45.3496 282.347 45.347 282.347 45.3443C282.347 45.3416 282.347 45.3389 282.347 45.3363C282.347 45.3336 282.347 45.3309 282.347 45.3282C282.347 45.3256 282.347 45.3229 282.347 45.3202C282.347 45.3176 282.347 45.3149 282.347 45.3122C282.347 45.3095 282.347 45.3069 282.347 45.3042C282.347 45.3015 282.347 45.2988 282.347 45.2962C282.347 45.2935 282.347 45.2908 282.347 45.2881C282.347 45.2854 282.347 45.2828 282.347 45.2801C282.347 45.2774 282.347 45.2747 282.347 45.2721C282.347 45.2694 282.347 45.2667 282.347 45.264C282.347 45.2614 282.347 45.2587 282.347 45.256C282.347 45.2533 282.347 45.2507 282.347 45.248C282.347 45.2453 282.347 45.2426 282.347 45.2399C282.347 45.2373 282.347 45.2346 282.347 45.2319C282.347 45.2292 282.347 45.2266 282.347 45.2239C282.347 45.2212 282.347 45.2185 282.347 45.2158C282.347 45.2132 282.347 45.2105 282.347 45.2078C282.347 45.2051 282.347 45.2024 282.347 45.1998C282.347 45.1971 282.347 45.1944 282.347 45.1917C282.347 45.189 282.347 45.1864 282.347 45.1837C282.347 45.181 282.347 45.1783 282.347 45.1757C282.347 45.173 282.347 45.1703 282.347 45.1676C282.347 45.1649 282.347 45.1622 282.347 45.1596C282.347 45.1569 282.347 45.1542 282.347 45.1515C282.347 45.1488 282.347 45.1462 282.347 45.1435C282.347 45.1408 282.347 45.1381 282.347 45.1354C282.347 45.1328 282.347 45.1301 282.347 45.1274C282.347 45.1247 282.347 45.122 282.347 45.1193C282.347 45.1167 282.347 45.114 282.347 45.1113C282.347 45.1086 282.347 45.1059 282.347 45.1033C282.347 45.1006 282.347 45.0979 282.347 45.0952C282.347 45.0925 282.347 45.0898 282.347 45.0872C282.347 45.0845 282.347 45.0818 282.347 45.0791C282.347 45.0764 282.347 45.0737 282.347 45.0711C282.347 45.0684 282.347 45.0657 282.347 45.063C282.347 45.0603 282.347 45.0576 282.347 45.0549C282.347 45.0523 282.347 45.0496 282.347 45.0469C282.347 45.0442 282.347 45.0415 282.347 45.0388C282.347 45.0362 282.347 45.0335 282.347 45.0308C282.347 45.0281 282.347 45.0254 282.347 45.0227C282.347 45.02 282.347 45.0174 282.347 45.0147C282.347 45.012 282.347 45.0093 282.347 45.0066C282.347 45.0039 282.347 45.0012 282.347 44.9985C282.347 44.9959 282.347 44.9932 282.347 44.9905C282.347 44.9878 282.347 44.9851 282.347 44.9824C282.347 44.9797 282.347 44.977 282.347 44.9744C282.347 44.9717 282.347 44.969 282.347 44.9663C282.347 44.9636 282.347 44.9609 282.347 44.9582C282.347 44.9555 282.347 44.9529 282.347 44.9502C282.347 44.9475 282.347 44.9448 282.347 44.9421C282.347 44.9394 282.347 44.9367 282.347 44.934C282.347 44.9313 282.347 44.9287 282.347 44.926C282.347 44.9233 282.347 44.9206 282.347 44.9179C282.347 44.9152 282.347 44.9125 282.347 44.9098C282.347 44.9071 282.347 44.9044 282.347 44.9018C282.347 44.8991 282.347 44.8964 282.347 44.8937C282.347 44.891 282.347 44.8883 282.347 44.8856C282.347 44.8829 282.347 44.8802 282.347 44.8775C282.347 44.8748 282.347 44.8722 282.347 44.8695C282.347 44.8668 282.347 44.8641 282.347 44.8614C282.347 44.8587 282.347 44.856 282.347 44.8533C282.347 44.8506 282.347 44.8479 282.347 44.8452C282.347 44.8425 282.347 44.8398 282.347 44.8372C282.347 44.8345 282.347 44.8318 282.347 44.8291C282.347 44.8264 282.347 44.8237 282.347 44.821C282.347 44.8183 282.347 44.8156 282.347 44.8129C282.347 44.8102 282.347 44.8075 282.347 44.8048C282.347 44.8021 282.347 44.7994 282.347 44.7968C282.347 44.7941 282.347 44.7914 282.347 44.7887C282.347 44.786 282.347 44.7833 282.347 44.7806C282.347 44.7779 282.347 44.7752 282.347 44.7725C282.347 44.7698 282.347 44.7671 282.347 44.7644C282.347 44.7617 282.347 44.759 282.347 44.7563C282.347 44.7536 282.347 44.7509 282.347 44.7482C282.347 44.7455 282.347 44.7428 282.347 44.7401C282.347 44.7375 282.347 44.7348 282.347 44.7321C282.347 44.7294 282.347 44.7267 282.347 44.724C282.347 44.7213 282.347 44.7186 282.347 44.7159C282.347 44.7132 282.347 44.7105 282.347 44.7078C282.347 44.7051 282.347 44.7024 282.347 44.6997C282.347 44.697 282.347 44.6943 282.347 44.6916C282.347 44.6889 282.347 44.6862 282.347 44.6835C282.347 44.6808 282.347 44.6781 282.347 44.6754C282.347 44.6727 282.347 44.67 282.347 44.6673C282.347 44.6646 282.347 44.6619 282.347 44.6592C282.347 44.6565 282.347 44.6538 282.347 44.6511C282.347 44.6484 282.347 44.6457 282.347 44.643C282.347 44.6403 282.347 44.6376 282.347 44.6349C282.347 44.6322 282.347 44.6295 282.347 44.6268C282.347 44.6241 282.347 44.6214 282.347 44.6187C282.347 44.616 282.347 44.6133 282.347 44.6106C282.347 44.6079 282.347 44.6052 282.347 44.6025C282.347 44.5998 282.347 44.5971 282.347 44.5944C282.347 44.5917 282.347 44.589 282.347 44.5863C282.347 44.5836 282.347 44.5809 282.347 44.5782C282.347 44.5755 282.347 44.5728 282.347 44.5701C282.347 44.5674 282.347 44.5647 282.347 44.562C282.347 44.5593 282.347 44.5565 282.347 44.5538C282.347 44.5511 282.347 44.5484 282.347 44.5457C282.347 44.543 282.347 44.5403 282.347 44.5376C282.347 44.5349 282.347 44.5322 282.347 44.5295C282.347 44.5268 282.347 44.5241 282.347 44.5214C282.347 44.5187 282.347 44.516 282.347 44.5133C282.347 44.5106 282.347 44.5079 282.347 44.5052C282.347 44.5025 282.347 44.4998 282.347 44.497C282.347 44.4943 282.347 44.4916 282.347 44.4889C282.347 44.4862 282.347 44.4835 282.347 44.4808C282.347 44.4781 282.347 44.4754 282.347 44.4727C282.347 44.47 282.347 44.4673 282.347 44.4646C282.347 44.4619 282.347 44.4592 282.347 44.4565C282.347 44.4537 282.347 44.451 282.347 44.4483C282.347 44.4456 282.347 44.4429 282.347 44.4402C282.347 44.4375 282.347 44.4348 282.347 44.4321C282.347 44.4294 282.347 44.4267 282.347 44.424C282.347 44.4212 282.347 44.4185 282.347 44.4158C282.347 44.4131 282.347 44.4104 282.347 44.4077C282.347 44.405 282.347 44.4023 282.347 44.3996C282.347 44.3969 282.347 44.3942 282.347 44.3914C282.347 44.3887 282.347 44.386 282.347 44.3833C282.347 44.3806 282.347 44.3779 282.347 44.3752C282.347 44.3725 282.347 44.3698 282.347 44.3671C282.347 44.3643 282.347 44.3616 282.347 44.3589C282.347 44.3562 282.347 44.3535 282.347 44.3508C282.347 44.3481 282.347 44.3454 282.347 44.3427C282.347 44.3399 282.347 44.3372 282.347 44.3345C282.347 44.3318 282.347 44.3291 282.347 44.3264C282.347 44.3237 282.347 44.321 282.347 44.3182C282.347 44.3155 282.347 44.3128 282.347 44.3101C282.347 44.3074 282.347 44.3047 282.347 44.302C282.347 44.2993 282.347 44.2965 282.347 44.2938C282.347 44.2911 282.347 44.2884 282.347 44.2857C282.347 44.283 282.347 44.2803 282.347 44.2776C282.347 44.2748 282.347 44.2721 282.347 44.2694C282.347 44.2667 282.347 44.264 282.347 44.2613C282.347 44.2586 282.347 44.2558 282.347 44.2531C282.347 44.2504 282.347 44.2477 282.347 44.245C282.347 44.2423 282.347 44.2395 282.347 44.2368C282.347 44.2341 282.347 44.2314 282.347 44.2287C282.347 44.226 282.347 44.2233 282.347 44.2205C282.347 44.2178 282.347 44.2151 282.347 44.2124C282.347 44.2097 282.347 44.207 282.347 44.2042C282.347 44.2015 282.347 44.1988 282.347 44.1961C282.347 44.1934 282.347 44.1907 282.347 44.1879C282.347 44.1852 282.347 44.1825 282.347 44.1798C282.347 44.1771 282.347 44.1743 282.347 44.1716C282.347 44.1689 282.347 44.1662 282.347 44.1635C282.347 44.1608 282.347 44.158 282.347 44.1553C282.347 44.1526 282.347 44.1499 282.347 44.1472C282.347 44.1444 282.347 44.1417 282.347 44.139C282.347 44.1363 282.347 44.1336 282.347 44.1309C282.347 44.1281 282.347 44.1254 282.347 44.1227C282.347 44.12 282.347 44.1173 282.347 44.1145C282.347 44.1118 282.347 44.1091 282.347 44.1064C282.347 44.1037 282.347 44.1009 282.347 44.0982C282.347 44.0955 282.347 44.0928 282.347 44.09C282.347 44.0873 282.347 44.0846 282.347 44.0819C282.347 44.0792 282.347 44.0764 282.347 44.0737C282.347 44.071 282.347 44.0683 282.347 44.0656C282.347 44.0628 282.347 44.0601 282.347 44.0574C282.347 44.0547 282.347 44.0519 282.347 44.0492C282.347 44.0465 282.347 44.0438 282.347 44.0411C282.347 44.0383 282.347 44.0356 282.347 44.0329C282.347 44.0302 282.347 44.0274 282.347 44.0247C282.347 44.022 282.347 44.0193 282.347 44.0165C282.347 44.0138 282.347 44.0111 282.347 44.0084C282.347 44.0057 282.347 44.0029 282.347 44.0002C282.347 43.9975 282.347 43.9948 282.347 43.992C282.347 43.9893 282.347 43.9866 282.347 43.9839C282.347 43.9811 282.347 43.9784 282.347 43.9757C282.347 43.973 282.347 43.9702 282.347 43.9675C282.347 43.9648 282.347 43.9621 282.347 43.9593C282.347 43.9566 282.347 43.9539 282.347 43.9511C282.347 43.9484 282.347 43.9457 282.347 43.943C282.347 43.9402 282.347 43.9375 282.347 43.9348C282.347 43.9321 282.347 43.9293 282.347 43.9266C282.347 43.9239 282.347 43.9212 282.347 43.9184C282.347 43.9157 282.347 43.913 282.347 43.9102C282.347 43.9075 282.347 43.9048 282.347 43.9021C282.347 43.8993 282.347 43.8966 282.347 43.8939C282.347 43.8911 282.347 43.8884 282.347 43.8857C282.347 43.883 282.347 43.8802 282.347 43.8775C282.347 43.8748 282.347 43.872 282.347 43.8693C282.347 43.8666 282.347 43.8639 282.347 43.8611C282.347 43.8584 282.347 43.8557 282.347 43.8529C282.347 43.8502 282.347 43.8475 282.347 43.8448C282.347 43.842 282.347 43.8393 282.347 43.8366C282.347 43.8338 282.347 43.8311 282.347 43.8284C282.347 43.8256 282.347 43.8229 282.347 43.8202C282.347 43.8174 282.347 43.8147 282.347 43.812C282.347 43.8093 282.347 43.8065 282.347 43.8038C282.347 43.8011 282.347 43.7983 282.347 43.7956C282.347 43.7929 282.347 43.7901 282.347 43.7874C282.347 43.7847 282.347 43.7819 282.347 43.7792C282.347 43.7765 282.347 43.7737 282.347 43.771C282.347 43.7683 282.347 43.7655 282.347 43.7628C282.347 43.7601 282.347 43.7573 282.347 43.7546C282.347 43.7519 282.347 43.7491 282.347 43.7464C282.347 43.7437 282.347 43.7409 282.347 43.7382C282.347 43.7355 282.347 43.7327 282.347 43.73C282.347 43.7273 282.347 43.7245 282.347 43.7218C282.347 43.7191 282.347 43.7163 282.347 43.7136C282.347 43.7109 282.347 43.7081 282.347 43.7054C282.347 43.7026 282.347 43.6999 282.347 43.6972C282.347 43.6944 282.347 43.6917 282.347 43.689C282.347 43.6862 282.347 43.6835 282.347 43.6808C282.347 43.678 282.347 43.6753 282.347 43.6726C282.347 43.6698 282.347 43.6671 282.347 43.6643C282.347 43.6616 282.347 43.6589 282.347 43.6561C282.347 43.6534 282.347 43.6507 282.347 43.6479C282.347 43.6452 282.347 43.6424 282.347 43.6397C282.347 43.637 282.347 43.6342 282.347 43.6315C282.347 43.6288 282.347 43.626 282.347 43.6233C282.347 43.6205 282.347 43.6178 282.347 43.6151C282.347 43.6123 282.347 43.6096 282.347 43.6068C282.347 43.6041 282.347 43.6014 282.347 43.5986C282.347 43.5959 282.347 43.5932 282.347 43.5904C282.347 43.5877 282.347 43.5849 282.347 43.5822C282.347 43.5795 282.347 43.5767 282.347 43.574C282.347 43.5712 282.347 43.5685 282.347 43.5658C282.347 43.563 282.347 43.5603 282.347 43.5575C282.347 43.5548 282.347 43.552 282.347 43.5493C282.347 43.5466 282.347 43.5438 282.347 43.5411C282.347 43.5383 282.347 43.5356 282.347 43.5329C282.347 43.5301 282.347 43.5274 282.347 43.5246C282.347 43.5219 282.347 43.5191 282.347 43.5164C282.347 43.5137 282.347 43.5109 282.347 43.5082C282.347 43.5054 282.347 43.5027 282.347 43.5C282.347 43.4972 282.347 43.4945 282.347 43.4917C282.347 43.489 282.347 43.4862 282.347 43.4835C282.347 43.4807 282.347 43.478 282.347 43.4753C282.347 43.4725 282.347 43.4698 282.347 43.467C282.347 43.4643 282.347 43.4615 282.347 43.4588C282.347 43.4561 282.347 43.4533 282.347 43.4506C282.347 43.4478 282.347 43.4451 282.347 43.4423C282.347 43.4396 282.347 43.4368 282.347 43.4341C282.347 43.4313 282.347 43.4286 282.347 43.4259C282.347 43.4231 282.347 43.4204 282.347 43.4176C282.347 43.4149 282.347 43.4121 282.347 43.4094C282.347 43.4066 282.347 43.4039 282.347 43.4011C282.347 43.3984 282.347 43.3956 282.347 43.3929C282.347 43.3902 282.347 43.3874 282.347 43.3847C282.347 43.3819 282.347 43.3792 282.347 43.3764C282.347 43.3737 282.347 43.3709 282.347 43.3682C282.347 43.3654 282.347 43.3627 282.347 43.3599C282.347 43.3572 282.347 43.3544 282.347 43.3517C282.347 43.3489 282.347 43.3462 282.347 43.3434C282.347 43.3407 282.347 43.3379 282.347 43.3352C282.347 43.3324 282.347 43.3297 282.347 43.3269C282.347 43.3242 282.347 43.3214 282.347 43.3187C282.347 43.3159 282.347 43.3132 282.347 43.3104C282.347 43.3077 282.347 43.3049 282.347 43.3022C282.347 43.2994 282.347 43.2967 282.347 43.2939C282.347 43.2912 282.347 43.2884 282.347 43.2857C282.347 43.2829 282.347 43.2802 282.347 43.2774C282.347 43.2747 282.347 43.2719 282.347 43.2692C282.347 43.2664 282.347 43.2637 282.347 43.2609C282.347 43.2582 282.347 43.2554 282.347 43.2527C282.347 43.2499 282.347 43.2472 282.347 43.2444C282.347 43.2417 282.347 43.2389 282.347 43.2362C282.347 43.2334 282.347 43.2307 282.347 43.2279C282.347 43.2252 282.347 43.2224 282.347 43.2196C282.347 43.2169 282.347 43.2141 282.347 43.2114C282.347 43.2086 282.347 43.2059 282.347 43.2031C282.347 43.2004 282.347 43.1976 282.347 43.1949C282.347 43.1921 282.347 43.1894 282.347 43.1866C282.347 43.1838 282.347 43.1811 282.347 43.1783C282.347 43.1756 282.347 43.1728 282.347 43.1701C282.347 43.1673 282.347 43.1646 282.347 43.1618C282.347 43.159 282.347 43.1563 282.347 43.1535C282.347 43.1508 282.347 43.148 282.347 43.1453C282.347 43.1425 282.347 43.1398 282.347 43.137C282.347 43.1342 282.347 43.1315 282.347 43.1287C282.347 43.126 282.347 43.1232 282.347 43.1205C282.347 43.1177 282.347 43.1149 282.347 43.1122C282.347 43.1094 282.347 43.1067 282.347 43.1039C282.347 43.1012 282.347 43.0984 282.347 43.0956C282.347 43.0929 282.347 43.0901 282.347 43.0874C282.347 43.0846 282.347 43.0819 282.347 43.0791C282.347 43.0763 282.347 43.0736 282.347 43.0708C282.347 43.0681 282.347 43.0653 282.347 43.0625C282.347 43.0598 282.347 43.057 282.347 43.0543C282.347 43.0515 282.347 43.0487 282.347 43.046C282.347 43.0432 282.347 43.0405 282.347 43.0377C282.347 43.0349 282.347 43.0322 282.347 43.0294C282.347 43.0267 282.347 43.0239 282.347 43.0211C282.347 43.0184 282.347 43.0156 282.347 43.0129C282.347 43.0101 282.347 43.0073 282.347 43.0046C282.347 43.0018 282.347 42.9991 282.347 42.9963C282.347 42.9935 282.347 42.9908 282.347 42.988C282.347 42.9852 282.347 42.9825 282.347 42.9797C282.347 42.977 282.347 42.9742 282.347 42.9714C282.347 42.9687 282.347 42.9659 282.347 42.9631C282.347 42.9604 282.347 42.9576 282.347 42.9549C282.347 42.9521 282.347 42.9493 282.347 42.9466C282.347 42.9438 282.347 42.941 282.347 42.9383C282.347 42.9355 282.347 42.9328 282.347 42.93C282.347 42.9272 282.347 42.9245 282.347 42.9217C282.347 42.9189 282.347 42.9162 282.347 42.9134C282.347 42.9106 282.347 42.9079 282.347 42.9051C282.347 42.9023 282.347 42.8996 282.347 42.8968C282.347 42.894 282.347 42.8913 282.347 42.8885C282.347 42.8858 282.347 42.883 282.347 42.8802C282.347 42.8775 282.347 42.8747 282.347 42.8719C282.347 42.8692 282.347 42.8664 282.347 42.8636C282.347 42.8609 282.347 42.8581 282.347 42.8553C282.347 42.8526 282.347 42.8498 282.347 42.847C282.347 42.8443 282.347 42.8415 282.347 42.8387C282.347 42.836 282.347 42.8332 282.347 42.8304C282.347 42.8277 282.347 42.8249 282.347 42.8221C282.347 42.8193 282.347 42.8166 282.347 42.8138C282.347 42.811 282.347 42.8083 282.347 42.8055C282.347 42.8027 282.347 42.8 282.347 42.7972C282.347 42.7944 282.347 42.7917 282.347 42.7889C282.347 42.7861 282.347 42.7834 282.347 42.7806C282.347 42.7778 282.347 42.775 282.347 42.7723C282.347 42.7695 282.347 42.7667 282.347 42.764C282.347 42.7612 282.347 42.7584 282.347 42.7557C282.347 42.7529 282.347 42.7501 282.347 42.7473C282.347 42.7446 282.347 42.7418 282.347 42.739C282.347 42.7363 282.347 42.7335 282.347 42.7307C282.347 42.7279 282.347 42.7252 282.347 42.7224C282.347 42.7196 282.347 42.7169 282.347 42.7141C282.347 42.7113 282.347 42.7085 282.347 42.7058C282.347 42.703 282.347 42.7002 282.347 42.6975C282.347 42.6947 282.347 42.6919 282.347 42.6891C282.347 42.6864 282.347 42.6836 282.347 42.6808C282.347 42.678 282.347 42.6753 282.347 42.6725C282.347 42.6697 282.347 42.667 282.347 42.6642C282.347 42.6614 282.347 42.6586 282.347 42.6559C282.347 42.6531 282.347 42.6503 282.347 42.6475C282.347 42.6448 282.347 42.642 282.347 42.6392C282.347 42.6364 282.347 42.6337 282.347 42.6309C282.347 42.6281 282.347 42.6253 282.347 42.6226C282.347 42.6198 282.347 42.617 282.347 42.6142C282.347 42.6115 282.347 42.6087 282.347 42.6059C282.347 42.6031 282.347 42.6004 282.347 42.5976C282.347 42.5948 282.347 42.592 282.347 42.5892C282.347 42.5865 282.347 42.5837 282.347 42.5809C282.347 42.5781 282.347 42.5754 282.347 42.5726C282.347 42.5698 282.347 42.567 282.347 42.5643C282.347 42.5615 282.347 42.5587 282.347 42.5559C282.347 42.5531 282.347 42.5504 282.347 42.5476C282.347 42.5448 282.347 42.542 282.347 42.5393C282.347 42.5365 282.347 42.5337 282.347 42.5309C282.347 42.5281 282.347 42.5254 282.347 42.5226C282.347 42.5198 282.347 42.517 282.347 42.5142C282.347 42.5115 282.347 42.5087 282.347 42.5059C282.347 42.5031 282.347 42.5003 282.347 42.4976C282.347 42.4948 282.347 42.492 282.347 42.4892C282.347 42.4864 282.347 42.4837 282.347 42.4809C282.347 42.4781 282.347 42.4753 282.347 42.4725C282.347 42.4698 282.347 42.467 282.347 42.4642C282.347 42.4614 282.347 42.4586 282.347 42.4559C282.347 42.4531 282.347 42.4503 282.347 42.4475C282.347 42.4447 282.347 42.442 282.347 42.4392C282.347 42.4364 282.347 42.4336 282.347 42.4308C282.347 42.428 282.347 42.4253 282.347 42.4225C282.347 42.4197 282.347 42.4169 282.347 42.4141C282.347 42.4113 282.347 42.4086 282.347 42.4058C282.347 42.403 282.347 42.4002 282.347 42.3974C282.347 42.3946 282.347 42.3919 282.347 42.3891C282.347 42.3863 282.347 42.3835 282.347 42.3807C282.347 42.3779 282.347 42.3752 282.347 42.3724C282.347 42.3696 282.347 42.3668 282.347 42.364C282.347 42.3612 282.347 42.3585 282.347 42.3557C282.347 42.3529 282.347 42.3501 282.347 42.3473C282.347 42.3445 282.347 42.3417 282.347 42.339C282.347 42.3362 282.347 42.3334 282.347 42.3306C282.347 42.3278 282.347 42.325 282.347 42.3222C282.347 42.3195 282.347 42.3167 282.347 42.3139C282.347 42.3111 282.347 42.3083 282.347 42.3055C282.347 42.3027 282.347 42.2999 282.347 42.2972C282.347 42.2944 282.347 42.2916 282.347 42.2888C282.347 42.286 282.347 42.2832 282.347 42.2804C282.347 42.2776 282.347 42.2749 282.347 42.2721C282.347 42.2693 282.347 42.2665 282.347 42.2637C282.347 42.2609 282.347 42.2581 282.347 42.2553C282.347 42.2525 282.347 42.2498 282.347 42.247C282.347 42.2442 282.347 42.2414 282.347 42.2386C282.347 42.2358 282.347 42.233 282.347 42.2302C282.347 42.2274 282.347 42.2247 282.347 42.2219C282.347 42.2191 282.347 42.2163 282.347 42.2135C282.347 42.2107 282.347 42.2079 282.347 42.2051C282.347 42.2023 282.347 42.1995 282.347 42.1968C282.347 42.194 282.347 42.1912 282.347 42.1884C282.347 42.1856 282.347 42.1828 282.347 42.18C282.347 42.1772 282.347 42.1744 282.347 42.1716C282.347 42.1688 282.347 42.166 282.347 42.1633C282.347 42.1605 282.347 42.1577 282.347 42.1549C282.347 42.1521 282.347 42.1493 282.347 42.1465C282.347 42.1437 282.347 42.1409 282.347 42.1381C282.347 42.1353 282.347 42.1325 282.347 42.1297C282.347 42.127 282.347 42.1242 282.347 42.1214C282.347 42.1186 282.347 42.1158 282.347 42.113C282.347 42.1102 282.347 42.1074 282.347 42.1046C282.347 42.1018 282.347 42.099 282.347 42.0962C282.347 42.0934 282.347 42.0906 282.347 42.0878C282.347 42.085 282.347 42.0822 282.347 42.0794C282.347 42.0767 282.347 42.0739 282.347 42.0711C282.347 42.0683 282.347 42.0655 282.347 42.0627C282.347 42.0599 282.347 42.0571 282.347 42.0543C282.347 42.0515 282.347 42.0487 282.347 42.0459C282.347 42.0431 282.347 42.0403 282.347 42.0375C282.347 42.0347 282.347 42.0319 282.347 42.0291C282.347 42.0263 282.347 42.0235 282.347 42.0207C282.347 42.0179 282.347 42.0151 282.347 42.0123C282.347 42.0095 282.347 42.0067 282.347 42.0039C282.347 42.0011 282.347 41.9983 282.347 41.9956C282.347 41.9928 282.347 41.99 282.347 41.9872C282.347 41.9844 282.347 41.9816 282.347 41.9788C282.347 41.976 282.347 41.9732 282.347 41.9704C282.347 41.9676 282.347 41.9648 282.347 41.962C282.347 41.9592 282.347 41.9564 282.347 41.9536C282.347 41.9508 282.347 41.948 282.347 41.9452C282.347 41.9424 282.347 41.9396 282.347 41.9368C282.347 41.934 282.347 41.9312 282.347 41.9284C282.347 41.9256 282.347 41.9228 282.347 41.92C282.347 41.9172 282.347 41.9144 282.347 41.9116C282.347 41.9088 282.347 41.906 282.347 41.9032C282.347 41.9004 282.347 41.8976 282.347 41.8948C282.347 41.8919 282.347 41.8891 282.347 41.8863C282.347 41.8835 282.347 41.8807 282.347 41.8779C282.347 41.8751 282.347 41.8723 282.347 41.8695C282.347 41.8667 282.347 41.8639 282.347 41.8611C282.347 41.8583 282.347 41.8555 282.347 41.8527C282.347 41.8499 282.347 41.8471 282.347 41.8443C282.347 41.8415 282.347 41.8387 282.347 41.8359C282.347 41.8331 282.347 41.8303 282.347 41.8275C282.347 41.8247 282.347 41.8219 282.347 41.8191C282.347 41.8163 282.347 41.8135 282.347 41.8107C282.347 41.8078 282.347 41.805 282.347 41.8022C282.347 41.7994 282.347 41.7966 282.347 41.7938C282.347 41.791 282.347 41.7882 282.347 41.7854C282.347 41.7826 282.347 41.7798 282.347 41.777C282.347 41.7742 282.347 41.7714 282.347 41.7686C282.347 41.7658 282.347 41.763 282.347 41.7601C282.347 41.7573 282.347 41.7545 282.347 41.7517C282.347 41.7489 282.347 41.7461 282.347 41.7433C282.347 41.7405 282.347 41.7377 282.347 41.7349C282.347 41.7321 282.347 41.7293 282.347 41.7265C282.347 41.7237 282.347 41.7208 282.347 41.718C282.347 41.7152 282.347 41.7124 282.347 41.7096C282.347 41.7068 282.347 41.704 282.347 41.7012C282.347 41.6984 282.347 41.6956 282.347 41.6928C282.347 41.6899 282.347 41.6871 282.347 41.6843C282.347 41.6815 282.347 41.6787 282.347 41.6759C282.347 41.6731 282.347 41.6703 282.347 41.6675C282.347 41.6647 282.347 41.6618 282.347 41.659C282.347 41.6562 282.347 41.6534 282.347 41.6506C282.347 41.6478 282.347 41.645 282.347 41.6422C282.347 41.6394 282.347 41.6366 282.347 41.6337C282.347 41.6309 282.347 41.6281 282.347 41.6253C282.347 41.6225 282.347 41.6197 282.347 41.6169C282.347 41.6141 282.347 41.6112 282.347 41.6084C282.347 41.6056 282.347 41.6028 282.347 41.6H280.347C280.347 41.6028 280.347 41.6056 280.347 41.6084C280.347 41.6112 280.347 41.6141 280.347 41.6169C280.347 41.6197 280.347 41.6225 280.347 41.6253C280.347 41.6281 280.347 41.6309 280.347 41.6337C280.347 41.6366 280.347 41.6394 280.347 41.6422C280.347 41.645 280.347 41.6478 280.347 41.6506C280.347 41.6534 280.347 41.6562 280.347 41.659C280.347 41.6618 280.347 41.6647 280.347 41.6675C280.347 41.6703 280.347 41.6731 280.347 41.6759C280.347 41.6787 280.347 41.6815 280.347 41.6843C280.347 41.6871 280.347 41.6899 280.347 41.6928C280.347 41.6956 280.347 41.6984 280.347 41.7012C280.347 41.704 280.347 41.7068 280.347 41.7096C280.347 41.7124 280.347 41.7152 280.347 41.718C280.347 41.7208 280.347 41.7237 280.347 41.7265C280.347 41.7293 280.347 41.7321 280.347 41.7349C280.347 41.7377 280.347 41.7405 280.347 41.7433C280.347 41.7461 280.347 41.7489 280.347 41.7517C280.347 41.7545 280.347 41.7573 280.347 41.7601C280.347 41.763 280.347 41.7658 280.347 41.7686C280.347 41.7714 280.347 41.7742 280.347 41.777C280.347 41.7798 280.347 41.7826 280.347 41.7854C280.347 41.7882 280.347 41.791 280.347 41.7938C280.347 41.7966 280.347 41.7994 280.347 41.8022C280.347 41.805 280.347 41.8078 280.347 41.8107C280.347 41.8135 280.347 41.8163 280.347 41.8191C280.347 41.8219 280.347 41.8247 280.347 41.8275C280.347 41.8303 280.347 41.8331 280.347 41.8359C280.347 41.8387 280.347 41.8415 280.347 41.8443C280.347 41.8471 280.347 41.8499 280.347 41.8527C280.347 41.8555 280.347 41.8583 280.347 41.8611C280.347 41.8639 280.347 41.8667 280.347 41.8695C280.347 41.8723 280.347 41.8751 280.347 41.8779C280.347 41.8807 280.347 41.8835 280.347 41.8863C280.347 41.8891 280.347 41.8919 280.347 41.8948C280.347 41.8976 280.347 41.9004 280.347 41.9032C280.347 41.906 280.347 41.9088 280.347 41.9116C280.347 41.9144 280.347 41.9172 280.347 41.92C280.347 41.9228 280.347 41.9256 280.347 41.9284C280.347 41.9312 280.347 41.934 280.347 41.9368C280.347 41.9396 280.347 41.9424 280.347 41.9452C280.347 41.948 280.347 41.9508 280.347 41.9536C280.347 41.9564 280.347 41.9592 280.347 41.962C280.347 41.9648 280.347 41.9676 280.347 41.9704C280.347 41.9732 280.347 41.976 280.347 41.9788C280.347 41.9816 280.347 41.9844 280.347 41.9872C280.347 41.99 280.347 41.9928 280.347 41.9956C280.347 41.9983 280.347 42.0011 280.347 42.0039C280.347 42.0067 280.347 42.0095 280.347 42.0123C280.347 42.0151 280.347 42.0179 280.347 42.0207C280.347 42.0235 280.347 42.0263 280.347 42.0291C280.347 42.0319 280.347 42.0347 280.347 42.0375C280.347 42.0403 280.347 42.0431 280.347 42.0459C280.347 42.0487 280.347 42.0515 280.347 42.0543C280.347 42.0571 280.347 42.0599 280.347 42.0627C280.347 42.0655 280.347 42.0683 280.347 42.0711C280.347 42.0739 280.347 42.0767 280.347 42.0794C280.347 42.0822 280.347 42.085 280.347 42.0878C280.347 42.0906 280.347 42.0934 280.347 42.0962C280.347 42.099 280.347 42.1018 280.347 42.1046C280.347 42.1074 280.347 42.1102 280.347 42.113C280.347 42.1158 280.347 42.1186 280.347 42.1214C280.347 42.1242 280.347 42.127 280.347 42.1297C280.347 42.1325 280.347 42.1353 280.347 42.1381C280.347 42.1409 280.347 42.1437 280.347 42.1465C280.347 42.1493 280.347 42.1521 280.347 42.1549C280.347 42.1577 280.347 42.1605 280.347 42.1633C280.347 42.166 280.347 42.1688 280.347 42.1716C280.347 42.1744 280.347 42.1772 280.347 42.18C280.347 42.1828 280.347 42.1856 280.347 42.1884C280.347 42.1912 280.347 42.194 280.347 42.1968C280.347 42.1995 280.347 42.2023 280.347 42.2051C280.347 42.2079 280.347 42.2107 280.347 42.2135C280.347 42.2163 280.347 42.2191 280.347 42.2219C280.347 42.2247 280.347 42.2274 280.347 42.2302C280.347 42.233 280.347 42.2358 280.347 42.2386C280.347 42.2414 280.347 42.2442 280.347 42.247C280.347 42.2498 280.347 42.2525 280.347 42.2553C280.347 42.2581 280.347 42.2609 280.347 42.2637C280.347 42.2665 280.347 42.2693 280.347 42.2721C280.347 42.2749 280.347 42.2776 280.347 42.2804C280.347 42.2832 280.347 42.286 280.347 42.2888C280.347 42.2916 280.347 42.2944 280.347 42.2972C280.347 42.2999 280.347 42.3027 280.347 42.3055C280.347 42.3083 280.347 42.3111 280.347 42.3139C280.347 42.3167 280.347 42.3195 280.347 42.3222C280.347 42.325 280.347 42.3278 280.347 42.3306C280.347 42.3334 280.347 42.3362 280.347 42.339C280.347 42.3417 280.347 42.3445 280.347 42.3473C280.347 42.3501 280.347 42.3529 280.347 42.3557C280.347 42.3585 280.347 42.3612 280.347 42.364C280.347 42.3668 280.347 42.3696 280.347 42.3724C280.347 42.3752 280.347 42.3779 280.347 42.3807C280.347 42.3835 280.347 42.3863 280.347 42.3891C280.347 42.3919 280.347 42.3946 280.347 42.3974C280.347 42.4002 280.347 42.403 280.347 42.4058C280.347 42.4086 280.347 42.4113 280.347 42.4141C280.347 42.4169 280.347 42.4197 280.347 42.4225C280.347 42.4253 280.347 42.428 280.347 42.4308C280.347 42.4336 280.347 42.4364 280.347 42.4392C280.347 42.442 280.347 42.4447 280.347 42.4475C280.347 42.4503 280.347 42.4531 280.347 42.4559C280.347 42.4586 280.347 42.4614 280.347 42.4642C280.347 42.467 280.347 42.4698 280.347 42.4725C280.347 42.4753 280.347 42.4781 280.347 42.4809C280.347 42.4837 280.347 42.4864 280.347 42.4892C280.347 42.492 280.347 42.4948 280.347 42.4976C280.347 42.5003 280.347 42.5031 280.347 42.5059C280.347 42.5087 280.347 42.5115 280.347 42.5142C280.347 42.517 280.347 42.5198 280.347 42.5226C280.347 42.5254 280.347 42.5281 280.347 42.5309C280.347 42.5337 280.347 42.5365 280.347 42.5393C280.347 42.542 280.347 42.5448 280.347 42.5476C280.347 42.5504 280.347 42.5531 280.347 42.5559C280.347 42.5587 280.347 42.5615 280.347 42.5643C280.347 42.567 280.347 42.5698 280.347 42.5726C280.347 42.5754 280.347 42.5781 280.347 42.5809C280.347 42.5837 280.347 42.5865 280.347 42.5892C280.347 42.592 280.347 42.5948 280.347 42.5976C280.347 42.6004 280.347 42.6031 280.347 42.6059C280.347 42.6087 280.347 42.6115 280.347 42.6142C280.347 42.617 280.347 42.6198 280.347 42.6226C280.347 42.6253 280.347 42.6281 280.347 42.6309C280.347 42.6337 280.347 42.6364 280.347 42.6392C280.347 42.642 280.347 42.6448 280.347 42.6475C280.347 42.6503 280.347 42.6531 280.347 42.6559C280.347 42.6586 280.347 42.6614 280.347 42.6642C280.347 42.667 280.347 42.6697 280.347 42.6725C280.347 42.6753 280.347 42.678 280.347 42.6808C280.347 42.6836 280.347 42.6864 280.347 42.6891C280.347 42.6919 280.347 42.6947 280.347 42.6975C280.347 42.7002 280.347 42.703 280.347 42.7058C280.347 42.7085 280.347 42.7113 280.347 42.7141C280.347 42.7169 280.347 42.7196 280.347 42.7224C280.347 42.7252 280.347 42.7279 280.347 42.7307C280.347 42.7335 280.347 42.7363 280.347 42.739C280.347 42.7418 280.347 42.7446 280.347 42.7473C280.347 42.7501 280.347 42.7529 280.347 42.7557C280.347 42.7584 280.347 42.7612 280.347 42.764C280.347 42.7667 280.347 42.7695 280.347 42.7723C280.347 42.775 280.347 42.7778 280.347 42.7806C280.347 42.7834 280.347 42.7861 280.347 42.7889C280.347 42.7917 280.347 42.7944 280.347 42.7972C280.347 42.8 280.347 42.8027 280.347 42.8055C280.347 42.8083 280.347 42.811 280.347 42.8138C280.347 42.8166 280.347 42.8193 280.347 42.8221C280.347 42.8249 280.347 42.8277 280.347 42.8304C280.347 42.8332 280.347 42.836 280.347 42.8387C280.347 42.8415 280.347 42.8443 280.347 42.847C280.347 42.8498 280.347 42.8526 280.347 42.8553C280.347 42.8581 280.347 42.8609 280.347 42.8636C280.347 42.8664 280.347 42.8692 280.347 42.8719C280.347 42.8747 280.347 42.8775 280.347 42.8802C280.347 42.883 280.347 42.8858 280.347 42.8885C280.347 42.8913 280.347 42.894 280.347 42.8968C280.347 42.8996 280.347 42.9023 280.347 42.9051C280.347 42.9079 280.347 42.9106 280.347 42.9134C280.347 42.9162 280.347 42.9189 280.347 42.9217C280.347 42.9245 280.347 42.9272 280.347 42.93C280.347 42.9328 280.347 42.9355 280.347 42.9383C280.347 42.941 280.347 42.9438 280.347 42.9466C280.347 42.9493 280.347 42.9521 280.347 42.9549C280.347 42.9576 280.347 42.9604 280.347 42.9631C280.347 42.9659 280.347 42.9687 280.347 42.9714C280.347 42.9742 280.347 42.977 280.347 42.9797C280.347 42.9825 280.347 42.9852 280.347 42.988C280.347 42.9908 280.347 42.9935 280.347 42.9963C280.347 42.9991 280.347 43.0018 280.347 43.0046C280.347 43.0073 280.347 43.0101 280.347 43.0129C280.347 43.0156 280.347 43.0184 280.347 43.0211C280.347 43.0239 280.347 43.0267 280.347 43.0294C280.347 43.0322 280.347 43.0349 280.347 43.0377C280.347 43.0405 280.347 43.0432 280.347 43.046C280.347 43.0487 280.347 43.0515 280.347 43.0543C280.347 43.057 280.347 43.0598 280.347 43.0625C280.347 43.0653 280.347 43.0681 280.347 43.0708C280.347 43.0736 280.347 43.0763 280.347 43.0791C280.347 43.0819 280.347 43.0846 280.347 43.0874C280.347 43.0901 280.347 43.0929 280.347 43.0956C280.347 43.0984 280.347 43.1012 280.347 43.1039C280.347 43.1067 280.347 43.1094 280.347 43.1122C280.347 43.1149 280.347 43.1177 280.347 43.1205C280.347 43.1232 280.347 43.126 280.347 43.1287C280.347 43.1315 280.347 43.1342 280.347 43.137C280.347 43.1398 280.347 43.1425 280.347 43.1453C280.347 43.148 280.347 43.1508 280.347 43.1535C280.347 43.1563 280.347 43.159 280.347 43.1618C280.347 43.1646 280.347 43.1673 280.347 43.1701C280.347 43.1728 280.347 43.1756 280.347 43.1783C280.347 43.1811 280.347 43.1838 280.347 43.1866C280.347 43.1894 280.347 43.1921 280.347 43.1949C280.347 43.1976 280.347 43.2004 280.347 43.2031C280.347 43.2059 280.347 43.2086 280.347 43.2114C280.347 43.2141 280.347 43.2169 280.347 43.2196C280.347 43.2224 280.347 43.2252 280.347 43.2279C280.347 43.2307 280.347 43.2334 280.347 43.2362C280.347 43.2389 280.347 43.2417 280.347 43.2444C280.347 43.2472 280.347 43.2499 280.347 43.2527C280.347 43.2554 280.347 43.2582 280.347 43.2609C280.347 43.2637 280.347 43.2664 280.347 43.2692C280.347 43.2719 280.347 43.2747 280.347 43.2774C280.347 43.2802 280.347 43.2829 280.347 43.2857C280.347 43.2884 280.347 43.2912 280.347 43.2939C280.347 43.2967 280.347 43.2994 280.347 43.3022C280.347 43.3049 280.347 43.3077 280.347 43.3104C280.347 43.3132 280.347 43.3159 280.347 43.3187C280.347 43.3214 280.347 43.3242 280.347 43.3269C280.347 43.3297 280.347 43.3324 280.347 43.3352C280.347 43.3379 280.347 43.3407 280.347 43.3434C280.347 43.3462 280.347 43.3489 280.347 43.3517C280.347 43.3544 280.347 43.3572 280.347 43.3599C280.347 43.3627 280.347 43.3654 280.347 43.3682C280.347 43.3709 280.347 43.3737 280.347 43.3764C280.347 43.3792 280.347 43.3819 280.347 43.3847C280.347 43.3874 280.347 43.3902 280.347 43.3929C280.347 43.3956 280.347 43.3984 280.347 43.4011C280.347 43.4039 280.347 43.4066 280.347 43.4094C280.347 43.4121 280.347 43.4149 280.347 43.4176C280.347 43.4204 280.347 43.4231 280.347 43.4259C280.347 43.4286 280.347 43.4313 280.347 43.4341C280.347 43.4368 280.347 43.4396 280.347 43.4423C280.347 43.4451 280.347 43.4478 280.347 43.4506C280.347 43.4533 280.347 43.4561 280.347 43.4588C280.347 43.4615 280.347 43.4643 280.347 43.467C280.347 43.4698 280.347 43.4725 280.347 43.4753C280.347 43.478 280.347 43.4807 280.347 43.4835C280.347 43.4862 280.347 43.489 280.347 43.4917C280.347 43.4945 280.347 43.4972 280.347 43.5C280.347 43.5027 280.347 43.5054 280.347 43.5082C280.347 43.5109 280.347 43.5137 280.347 43.5164C280.347 43.5191 280.347 43.5219 280.347 43.5246C280.347 43.5274 280.347 43.5301 280.347 43.5329C280.347 43.5356 280.347 43.5383 280.347 43.5411C280.347 43.5438 280.347 43.5466 280.347 43.5493C280.347 43.552 280.347 43.5548 280.347 43.5575C280.347 43.5603 280.347 43.563 280.347 43.5658C280.347 43.5685 280.347 43.5712 280.347 43.574C280.347 43.5767 280.347 43.5795 280.347 43.5822C280.347 43.5849 280.347 43.5877 280.347 43.5904C280.347 43.5932 280.347 43.5959 280.347 43.5986C280.347 43.6014 280.347 43.6041 280.347 43.6068C280.347 43.6096 280.347 43.6123 280.347 43.6151C280.347 43.6178 280.347 43.6205 280.347 43.6233C280.347 43.626 280.347 43.6288 280.347 43.6315C280.347 43.6342 280.347 43.637 280.347 43.6397C280.347 43.6424 280.347 43.6452 280.347 43.6479C280.347 43.6507 280.347 43.6534 280.347 43.6561C280.347 43.6589 280.347 43.6616 280.347 43.6643C280.347 43.6671 280.347 43.6698 280.347 43.6726C280.347 43.6753 280.347 43.678 280.347 43.6808C280.347 43.6835 280.347 43.6862 280.347 43.689C280.347 43.6917 280.347 43.6944 280.347 43.6972C280.347 43.6999 280.347 43.7026 280.347 43.7054C280.347 43.7081 280.347 43.7109 280.347 43.7136C280.347 43.7163 280.347 43.7191 280.347 43.7218C280.347 43.7245 280.347 43.7273 280.347 43.73C280.347 43.7327 280.347 43.7355 280.347 43.7382C280.347 43.7409 280.347 43.7437 280.347 43.7464C280.347 43.7491 280.347 43.7519 280.347 43.7546C280.347 43.7573 280.347 43.7601 280.347 43.7628C280.347 43.7655 280.347 43.7683 280.347 43.771C280.347 43.7737 280.347 43.7765 280.347 43.7792C280.347 43.7819 280.347 43.7847 280.347 43.7874C280.347 43.7901 280.347 43.7929 280.347 43.7956C280.347 43.7983 280.347 43.8011 280.347 43.8038C280.347 43.8065 280.347 43.8093 280.347 43.812C280.347 43.8147 280.347 43.8174 280.347 43.8202C280.347 43.8229 280.347 43.8256 280.347 43.8284C280.347 43.8311 280.347 43.8338 280.347 43.8366C280.347 43.8393 280.347 43.842 280.347 43.8448C280.347 43.8475 280.347 43.8502 280.347 43.8529C280.347 43.8557 280.347 43.8584 280.347 43.8611C280.347 43.8639 280.347 43.8666 280.347 43.8693C280.347 43.872 280.347 43.8748 280.347 43.8775C280.347 43.8802 280.347 43.883 280.347 43.8857C280.347 43.8884 280.347 43.8911 280.347 43.8939C280.347 43.8966 280.347 43.8993 280.347 43.9021C280.347 43.9048 280.347 43.9075 280.347 43.9102C280.347 43.913 280.347 43.9157 280.347 43.9184C280.347 43.9212 280.347 43.9239 280.347 43.9266C280.347 43.9293 280.347 43.9321 280.347 43.9348C280.347 43.9375 280.347 43.9402 280.347 43.943C280.347 43.9457 280.347 43.9484 280.347 43.9511C280.347 43.9539 280.347 43.9566 280.347 43.9593C280.347 43.9621 280.347 43.9648 280.347 43.9675C280.347 43.9702 280.347 43.973 280.347 43.9757C280.347 43.9784 280.347 43.9811 280.347 43.9839C280.347 43.9866 280.347 43.9893 280.347 43.992C280.347 43.9948 280.347 43.9975 280.347 44.0002C280.347 44.0029 280.347 44.0057 280.347 44.0084C280.347 44.0111 280.347 44.0138 280.347 44.0165C280.347 44.0193 280.347 44.022 280.347 44.0247C280.347 44.0274 280.347 44.0302 280.347 44.0329C280.347 44.0356 280.347 44.0383 280.347 44.0411C280.347 44.0438 280.347 44.0465 280.347 44.0492C280.347 44.0519 280.347 44.0547 280.347 44.0574C280.347 44.0601 280.347 44.0628 280.347 44.0656C280.347 44.0683 280.347 44.071 280.347 44.0737C280.347 44.0764 280.347 44.0792 280.347 44.0819C280.347 44.0846 280.347 44.0873 280.347 44.09C280.347 44.0928 280.347 44.0955 280.347 44.0982C280.347 44.1009 280.347 44.1037 280.347 44.1064C280.347 44.1091 280.347 44.1118 280.347 44.1145C280.347 44.1173 280.347 44.12 280.347 44.1227C280.347 44.1254 280.347 44.1281 280.347 44.1309C280.347 44.1336 280.347 44.1363 280.347 44.139C280.347 44.1417 280.347 44.1444 280.347 44.1472C280.347 44.1499 280.347 44.1526 280.347 44.1553C280.347 44.158 280.347 44.1608 280.347 44.1635C280.347 44.1662 280.347 44.1689 280.347 44.1716C280.347 44.1743 280.347 44.1771 280.347 44.1798C280.347 44.1825 280.347 44.1852 280.347 44.1879C280.347 44.1907 280.347 44.1934 280.347 44.1961C280.347 44.1988 280.347 44.2015 280.347 44.2042C280.347 44.207 280.347 44.2097 280.347 44.2124C280.347 44.2151 280.347 44.2178 280.347 44.2205C280.347 44.2233 280.347 44.226 280.347 44.2287C280.347 44.2314 280.347 44.2341 280.347 44.2368C280.347 44.2395 280.347 44.2423 280.347 44.245C280.347 44.2477 280.347 44.2504 280.347 44.2531C280.347 44.2558 280.347 44.2586 280.347 44.2613C280.347 44.264 280.347 44.2667 280.347 44.2694C280.347 44.2721 280.347 44.2748 280.347 44.2776C280.347 44.2803 280.347 44.283 280.347 44.2857C280.347 44.2884 280.347 44.2911 280.347 44.2938C280.347 44.2965 280.347 44.2993 280.347 44.302C280.347 44.3047 280.347 44.3074 280.347 44.3101C280.347 44.3128 280.347 44.3155 280.347 44.3182C280.347 44.321 280.347 44.3237 280.347 44.3264C280.347 44.3291 280.347 44.3318 280.347 44.3345C280.347 44.3372 280.347 44.3399 280.347 44.3427C280.347 44.3454 280.347 44.3481 280.347 44.3508C280.347 44.3535 280.347 44.3562 280.347 44.3589C280.347 44.3616 280.347 44.3643 280.347 44.3671C280.347 44.3698 280.347 44.3725 280.347 44.3752C280.347 44.3779 280.347 44.3806 280.347 44.3833C280.347 44.386 280.347 44.3887 280.347 44.3914C280.347 44.3942 280.347 44.3969 280.347 44.3996C280.347 44.4023 280.347 44.405 280.347 44.4077C280.347 44.4104 280.347 44.4131 280.347 44.4158C280.347 44.4185 280.347 44.4212 280.347 44.424C280.347 44.4267 280.347 44.4294 280.347 44.4321C280.347 44.4348 280.347 44.4375 280.347 44.4402C280.347 44.4429 280.347 44.4456 280.347 44.4483C280.347 44.451 280.347 44.4537 280.347 44.4565C280.347 44.4592 280.347 44.4619 280.347 44.4646C280.347 44.4673 280.347 44.47 280.347 44.4727C280.347 44.4754 280.347 44.4781 280.347 44.4808C280.347 44.4835 280.347 44.4862 280.347 44.4889C280.347 44.4916 280.347 44.4943 280.347 44.497C280.347 44.4998 280.347 44.5025 280.347 44.5052C280.347 44.5079 280.347 44.5106 280.347 44.5133C280.347 44.516 280.347 44.5187 280.347 44.5214C280.347 44.5241 280.347 44.5268 280.347 44.5295C280.347 44.5322 280.347 44.5349 280.347 44.5376C280.347 44.5403 280.347 44.543 280.347 44.5457C280.347 44.5484 280.347 44.5511 280.347 44.5538C280.347 44.5565 280.347 44.5593 280.347 44.562C280.347 44.5647 280.347 44.5674 280.347 44.5701C280.347 44.5728 280.347 44.5755 280.347 44.5782C280.347 44.5809 280.347 44.5836 280.347 44.5863C280.347 44.589 280.347 44.5917 280.347 44.5944C280.347 44.5971 280.347 44.5998 280.347 44.6025C280.347 44.6052 280.347 44.6079 280.347 44.6106C280.347 44.6133 280.347 44.616 280.347 44.6187C280.347 44.6214 280.347 44.6241 280.347 44.6268C280.347 44.6295 280.347 44.6322 280.347 44.6349C280.347 44.6376 280.347 44.6403 280.347 44.643C280.347 44.6457 280.347 44.6484 280.347 44.6511C280.347 44.6538 280.347 44.6565 280.347 44.6592C280.347 44.6619 280.347 44.6646 280.347 44.6673C280.347 44.67 280.347 44.6727 280.347 44.6754C280.347 44.6781 280.347 44.6808 280.347 44.6835C280.347 44.6862 280.347 44.6889 280.347 44.6916C280.347 44.6943 280.347 44.697 280.347 44.6997C280.347 44.7024 280.347 44.7051 280.347 44.7078C280.347 44.7105 280.347 44.7132 280.347 44.7159C280.347 44.7186 280.347 44.7213 280.347 44.724C280.347 44.7267 280.347 44.7294 280.347 44.7321C280.347 44.7348 280.347 44.7375 280.347 44.7401C280.347 44.7428 280.347 44.7455 280.347 44.7482C280.347 44.7509 280.347 44.7536 280.347 44.7563C280.347 44.759 280.347 44.7617 280.347 44.7644C280.347 44.7671 280.347 44.7698 280.347 44.7725C280.347 44.7752 280.347 44.7779 280.347 44.7806C280.347 44.7833 280.347 44.786 280.347 44.7887C280.347 44.7914 280.347 44.7941 280.347 44.7968C280.347 44.7994 280.347 44.8021 280.347 44.8048C280.347 44.8075 280.347 44.8102 280.347 44.8129C280.347 44.8156 280.347 44.8183 280.347 44.821C280.347 44.8237 280.347 44.8264 280.347 44.8291C280.347 44.8318 280.347 44.8345 280.347 44.8372C280.347 44.8398 280.347 44.8425 280.347 44.8452C280.347 44.8479 280.347 44.8506 280.347 44.8533C280.347 44.856 280.347 44.8587 280.347 44.8614C280.347 44.8641 280.347 44.8668 280.347 44.8695C280.347 44.8722 280.347 44.8748 280.347 44.8775C280.347 44.8802 280.347 44.8829 280.347 44.8856C280.347 44.8883 280.347 44.891 280.347 44.8937C280.347 44.8964 280.347 44.8991 280.347 44.9018C280.347 44.9044 280.347 44.9071 280.347 44.9098C280.347 44.9125 280.347 44.9152 280.347 44.9179C280.347 44.9206 280.347 44.9233 280.347 44.926C280.347 44.9287 280.347 44.9313 280.347 44.934C280.347 44.9367 280.347 44.9394 280.347 44.9421C280.347 44.9448 280.347 44.9475 280.347 44.9502C280.347 44.9529 280.347 44.9555 280.347 44.9582C280.347 44.9609 280.347 44.9636 280.347 44.9663C280.347 44.969 280.347 44.9717 280.347 44.9744C280.347 44.977 280.347 44.9797 280.347 44.9824C280.347 44.9851 280.347 44.9878 280.347 44.9905C280.347 44.9932 280.347 44.9959 280.347 44.9985C280.347 45.0012 280.347 45.0039 280.347 45.0066C280.347 45.0093 280.347 45.012 280.347 45.0147C280.347 45.0174 280.347 45.02 280.347 45.0227C280.347 45.0254 280.347 45.0281 280.347 45.0308C280.347 45.0335 280.347 45.0362 280.347 45.0388C280.347 45.0415 280.347 45.0442 280.347 45.0469C280.347 45.0496 280.347 45.0523 280.347 45.0549C280.347 45.0576 280.347 45.0603 280.347 45.063C280.347 45.0657 280.347 45.0684 280.347 45.0711C280.347 45.0737 280.347 45.0764 280.347 45.0791C280.347 45.0818 280.347 45.0845 280.347 45.0872C280.347 45.0898 280.347 45.0925 280.347 45.0952C280.347 45.0979 280.347 45.1006 280.347 45.1033C280.347 45.1059 280.347 45.1086 280.347 45.1113C280.347 45.114 280.347 45.1167 280.347 45.1193C280.347 45.122 280.347 45.1247 280.347 45.1274C280.347 45.1301 280.347 45.1328 280.347 45.1354C280.347 45.1381 280.347 45.1408 280.347 45.1435C280.347 45.1462 280.347 45.1488 280.347 45.1515C280.347 45.1542 280.347 45.1569 280.347 45.1596C280.347 45.1622 280.347 45.1649 280.347 45.1676C280.347 45.1703 280.347 45.173 280.347 45.1757C280.347 45.1783 280.347 45.181 280.347 45.1837C280.347 45.1864 280.347 45.189 280.347 45.1917C280.347 45.1944 280.347 45.1971 280.347 45.1998C280.347 45.2024 280.347 45.2051 280.347 45.2078C280.347 45.2105 280.347 45.2132 280.347 45.2158C280.347 45.2185 280.347 45.2212 280.347 45.2239C280.347 45.2266 280.347 45.2292 280.347 45.2319C280.347 45.2346 280.347 45.2373 280.347 45.2399C280.347 45.2426 280.347 45.2453 280.347 45.248C280.347 45.2507 280.347 45.2533 280.347 45.256C280.347 45.2587 280.347 45.2614 280.347 45.264C280.347 45.2667 280.347 45.2694 280.347 45.2721C280.347 45.2747 280.347 45.2774 280.347 45.2801C280.347 45.2828 280.347 45.2854 280.347 45.2881C280.347 45.2908 280.347 45.2935 280.347 45.2962C280.347 45.2988 280.347 45.3015 280.347 45.3042C280.347 45.3069 280.347 45.3095 280.347 45.3122C280.347 45.3149 280.347 45.3176 280.347 45.3202C280.347 45.3229 280.347 45.3256 280.347 45.3282C280.347 45.3309 280.347 45.3336 280.347 45.3363C280.347 45.3389 280.347 45.3416 280.347 45.3443C280.347 45.347 280.347 45.3496 280.347 45.3523C280.347 45.355 280.347 45.3577 280.347 45.3603C280.347 45.363 280.347 45.3657 280.347 45.3684C280.347 45.371 280.347 45.3737 280.347 45.3764C280.347 45.379 280.347 45.3817 280.347 45.3844C280.347 45.3871 280.347 45.3897 280.347 45.3924C280.347 45.3951 280.347 45.3977 280.347 45.4004C280.347 45.4031 280.347 45.4058 280.347 45.4084C280.347 45.4111 280.347 45.4138 280.347 45.4164C280.347 45.4191 280.347 45.4218 280.347 45.4245C280.347 45.4271 280.347 45.4298 280.347 45.4325C280.347 45.4351 280.347 45.4378 280.347 45.4405C280.347 45.4431 280.347 45.4458 280.347 45.4485C280.347 45.4512 280.347 45.4538 280.347 45.4565C280.347 45.4592 280.347 45.4618 280.347 45.4645C280.347 45.4672 280.347 45.4698 280.347 45.4725C280.347 45.4752 280.347 45.4778 280.347 45.4805C280.347 45.4832 280.347 45.4859 280.347 45.4885C280.347 45.4912 280.347 45.4939 280.347 45.4965C280.347 45.4992 280.347 45.5019 280.347 45.5045C280.347 45.5072 280.347 45.5099 280.347 45.5125C280.347 45.5152 280.347 45.5179 280.347 45.5205C280.347 45.5232 280.347 45.5259 280.347 45.5285C280.347 45.5312 280.347 45.5339 280.347 45.5365C280.347 45.5392 280.347 45.5419 280.347 45.5445C280.347 45.5472 280.347 45.5499 280.347 45.5525C280.347 45.5552 280.347 45.5579 280.347 45.5605C280.347 45.5632 280.347 45.5659 280.347 45.5685C280.347 45.5712 280.347 45.5739 280.347 45.5765C280.347 45.5792 280.347 45.5818 280.347 45.5845C280.347 45.5872 280.347 45.5898 280.347 45.5925C280.347 45.5952 280.347 45.5978 280.347 45.6005C280.347 45.6032 280.347 45.6058 280.347 45.6085C280.347 45.6111 280.347 45.6138 280.347 45.6165C280.347 45.6191 280.347 45.6218 280.347 45.6245C280.347 45.6271 280.347 45.6298 280.347 45.6325C280.347 45.6351 280.347 45.6378 280.347 45.6404C280.347 45.6431 280.347 45.6458 280.347 45.6484C280.347 45.6511 280.347 45.6538 280.347 45.6564C280.347 45.6591 280.347 45.6617 280.347 45.6644C280.347 45.6671 280.347 45.6697 280.347 45.6724C280.347 45.675 280.347 45.6777 280.347 45.6804C280.347 45.683 280.347 45.6857 280.347 45.6883C280.347 45.691 280.347 45.6937 280.347 45.6963C280.347 45.699 280.347 45.7016 280.347 45.7043C280.347 45.707 280.347 45.7096 280.347 45.7123C280.347 45.7149 280.347 45.7176 280.347 45.7203C280.347 45.7229 280.347 45.7256 280.347 45.7282C280.347 45.7309 280.347 45.7336 280.347 45.7362C280.347 45.7389 280.347 45.7415 280.347 45.7442C280.347 45.7469 280.347 45.7495 280.347 45.7522C280.347 45.7548 280.347 45.7575 280.347 45.7601C280.347 45.7628 280.347 45.7655 280.347 45.7681C280.347 45.7708 280.347 45.7734 280.347 45.7761C280.347 45.7787 280.347 45.7814 280.347 45.7841C280.347 45.7867 280.347 45.7894 280.347 45.792C280.347 45.7947 280.347 45.7973 280.347 45.8H282.347ZM282.347 41.6C282.347 40.0271 282.223 38.455 281.975 36.884L279.999 37.196C280.231 38.665 280.347 40.1329 280.347 41.6H282.347ZM280.345 37.8069L286.225 42.7269L287.509 41.1931L281.629 36.2731L280.345 37.8069ZM285.968 41.5225C284.583 44.3695 282.783 46.7379 280.574 48.6426L281.88 50.1574C284.31 48.0621 286.271 45.4705 287.766 42.3975L285.968 41.5225ZM280.574 48.6426C278.36 50.5514 275.756 52.0095 272.751 53.0113L273.383 54.9087C276.618 53.8305 279.454 52.2486 281.88 50.1574L280.574 48.6426ZM272.751 53.0113C269.752 54.0109 266.302 54.52 262.387 54.52V56.52C266.472 56.52 270.142 55.9891 273.383 54.9087L272.751 53.0113ZM262.387 54.52C257.248 54.52 252.56 53.4699 248.308 51.3823L247.426 53.1777C251.974 55.4101 256.966 56.52 262.387 56.52V54.52ZM248.327 51.3922C244.151 49.2269 240.8 46.2583 238.256 42.4814L236.597 43.5986C239.334 47.6617 242.942 50.853 247.407 53.1678L248.327 51.3922ZM238.261 42.4892C235.742 38.6716 234.467 34.1882 234.467 29H232.467C232.467 34.5318 233.832 39.4084 236.592 43.5908L238.261 42.4892ZM234.467 29C234.467 23.3372 235.899 18.5033 238.727 14.4524L237.087 13.3076C233.995 17.7367 232.467 22.9828 232.467 29H234.467ZM238.732 14.4452C241.586 10.2794 245.405 7.07375 250.211 4.82581L249.363 3.01419C244.249 5.40625 240.148 8.84059 237.082 13.3148L238.732 14.4452ZM250.222 4.82016C255.033 2.49241 260.402 1.31999 266.347 1.31999V-0.680006C260.132 -0.680006 254.461 0.547579 249.351 3.01984L250.222 4.82016ZM267.907 16.24C265.534 16.24 263.41 16.7067 261.563 17.6742L262.491 19.4458C264.004 18.6533 265.799 18.24 267.907 18.24V16.24ZM261.563 17.6742C259.73 18.6343 258.241 19.9921 257.108 21.735L258.785 22.825C259.732 21.3679 260.964 20.2457 262.491 19.4458L261.563 17.6742ZM257.101 21.746C256.018 23.461 255.507 25.5373 255.507 27.92H257.507C257.507 25.8226 257.955 24.139 258.792 22.814L257.101 21.746ZM255.507 27.92C255.507 31.3589 256.636 34.1998 258.949 36.3348L260.305 34.8652C258.458 33.1602 257.507 30.8811 257.507 27.92H255.507ZM258.963 36.3474C261.339 38.46 264.391 39.48 268.027 39.48V37.48C264.783 37.48 262.235 36.5799 260.291 34.8526L258.963 36.3474ZM268.027 39.48C270.474 39.48 272.672 39.0152 274.594 38.0544L273.7 36.2656C272.101 37.0648 270.219 37.48 268.027 37.48V39.48ZM274.594 38.0544C276.514 37.0942 278.021 35.7267 279.084 33.9545L277.369 32.9255C276.513 34.3533 275.299 35.4658 273.7 36.2656L274.594 38.0544ZM279.084 33.9545C280.151 32.176 280.667 30.1122 280.667 27.8H278.667C278.667 29.8078 278.222 31.504 277.369 32.9255L279.084 33.9545ZM280.667 27.8C280.667 25.5613 280.148 23.5696 279.072 21.866L277.381 22.934C278.225 24.2704 278.667 25.8787 278.667 27.8H280.667ZM279.084 21.8855C278.021 20.1133 276.514 18.7458 274.594 17.7856L273.7 19.5744C275.299 20.3742 276.513 21.4867 277.369 22.9145L279.084 21.8855ZM274.626 17.8021C272.692 16.7476 270.441 16.24 267.907 16.24V18.24C270.172 18.24 272.081 18.6924 273.668 19.5579L274.626 17.8021ZM331.437 82.52L330.908 83.3687L330.913 83.3721L331.437 82.52ZM318.357 67.64L317.46 68.0828L317.46 68.0828L318.357 67.64ZM318.357 20.36L317.46 19.9172L317.46 19.9172L318.357 20.36ZM331.437 5.48L330.913 4.62791L330.908 4.63131L331.437 5.48ZM369.597 5.48L369.068 6.32871L369.073 6.33208L369.597 5.48ZM382.797 20.36L381.9 20.8028L381.9 20.8028L382.797 20.36ZM382.797 67.64L381.9 67.1972L381.9 67.1972L382.797 67.64ZM369.597 82.52L369.073 81.6679L369.068 81.6713L369.597 82.52ZM357.357 65.84L356.732 65.0591L356.724 65.0654L356.716 65.0718L357.357 65.84ZM362.037 58.16L362.99 58.4632L362.991 58.4571L362.037 58.16ZM357.357 22.16L356.716 22.9282L356.724 22.9346L356.732 22.9409L357.357 22.16ZM343.797 22.16L343.172 21.3791L343.164 21.3854L343.156 21.3918L343.797 22.16ZM339.117 29.84L338.17 29.5173L338.167 29.527L338.164 29.5368L339.117 29.84ZM339.117 58.16L338.162 58.4571L338.166 58.4699L338.17 58.4827L339.117 58.16ZM343.797 65.84L343.156 66.6082L343.164 66.6146L343.172 66.6209L343.797 65.84ZM350.637 86.68C343.603 86.68 337.388 85.0021 331.96 81.6679L330.913 83.3721C336.685 86.9179 343.27 88.68 350.637 88.68V86.68ZM331.965 81.6713C326.621 78.3405 322.38 73.5295 319.253 67.1972L317.46 68.0828C320.733 74.7105 325.213 79.8195 330.908 83.3687L331.965 81.6713ZM319.253 67.1972C316.138 60.8883 314.557 53.1686 314.557 44H312.557C312.557 53.3914 314.175 61.4317 317.46 68.0828L319.253 67.1972ZM314.557 44C314.557 34.8314 316.138 27.1117 319.253 20.8028L317.46 19.9172C314.175 26.5683 312.557 34.6086 312.557 44H314.557ZM319.253 20.8028C322.38 14.4705 326.621 9.65954 331.965 6.32869L330.908 4.63131C325.213 8.18045 320.733 13.2894 317.46 19.9172L319.253 20.8028ZM331.96 6.33208C337.388 2.99792 343.603 1.31999 350.637 1.31999V-0.680006C343.27 -0.680006 336.685 1.08207 330.913 4.62792L331.96 6.33208ZM350.637 1.31999C357.588 1.31999 363.721 2.99685 369.068 6.32869L370.125 4.63131C364.432 1.08315 357.925 -0.680006 350.637 -0.680006V1.31999ZM369.073 6.33208C374.497 9.66381 378.775 14.4742 381.9 20.8028L383.693 19.9172C380.418 13.2858 375.896 8.17619 370.12 4.62792L369.073 6.33208ZM381.9 20.8028C385.015 27.1117 386.597 34.8314 386.597 44H388.597C388.597 34.6086 386.978 26.5683 383.693 19.9172L381.9 20.8028ZM386.597 44C386.597 53.1686 385.015 60.8883 381.9 67.1972L383.693 68.0828C386.978 61.4317 388.597 53.3914 388.597 44H386.597ZM381.9 67.1972C378.775 73.5258 374.497 78.3362 369.073 81.6679L370.12 83.3721C375.896 79.8238 380.418 74.7142 383.693 68.0828L381.9 67.1972ZM369.068 81.6713C363.721 85.0032 357.588 86.68 350.637 86.68V88.68C357.925 88.68 364.432 86.9168 370.125 83.3687L369.068 81.6713ZM350.637 69.24C353.424 69.24 355.892 68.3619 357.997 66.6082L356.716 65.0718C354.981 66.5181 352.969 67.24 350.637 67.24V69.24ZM357.981 66.6209C360.19 64.8542 361.835 62.0921 362.989 58.4632L361.084 57.8568C359.998 61.2679 358.524 63.6258 356.732 65.0591L357.981 66.6209ZM362.991 58.4571C364.153 54.7233 364.717 49.8919 364.717 44H362.717C362.717 49.7881 362.16 54.3967 361.082 57.8629L362.991 58.4571ZM364.717 44C364.717 38.0312 364.154 33.1957 362.989 29.5368L361.084 30.1432C362.159 33.5243 362.717 38.1288 362.717 44H364.717ZM362.989 29.5368C361.835 25.9079 360.19 23.1458 357.981 21.3791L356.732 22.9409C358.524 24.3742 359.998 26.7321 361.084 30.1432L362.989 29.5368ZM357.997 21.3918C355.892 19.6381 353.424 18.76 350.637 18.76V20.76C352.969 20.76 354.981 21.4819 356.716 22.9282L357.997 21.3918ZM350.637 18.76C347.849 18.76 345.349 19.6374 343.172 21.3791L344.421 22.9409C346.244 21.4826 348.304 20.76 350.637 20.76V18.76ZM343.156 21.3918C341.043 23.1533 339.402 25.9026 338.17 29.5173L340.063 30.1627C341.231 26.7373 342.711 24.3667 344.437 22.9282L343.156 21.3918ZM338.164 29.5368C336.999 33.1957 336.437 38.0312 336.437 44H338.437C338.437 38.1288 338.994 33.5243 340.069 30.1432L338.164 29.5368ZM336.437 44C336.437 49.8919 337 54.7233 338.162 58.4571L340.071 57.8629C338.993 54.3967 338.437 49.7881 338.437 44H336.437ZM338.17 58.4827C339.402 62.0973 341.043 64.8467 343.156 66.6082L344.437 65.0718C342.711 63.6333 341.231 61.2626 340.063 57.8373L338.17 58.4827ZM343.172 66.6209C345.349 68.3626 347.849 69.24 350.637 69.24V67.24C348.304 67.24 346.244 66.5174 344.421 65.0591L343.172 66.6209ZM413.585 82.52L413.056 83.3687L413.062 83.3721L413.585 82.52ZM400.505 67.64L399.608 68.0828L399.608 68.0828L400.505 67.64ZM400.505 20.36L399.608 19.9172L399.608 19.9172L400.505 20.36ZM413.585 5.48L413.062 4.62791L413.056 4.63131L413.585 5.48ZM451.745 5.48L451.216 6.32871L451.222 6.33208L451.745 5.48ZM464.945 20.36L464.048 20.8028L464.048 20.8028L464.945 20.36ZM464.945 67.64L464.048 67.1972L464.048 67.1972L464.945 67.64ZM451.745 82.52L451.222 81.6679L451.216 81.6713L451.745 82.52ZM439.505 65.84L438.88 65.0591L438.872 65.0654L438.865 65.0718L439.505 65.84ZM444.185 58.16L445.138 58.4632L445.14 58.4571L444.185 58.16ZM439.505 22.16L438.865 22.9282L438.872 22.9346L438.88 22.9409L439.505 22.16ZM425.945 22.16L425.32 21.3791L425.312 21.3854L425.305 21.3918L425.945 22.16ZM421.265 29.84L420.318 29.5173L420.315 29.527L420.312 29.5368L421.265 29.84ZM421.265 58.16L420.31 58.4571L420.314 58.4699L420.318 58.4827L421.265 58.16ZM425.945 65.84L425.305 66.6082L425.312 66.6146L425.32 66.6209L425.945 65.84ZM432.785 86.68C425.752 86.68 419.536 85.0021 414.108 81.6679L413.062 83.3721C418.834 86.9179 425.418 88.68 432.785 88.68V86.68ZM414.114 81.6713C408.769 78.3405 404.529 73.5295 401.402 67.1972L399.608 68.0828C402.881 74.7105 407.361 79.8195 413.056 83.3687L414.114 81.6713ZM401.402 67.1972C398.286 60.8883 396.705 53.1686 396.705 44H394.705C394.705 53.3914 396.324 61.4317 399.608 68.0828L401.402 67.1972ZM396.705 44C396.705 34.8314 398.286 27.1117 401.402 20.8028L399.608 19.9172C396.324 26.5683 394.705 34.6086 394.705 44H396.705ZM401.402 20.8028C404.529 14.4705 408.769 9.65954 414.114 6.32869L413.056 4.63131C407.361 8.18045 402.881 13.2894 399.608 19.9172L401.402 20.8028ZM414.108 6.33208C419.536 2.99792 425.752 1.31999 432.785 1.31999V-0.680006C425.418 -0.680006 418.834 1.08207 413.062 4.62792L414.108 6.33208ZM432.785 1.31999C439.736 1.31999 445.87 2.99685 451.216 6.32869L452.274 4.63131C446.58 1.08315 440.074 -0.680006 432.785 -0.680006V1.31999ZM451.222 6.33208C456.645 9.66381 460.923 14.4742 464.048 20.8028L465.842 19.9172C462.567 13.2858 458.045 8.17619 452.268 4.62792L451.222 6.33208ZM464.048 20.8028C467.164 27.1117 468.745 34.8314 468.745 44H470.745C470.745 34.6086 469.126 26.5683 465.842 19.9172L464.048 20.8028ZM468.745 44C468.745 53.1686 467.164 60.8883 464.048 67.1972L465.842 68.0828C469.126 61.4317 470.745 53.3914 470.745 44H468.745ZM464.048 67.1972C460.923 73.5258 456.645 78.3362 451.222 81.6679L452.268 83.3721C458.045 79.8238 462.567 74.7142 465.842 68.0828L464.048 67.1972ZM451.216 81.6713C445.87 85.0032 439.736 86.68 432.785 86.68V88.68C440.074 88.68 446.58 86.9168 452.274 83.3687L451.216 81.6713ZM432.785 69.24C435.573 69.24 438.041 68.3619 440.145 66.6082L438.865 65.0718C437.129 66.5181 435.117 67.24 432.785 67.24V69.24ZM440.13 66.6209C442.338 64.8542 443.983 62.0921 445.138 58.4632L443.232 57.8568C442.147 61.2679 440.672 63.6258 438.88 65.0591L440.13 66.6209ZM445.14 58.4571C446.301 54.7233 446.865 49.8919 446.865 44H444.865C444.865 49.7881 444.309 54.3967 443.23 57.8629L445.14 58.4571ZM446.865 44C446.865 38.0312 446.302 33.1957 445.138 29.5368L443.232 30.1432C444.308 33.5243 444.865 38.1288 444.865 44H446.865ZM445.138 29.5368C443.983 25.9079 442.338 23.1458 440.13 21.3791L438.88 22.9409C440.672 24.3742 442.147 26.7321 443.232 30.1432L445.138 29.5368ZM440.145 21.3918C438.041 19.6381 435.573 18.76 432.785 18.76V20.76C435.117 20.76 437.129 21.4819 438.865 22.9282L440.145 21.3918ZM432.785 18.76C429.998 18.76 427.498 19.6374 425.32 21.3791L426.57 22.9409C428.392 21.4826 430.452 20.76 432.785 20.76V18.76ZM425.305 21.3918C423.191 23.1533 421.551 25.9026 420.318 29.5173L422.212 30.1627C423.379 26.7373 424.859 24.3667 426.585 22.9282L425.305 21.3918ZM420.312 29.5368C419.148 33.1957 418.585 38.0312 418.585 44H420.585C420.585 38.1288 421.142 33.5243 422.218 30.1432L420.312 29.5368ZM418.585 44C418.585 49.8919 419.149 54.7233 420.31 58.4571L422.22 57.8629C421.141 54.3967 420.585 49.7881 420.585 44H418.585ZM420.318 58.4827C421.551 62.0973 423.191 64.8467 425.305 66.6082L426.585 65.0718C424.859 63.6333 423.379 61.2626 422.212 57.8373L420.318 58.4827ZM425.32 66.6209C427.498 68.3626 429.998 69.24 432.785 69.24V67.24C430.452 67.24 428.392 66.5174 426.57 65.0591L425.32 66.6209ZM501.368 72.56H500.368V73.56H501.368V72.56ZM501.368 15.44V14.44H500.368V15.44H501.368ZM519.848 15.44H520.848V14.44H519.848V15.44ZM519.848 72.56V73.56H520.848V72.56H519.848ZM480.968 52.76H479.968V53.76H480.968V52.76ZM480.968 35.24V34.24H479.968V35.24H480.968ZM540.128 35.24H541.128V34.24H540.128V35.24ZM540.128 52.76V53.76H541.128V52.76H540.128ZM502.368 72.56V15.44H500.368V72.56H502.368ZM501.368 16.44H519.848V14.44H501.368V16.44ZM518.848 15.44V72.56H520.848V15.44H518.848ZM519.848 71.56H501.368V73.56H519.848V71.56ZM481.968 52.76V35.24H479.968V52.76H481.968ZM480.968 36.24H540.128V34.24H480.968V36.24ZM539.128 35.24V52.76H541.128V35.24H539.128ZM540.128 51.76H480.968V53.76H540.128V51.76Z" fill="black" fill-opacity="0.08"/>
</svg>
