<svg width="166" height="88" viewBox="0 0 166 88" fill="none" xmlns="http://www.w3.org/2000/svg">
<path d="M80.32 1.99999H81.32V0.999994H80.32V1.99999ZM80.32 86V87H81.32V86H80.32ZM56.56 86H55.56V87H56.56V86ZM56.56 53.24H57.56V52.24H56.56V53.24ZM24.16 53.24V52.24H23.16V53.24H24.16ZM24.16 86V87H25.16V86H24.16ZM0.4 86H-0.6V87H0.4V86ZM0.4 1.99999V0.999994H-0.6V1.99999H0.4ZM24.16 1.99999H25.16V0.999994H24.16V1.99999ZM24.16 33.56H23.16V34.56H24.16V33.56ZM56.56 33.56V34.56H57.56V33.56H56.56ZM56.56 1.99999V0.999994H55.56V1.99999H56.56ZM79.32 1.99999V86H81.32V1.99999H79.32ZM80.32 85H56.56V87H80.32V85ZM57.56 86V53.24H55.56V86H57.56ZM56.56 52.24H24.16V54.24H56.56V52.24ZM23.16 53.24V86H25.16V53.24H23.16ZM24.16 85H0.4V87H24.16V85ZM1.4 86V1.99999H-0.6V86H1.4ZM0.4 2.99999H24.16V0.999994H0.4V2.99999ZM23.16 1.99999V33.56H25.16V1.99999H23.16ZM24.16 34.56H56.56V32.56H24.16V34.56ZM57.56 33.56V1.99999H55.56V33.56H57.56ZM56.56 2.99999H80.32V0.999994H56.56V2.99999ZM153.24 41.72L152.669 40.8986L151.381 41.7934L152.736 42.5838L153.24 41.72ZM162.12 50L162.964 49.4645L162.12 50ZM160.68 75.2L159.884 74.5949L160.68 75.2ZM147.84 84.44L148.204 85.3712L147.84 84.44ZM109.68 84.44L109.315 85.3712L109.68 84.44ZM96.8397 75.2L97.6358 74.5949L96.8397 75.2ZM104.28 41.72L104.784 42.5838L106.139 41.7934L104.85 40.8986L104.28 41.72ZM97.5597 34.4L96.6753 34.8668L96.6803 34.8763L96.6855 34.8856L97.5597 34.4ZM99.4797 11.96L100.276 12.5655L100.282 12.5573L99.4797 11.96ZM111.24 3.32L110.876 2.38853L110.871 2.39051L111.24 3.32ZM146.16 3.32L145.791 4.2495L145.796 4.25146L146.16 3.32ZM158.04 11.96L157.238 12.5573L157.244 12.5655L158.04 11.96ZM159.84 34.4L158.966 33.9144L158.96 33.9237L158.955 33.9332L159.84 34.4ZM121.56 19.4L122.197 20.171L122.206 20.1629L122.216 20.1546L121.56 19.4ZM121.44 32.36L120.767 33.0999L120.785 33.1159L120.803 33.131L121.44 32.36ZM136.08 32.36L136.717 33.131L136.726 33.1229L136.736 33.1146L136.08 32.36ZM136.08 19.4L135.424 20.1546L135.433 20.1629L135.443 20.171L136.08 19.4ZM137.88 68.24L138.514 69.0127L138.517 69.0104L137.88 68.24ZM137.88 53L137.229 53.7593L137.243 53.7717L137.258 53.7835L137.88 53ZM119.52 53L120.154 53.7727L120.157 53.7704L119.52 53ZM119.52 68.24L118.869 68.9993L118.883 69.0117L118.898 69.0235L119.52 68.24ZM152.736 42.5838C156.458 44.7549 159.292 47.409 161.275 50.5355L162.964 49.4645C160.787 46.031 157.702 43.1651 153.744 40.8562L152.736 42.5838ZM161.275 50.5355C163.244 53.6408 164.24 57.2116 164.24 61.28H166.24C166.24 56.8684 165.155 52.9192 162.964 49.4645L161.275 50.5355ZM164.24 61.28C164.24 66.3534 162.784 70.7782 159.884 74.5949L161.476 75.8051C164.655 71.6218 166.24 66.7666 166.24 61.28H164.24ZM159.884 74.5949C156.973 78.4241 152.855 81.4035 147.475 83.5088L148.204 85.3712C153.864 83.1564 158.306 79.9759 161.476 75.8051L159.884 74.5949ZM147.475 83.5088C142.093 85.6147 135.861 86.68 128.76 86.68V88.68C136.058 88.68 142.546 87.5853 148.204 85.3712L147.475 83.5088ZM128.76 86.68C121.658 86.68 115.426 85.6147 110.044 83.5088L109.315 85.3712C114.973 87.5853 121.461 88.68 128.76 88.68V86.68ZM110.044 83.5088C104.664 81.4035 100.546 78.4241 97.6358 74.5949L96.0435 75.8051C99.2134 79.9759 103.655 83.1564 109.315 85.3712L110.044 83.5088ZM97.6358 74.5949C94.7351 70.7782 93.2797 66.3534 93.2797 61.28H91.2797C91.2797 66.7666 92.8643 71.6218 96.0435 75.8051L97.6358 74.5949ZM93.2797 61.28C93.2797 57.2116 94.275 53.6408 96.2442 50.5355L94.5552 49.4645C92.3644 52.9192 91.2797 56.8684 91.2797 61.28H93.2797ZM96.2442 50.5355C98.2269 47.409 101.062 44.7549 104.784 42.5838L103.776 40.8562C99.8178 43.1651 96.7325 46.031 94.5552 49.4645L96.2442 50.5355ZM104.85 40.8986C102.087 38.9801 99.9549 36.6522 98.4338 33.9144L96.6855 34.8856C98.3645 37.9078 100.712 40.4599 103.709 42.5414L104.85 40.8986ZM98.4441 33.9332C97.0061 31.2086 96.2797 28.1708 96.2797 24.8H94.2797C94.2797 28.4692 95.0733 31.8314 96.6753 34.8668L98.4441 33.9332ZM96.2797 24.8C96.2797 20.1258 97.6156 16.0614 100.276 12.5655L98.6839 11.3545C95.7438 15.2186 94.2797 19.7142 94.2797 24.8H96.2797ZM100.282 12.5573C102.955 8.96811 106.713 6.19198 111.609 4.24949L110.871 2.39051C105.686 4.44801 101.605 7.43188 98.6776 11.3627L100.282 12.5573ZM111.604 4.25146C116.588 2.30459 122.301 1.31999 128.76 1.31999V-0.680006C122.099 -0.680006 116.132 0.335403 110.876 2.38854L111.604 4.25146ZM128.76 1.31999C135.219 1.31999 140.89 2.30473 145.791 4.24949L146.529 2.39051C141.349 0.335266 135.42 -0.680006 128.76 -0.680006V1.31999ZM145.796 4.25146C150.772 6.19524 154.568 8.97181 157.238 12.5573L158.842 11.3627C155.912 7.42818 151.787 4.44476 146.524 2.38854L145.796 4.25146ZM157.244 12.5655C159.904 16.0614 161.24 20.1258 161.24 24.8H163.24C163.24 19.7142 161.776 15.2186 158.836 11.3545L157.244 12.5655ZM161.24 24.8C161.24 28.1621 160.477 31.1931 158.966 33.9144L160.714 34.8856C162.402 31.8469 163.24 28.4779 163.24 24.8H161.24ZM158.955 33.9332C157.516 36.6609 155.428 38.9828 152.669 40.8986L153.81 42.5414C156.811 40.4572 159.124 37.8991 160.724 34.8668L158.955 33.9332ZM128.76 16C125.612 16 122.962 16.855 120.904 18.6454L122.216 20.1546C123.837 18.7449 125.987 18 128.76 18V16ZM120.923 18.629C118.812 20.3728 117.8 22.8392 117.8 25.88H119.8C119.8 23.3208 120.627 21.4672 122.197 20.171L120.923 18.629ZM117.8 25.88C117.8 28.8371 118.768 31.2823 120.767 33.0999L122.112 31.6201C120.592 30.2376 119.8 28.3629 119.8 25.88H117.8ZM120.803 33.131C122.866 34.8357 125.552 35.64 128.76 35.64V33.64C125.887 33.64 123.693 32.9243 122.077 31.589L120.803 33.131ZM128.76 35.64C131.967 35.64 134.653 34.8357 136.717 33.131L135.443 31.589C133.826 32.9243 131.632 33.64 128.76 33.64V35.64ZM136.736 33.1146C138.821 31.3014 139.84 28.852 139.84 25.88H137.84C137.84 28.348 137.018 30.2186 135.424 31.6054L136.736 33.1146ZM139.84 25.88C139.84 22.8392 138.827 20.3728 136.717 18.629L135.443 20.171C137.012 21.4672 137.84 23.3208 137.84 25.88H139.84ZM136.736 18.6454C134.672 16.8509 131.979 16 128.76 16V18C131.62 18 133.807 18.7491 135.424 20.1546L136.736 18.6454ZM128.76 72C132.756 72 136.045 71.0414 138.514 69.0127L137.245 67.4673C135.235 69.1186 132.444 70 128.76 70V72ZM138.517 69.0104C141.083 66.8872 142.36 64.0366 142.36 60.56H140.36C140.36 63.4834 139.317 65.7528 137.242 67.4696L138.517 69.0104ZM142.36 60.56C142.36 57.083 141.082 54.2631 138.501 52.2165L137.258 53.7835C139.318 55.4169 140.36 57.637 140.36 60.56H142.36ZM138.53 52.2407C136.06 50.1235 132.765 49.12 128.76 49.12V51.12C132.434 51.12 135.219 52.0365 137.229 53.7593L138.53 52.2407ZM128.76 49.12C124.752 49.12 121.426 50.1243 118.882 52.2296L120.157 53.7704C122.253 52.0357 125.087 51.12 128.76 51.12V49.12ZM118.885 52.2273C116.388 54.2785 115.16 57.096 115.16 60.56H117.16C117.16 57.624 118.172 55.4015 120.154 53.7727L118.885 52.2273ZM115.16 60.56C115.16 64.024 116.387 66.8718 118.869 68.9993L120.17 67.4807C118.173 65.7682 117.16 63.496 117.16 60.56H115.16ZM118.898 69.0235C121.442 71.0406 124.762 72 128.76 72V70C125.078 70 122.238 69.1194 120.141 67.4565L118.898 69.0235Z" fill="black" fill-opacity="0.08"/>
</svg>
