<svg width="163" height="88" viewBox="0 0 163 88" fill="none" xmlns="http://www.w3.org/2000/svg">
<path d="M56.56 1.99999V0.999994H55.56V1.99999H56.56ZM80.32 1.99999H81.32V0.999994H80.32V1.99999ZM80.32 86V87H81.32V86H80.32ZM56.56 86H55.56V87H56.56V86ZM24.16 86V87H25.16V86H24.16ZM0.4 86H-0.6V87H0.4V86ZM0.4 1.99999V0.999994H-0.6V1.99999H0.4ZM24.16 1.99999H25.16V0.999994H24.16V1.99999ZM58.24 53.24V54.24H59.24V53.24H58.24ZM22.48 53.24H21.48V54.24H22.48V53.24ZM22.48 33.56V32.56H21.48V33.56H22.48ZM58.24 33.56H59.24V32.56H58.24V33.56ZM56.56 2.99999H80.32V0.999994H56.56V2.99999ZM79.32 1.99999V86H81.32V1.99999H79.32ZM80.32 85H56.56V87H80.32V85ZM57.56 86V1.99999H55.56V86H57.56ZM24.16 85H0.4V87H24.16V85ZM1.4 86V1.99999H-0.6V86H1.4ZM0.4 2.99999H24.16V0.999994H0.4V2.99999ZM23.16 1.99999V86H25.16V1.99999H23.16ZM58.24 52.24H22.48V54.24H58.24V52.24ZM23.48 53.24V33.56H21.48V53.24H23.48ZM22.48 34.56H58.24V32.56H22.48V34.56ZM57.24 33.56V53.24H59.24V33.56H57.24ZM144 5L143.523 5.87931L143.528 5.88202L144 5ZM157.56 18.92L156.672 19.381L156.676 19.3879L156.68 19.3948L157.56 18.92ZM156.72 66.68L155.846 66.1926L155.845 66.1961L156.72 66.68ZM141 82.28L140.527 81.3985L140.523 81.4009L141 82.28ZM104.28 86L104.531 85.032L104.522 85.0298L104.514 85.0278L104.28 86ZM93.1197 81.56L92.2278 81.1078L91.8114 81.9291L92.5956 82.4117L93.1197 81.56ZM101.76 64.52L102.333 63.7008L101.389 63.0398L100.868 64.0678L101.76 64.52ZM109.2 68L108.957 68.9701L108.975 68.9745L108.992 68.9782L109.2 68ZM132.72 62.96L133.434 63.6598L132.72 62.96ZM138.12 37.04L138.761 36.2731L136.716 34.5616L137.132 37.196L138.12 37.04ZM144 41.96L144.899 42.3975L145.241 41.6946L144.641 41.1931L144 41.96ZM138.36 49.4L139.013 50.1574L138.36 49.4ZM130.2 53.96L129.883 53.0113L130.2 53.96ZM105 52.28L104.539 53.1678L104.549 53.1728L104.559 53.1777L105 52.28ZM94.5597 43.04L93.725 43.5909L93.7302 43.5986L94.5597 43.04ZM95.0397 13.88L95.8597 14.4524L95.8646 14.4452L95.0397 13.88ZM106.92 3.92L107.343 4.82589L107.355 4.82016L106.92 3.92ZM119.16 18.56L118.696 17.6742L119.16 18.56ZM115.08 22.28L114.241 21.735L114.234 21.746L115.08 22.28ZM116.76 35.6L116.081 36.3348L116.088 36.3412L116.095 36.3474L116.76 35.6ZM131.28 37.16L131.727 38.0544L131.28 37.16ZM135.36 33.44L136.217 33.9545L135.36 33.44ZM135.36 22.4L134.502 22.9145L134.508 22.9243L134.514 22.934L135.36 22.4ZM131.28 18.68L130.801 19.5579L130.817 19.5664L130.832 19.5744L131.28 18.68ZM123.48 1.31999C131.268 1.31999 137.937 2.85347 143.523 5.87929L144.476 4.12071C138.542 0.906521 131.531 -0.680006 123.48 -0.680006V1.31999ZM143.528 5.88202C149.182 8.90214 153.561 13.3909 156.672 19.381L158.447 18.459C155.159 12.1291 150.498 7.33786 144.471 4.11798L143.528 5.88202ZM156.68 19.3948C159.86 25.2897 161.48 32.7146 161.48 41.72H163.48C163.48 32.4854 161.82 24.7103 158.44 18.4452L156.68 19.3948ZM161.48 41.72C161.48 51.3496 159.586 59.4932 155.846 66.1926L157.593 67.1674C161.534 60.1068 163.48 51.6104 163.48 41.72H161.48ZM155.845 66.1961C152.176 72.831 147.074 77.8913 140.527 81.3985L141.472 83.1615C148.365 79.4687 153.744 74.129 157.595 67.1639L155.845 66.1961ZM140.523 81.4009C134.053 84.9087 126.463 86.68 117.72 86.68V88.68C126.737 88.68 134.666 86.8513 141.476 83.1591L140.523 81.4009ZM117.72 86.68C113.161 86.68 108.765 86.1299 104.531 85.032L104.029 86.968C108.434 88.1101 112.998 88.68 117.72 88.68V86.68ZM104.514 85.0278C100.275 84.0074 96.6573 82.5628 93.6438 80.7083L92.5956 82.4117C95.8221 84.3972 99.6442 85.9126 104.046 86.9722L104.514 85.0278ZM94.0116 82.0122L102.652 64.9722L100.868 64.0678L92.2278 81.1078L94.0116 82.0122ZM101.186 65.3392C103.675 67.0816 106.266 68.2974 108.957 68.9701L109.442 67.0299C107.013 66.4226 104.644 65.3184 102.333 63.7008L101.186 65.3392ZM108.992 68.9782C111.701 69.5528 114.451 69.84 117.24 69.84V67.84C114.589 67.84 111.978 67.5672 109.407 67.0218L108.992 68.9782ZM117.24 69.84C123.936 69.84 129.372 67.8063 133.434 63.6598L132.005 62.2602C128.387 65.9537 123.503 67.84 117.24 67.84V69.84ZM133.434 63.6598C137.516 59.4925 139.48 53.4828 139.48 45.8H137.48C137.48 53.1572 135.603 58.5875 132.005 62.2602L133.434 63.6598ZM139.48 45.8C139.48 45.7973 139.48 45.7947 139.48 45.792C139.48 45.7894 139.48 45.7867 139.48 45.7841C139.48 45.7814 139.48 45.7787 139.48 45.7761C139.48 45.7734 139.48 45.7708 139.48 45.7681C139.48 45.7655 139.48 45.7628 139.48 45.7601C139.48 45.7575 139.48 45.7548 139.48 45.7522C139.48 45.7495 139.48 45.7469 139.48 45.7442C139.48 45.7415 139.48 45.7389 139.48 45.7362C139.48 45.7336 139.48 45.7309 139.48 45.7282C139.48 45.7256 139.48 45.7229 139.48 45.7203C139.48 45.7176 139.48 45.715 139.48 45.7123C139.48 45.7096 139.48 45.707 139.48 45.7043C139.48 45.7016 139.48 45.699 139.48 45.6963C139.48 45.6937 139.48 45.691 139.48 45.6883C139.48 45.6857 139.48 45.683 139.48 45.6804C139.48 45.6777 139.48 45.675 139.48 45.6724C139.48 45.6697 139.48 45.6671 139.48 45.6644C139.48 45.6617 139.48 45.6591 139.48 45.6564C139.48 45.6537 139.48 45.6511 139.48 45.6484C139.48 45.6458 139.48 45.6431 139.48 45.6404C139.48 45.6378 139.48 45.6351 139.48 45.6325C139.48 45.6298 139.48 45.6271 139.48 45.6245C139.48 45.6218 139.48 45.6191 139.48 45.6165C139.48 45.6138 139.48 45.6111 139.48 45.6085C139.48 45.6058 139.48 45.6032 139.48 45.6005C139.48 45.5978 139.48 45.5952 139.48 45.5925C139.48 45.5898 139.48 45.5872 139.48 45.5845C139.48 45.5818 139.48 45.5792 139.48 45.5765C139.48 45.5739 139.48 45.5712 139.48 45.5685C139.48 45.5659 139.48 45.5632 139.48 45.5605C139.48 45.5579 139.48 45.5552 139.48 45.5525C139.48 45.5499 139.48 45.5472 139.48 45.5445C139.48 45.5419 139.48 45.5392 139.48 45.5365C139.48 45.5339 139.48 45.5312 139.48 45.5285C139.48 45.5259 139.48 45.5232 139.48 45.5205C139.48 45.5179 139.48 45.5152 139.48 45.5125C139.48 45.5099 139.48 45.5072 139.48 45.5045C139.48 45.5019 139.48 45.4992 139.48 45.4965C139.48 45.4939 139.48 45.4912 139.48 45.4885C139.48 45.4859 139.48 45.4832 139.48 45.4805C139.48 45.4778 139.48 45.4752 139.48 45.4725C139.48 45.4698 139.48 45.4672 139.48 45.4645C139.48 45.4618 139.48 45.4592 139.48 45.4565C139.48 45.4538 139.48 45.4512 139.48 45.4485C139.48 45.4458 139.48 45.4431 139.48 45.4405C139.48 45.4378 139.48 45.4351 139.48 45.4325C139.48 45.4298 139.48 45.4271 139.48 45.4245C139.48 45.4218 139.48 45.4191 139.48 45.4164C139.48 45.4138 139.48 45.4111 139.48 45.4084C139.48 45.4058 139.48 45.4031 139.48 45.4004C139.48 45.3977 139.48 45.3951 139.48 45.3924C139.48 45.3897 139.48 45.3871 139.48 45.3844C139.48 45.3817 139.48 45.379 139.48 45.3764C139.48 45.3737 139.48 45.371 139.48 45.3684C139.48 45.3657 139.48 45.363 139.48 45.3603C139.48 45.3577 139.48 45.355 139.48 45.3523C139.48 45.3496 139.48 45.347 139.48 45.3443C139.48 45.3416 139.48 45.3389 139.48 45.3363C139.48 45.3336 139.48 45.3309 139.48 45.3282C139.48 45.3256 139.48 45.3229 139.48 45.3202C139.48 45.3176 139.48 45.3149 139.48 45.3122C139.48 45.3095 139.48 45.3069 139.48 45.3042C139.48 45.3015 139.48 45.2988 139.48 45.2962C139.48 45.2935 139.48 45.2908 139.48 45.2881C139.48 45.2854 139.48 45.2828 139.48 45.2801C139.48 45.2774 139.48 45.2747 139.48 45.2721C139.48 45.2694 139.48 45.2667 139.48 45.264C139.48 45.2614 139.48 45.2587 139.48 45.256C139.48 45.2533 139.48 45.2507 139.48 45.248C139.48 45.2453 139.48 45.2426 139.48 45.2399C139.48 45.2373 139.48 45.2346 139.48 45.2319C139.48 45.2292 139.48 45.2266 139.48 45.2239C139.48 45.2212 139.48 45.2185 139.48 45.2158C139.48 45.2132 139.48 45.2105 139.48 45.2078C139.48 45.2051 139.48 45.2024 139.48 45.1998C139.48 45.1971 139.48 45.1944 139.48 45.1917C139.48 45.189 139.48 45.1864 139.48 45.1837C139.48 45.181 139.48 45.1783 139.48 45.1757C139.48 45.173 139.48 45.1703 139.48 45.1676C139.48 45.1649 139.48 45.1622 139.48 45.1596C139.48 45.1569 139.48 45.1542 139.48 45.1515C139.48 45.1488 139.48 45.1462 139.48 45.1435C139.48 45.1408 139.48 45.1381 139.48 45.1354C139.48 45.1328 139.48 45.1301 139.48 45.1274C139.48 45.1247 139.48 45.122 139.48 45.1193C139.48 45.1167 139.48 45.114 139.48 45.1113C139.48 45.1086 139.48 45.1059 139.48 45.1032C139.48 45.1006 139.48 45.0979 139.48 45.0952C139.48 45.0925 139.48 45.0898 139.48 45.0872C139.48 45.0845 139.48 45.0818 139.48 45.0791C139.48 45.0764 139.48 45.0737 139.48 45.0711C139.48 45.0684 139.48 45.0657 139.48 45.063C139.48 45.0603 139.48 45.0576 139.48 45.0549C139.48 45.0523 139.48 45.0496 139.48 45.0469C139.48 45.0442 139.48 45.0415 139.48 45.0388C139.48 45.0361 139.48 45.0335 139.48 45.0308C139.48 45.0281 139.48 45.0254 139.48 45.0227C139.48 45.02 139.48 45.0173 139.48 45.0147C139.48 45.012 139.48 45.0093 139.48 45.0066C139.48 45.0039 139.48 45.0012 139.48 44.9985C139.48 44.9959 139.48 44.9932 139.48 44.9905C139.48 44.9878 139.48 44.9851 139.48 44.9824C139.48 44.9797 139.48 44.9771 139.48 44.9744C139.48 44.9717 139.48 44.969 139.48 44.9663C139.48 44.9636 139.48 44.9609 139.48 44.9582C139.48 44.9555 139.48 44.9529 139.48 44.9502C139.48 44.9475 139.48 44.9448 139.48 44.9421C139.48 44.9394 139.48 44.9367 139.48 44.934C139.48 44.9313 139.48 44.9287 139.48 44.926C139.48 44.9233 139.48 44.9206 139.48 44.9179C139.48 44.9152 139.48 44.9125 139.48 44.9098C139.48 44.9071 139.48 44.9044 139.48 44.9018C139.48 44.8991 139.48 44.8964 139.48 44.8937C139.48 44.891 139.48 44.8883 139.48 44.8856C139.48 44.8829 139.48 44.8802 139.48 44.8775C139.48 44.8748 139.48 44.8722 139.48 44.8695C139.48 44.8668 139.48 44.8641 139.48 44.8614C139.48 44.8587 139.48 44.856 139.48 44.8533C139.48 44.8506 139.48 44.8479 139.48 44.8452C139.48 44.8425 139.48 44.8399 139.48 44.8372C139.48 44.8345 139.48 44.8318 139.48 44.8291C139.48 44.8264 139.48 44.8237 139.48 44.821C139.48 44.8183 139.48 44.8156 139.48 44.8129C139.48 44.8102 139.48 44.8075 139.48 44.8048C139.48 44.8021 139.48 44.7994 139.48 44.7968C139.48 44.7941 139.48 44.7914 139.48 44.7887C139.48 44.786 139.48 44.7833 139.48 44.7806C139.48 44.7779 139.48 44.7752 139.48 44.7725C139.48 44.7698 139.48 44.7671 139.48 44.7644C139.48 44.7617 139.48 44.759 139.48 44.7563C139.48 44.7536 139.48 44.7509 139.48 44.7482C139.48 44.7455 139.48 44.7428 139.48 44.7402C139.48 44.7374 139.48 44.7348 139.48 44.7321C139.48 44.7294 139.48 44.7267 139.48 44.724C139.48 44.7213 139.48 44.7186 139.48 44.7159C139.48 44.7132 139.48 44.7105 139.48 44.7078C139.48 44.7051 139.48 44.7024 139.48 44.6997C139.48 44.697 139.48 44.6943 139.48 44.6916C139.48 44.6889 139.48 44.6862 139.48 44.6835C139.48 44.6808 139.48 44.6781 139.48 44.6754C139.48 44.6727 139.48 44.67 139.48 44.6673C139.48 44.6646 139.48 44.6619 139.48 44.6592C139.48 44.6565 139.48 44.6538 139.48 44.6511C139.48 44.6484 139.48 44.6457 139.48 44.643C139.48 44.6403 139.48 44.6376 139.48 44.6349C139.48 44.6322 139.48 44.6295 139.48 44.6268C139.48 44.6241 139.48 44.6214 139.48 44.6187C139.48 44.616 139.48 44.6133 139.48 44.6106C139.48 44.6079 139.48 44.6052 139.48 44.6025C139.48 44.5998 139.48 44.5971 139.48 44.5944C139.48 44.5917 139.48 44.589 139.48 44.5863C139.48 44.5836 139.48 44.5809 139.48 44.5782C139.48 44.5755 139.48 44.5728 139.48 44.5701C139.48 44.5674 139.48 44.5647 139.48 44.562C139.48 44.5592 139.48 44.5565 139.48 44.5538C139.48 44.5511 139.48 44.5484 139.48 44.5457C139.48 44.543 139.48 44.5403 139.48 44.5376C139.48 44.5349 139.48 44.5322 139.48 44.5295C139.48 44.5268 139.48 44.5241 139.48 44.5214C139.48 44.5187 139.48 44.516 139.48 44.5133C139.48 44.5106 139.48 44.5079 139.48 44.5052C139.48 44.5025 139.48 44.4998 139.48 44.497C139.48 44.4943 139.48 44.4916 139.48 44.4889C139.48 44.4862 139.48 44.4835 139.48 44.4808C139.48 44.4781 139.48 44.4754 139.48 44.4727C139.48 44.47 139.48 44.4673 139.48 44.4646C139.48 44.4619 139.48 44.4592 139.48 44.4565C139.48 44.4537 139.48 44.451 139.48 44.4483C139.48 44.4456 139.48 44.4429 139.48 44.4402C139.48 44.4375 139.48 44.4348 139.48 44.4321C139.48 44.4294 139.48 44.4267 139.48 44.424C139.48 44.4212 139.48 44.4185 139.48 44.4158C139.48 44.4131 139.48 44.4104 139.48 44.4077C139.48 44.405 139.48 44.4023 139.48 44.3996C139.48 44.3969 139.48 44.3942 139.48 44.3914C139.48 44.3887 139.48 44.386 139.48 44.3833C139.48 44.3806 139.48 44.3779 139.48 44.3752C139.48 44.3725 139.48 44.3698 139.48 44.3671C139.48 44.3643 139.48 44.3616 139.48 44.3589C139.48 44.3562 139.48 44.3535 139.48 44.3508C139.48 44.3481 139.48 44.3454 139.48 44.3427C139.48 44.3399 139.48 44.3372 139.48 44.3345C139.48 44.3318 139.48 44.3291 139.48 44.3264C139.48 44.3237 139.48 44.321 139.48 44.3183C139.48 44.3155 139.48 44.3128 139.48 44.3101C139.48 44.3074 139.48 44.3047 139.48 44.302C139.48 44.2993 139.48 44.2965 139.48 44.2938C139.48 44.2911 139.48 44.2884 139.48 44.2857C139.48 44.283 139.48 44.2803 139.48 44.2775C139.48 44.2748 139.48 44.2721 139.48 44.2694C139.48 44.2667 139.48 44.264 139.48 44.2613C139.48 44.2586 139.48 44.2558 139.48 44.2531C139.48 44.2504 139.48 44.2477 139.48 44.245C139.48 44.2423 139.48 44.2395 139.48 44.2368C139.48 44.2341 139.48 44.2314 139.48 44.2287C139.48 44.226 139.48 44.2233 139.48 44.2205C139.48 44.2178 139.48 44.2151 139.48 44.2124C139.48 44.2097 139.48 44.207 139.48 44.2042C139.48 44.2015 139.48 44.1988 139.48 44.1961C139.48 44.1934 139.48 44.1907 139.48 44.1879C139.48 44.1852 139.48 44.1825 139.48 44.1798C139.48 44.1771 139.48 44.1743 139.48 44.1716C139.48 44.1689 139.48 44.1662 139.48 44.1635C139.48 44.1608 139.48 44.158 139.48 44.1553C139.48 44.1526 139.48 44.1499 139.48 44.1472C139.48 44.1444 139.48 44.1417 139.48 44.139C139.48 44.1363 139.48 44.1336 139.48 44.1309C139.48 44.1281 139.48 44.1254 139.48 44.1227C139.48 44.12 139.48 44.1173 139.48 44.1145C139.48 44.1118 139.48 44.1091 139.48 44.1064C139.48 44.1037 139.48 44.1009 139.48 44.0982C139.48 44.0955 139.48 44.0928 139.48 44.09C139.48 44.0873 139.48 44.0846 139.48 44.0819C139.48 44.0792 139.48 44.0764 139.48 44.0737C139.48 44.071 139.48 44.0683 139.48 44.0656C139.48 44.0628 139.48 44.0601 139.48 44.0574C139.48 44.0547 139.48 44.0519 139.48 44.0492C139.48 44.0465 139.48 44.0438 139.48 44.0411C139.48 44.0383 139.48 44.0356 139.48 44.0329C139.48 44.0302 139.48 44.0274 139.48 44.0247C139.48 44.022 139.48 44.0193 139.48 44.0165C139.48 44.0138 139.48 44.0111 139.48 44.0084C139.48 44.0057 139.48 44.0029 139.48 44.0002C139.48 43.9975 139.48 43.9948 139.48 43.992C139.48 43.9893 139.48 43.9866 139.48 43.9839C139.48 43.9811 139.48 43.9784 139.48 43.9757C139.48 43.973 139.48 43.9702 139.48 43.9675C139.48 43.9648 139.48 43.9621 139.48 43.9593C139.48 43.9566 139.48 43.9539 139.48 43.9511C139.48 43.9484 139.48 43.9457 139.48 43.943C139.48 43.9402 139.48 43.9375 139.48 43.9348C139.48 43.9321 139.48 43.9293 139.48 43.9266C139.48 43.9239 139.48 43.9212 139.48 43.9184C139.48 43.9157 139.48 43.913 139.48 43.9102C139.48 43.9075 139.48 43.9048 139.48 43.9021C139.48 43.8993 139.48 43.8966 139.48 43.8939C139.48 43.8912 139.48 43.8884 139.48 43.8857C139.48 43.883 139.48 43.8802 139.48 43.8775C139.48 43.8748 139.48 43.872 139.48 43.8693C139.48 43.8666 139.48 43.8639 139.48 43.8611C139.48 43.8584 139.48 43.8557 139.48 43.8529C139.48 43.8502 139.48 43.8475 139.48 43.8447C139.48 43.842 139.48 43.8393 139.48 43.8366C139.48 43.8338 139.48 43.8311 139.48 43.8284C139.48 43.8256 139.48 43.8229 139.48 43.8202C139.48 43.8174 139.48 43.8147 139.48 43.812C139.48 43.8092 139.48 43.8065 139.48 43.8038C139.48 43.8011 139.48 43.7983 139.48 43.7956C139.48 43.7929 139.48 43.7901 139.48 43.7874C139.48 43.7847 139.48 43.7819 139.48 43.7792C139.48 43.7765 139.48 43.7737 139.48 43.771C139.48 43.7683 139.48 43.7655 139.48 43.7628C139.48 43.7601 139.48 43.7573 139.48 43.7546C139.48 43.7519 139.48 43.7491 139.48 43.7464C139.48 43.7437 139.48 43.7409 139.48 43.7382C139.48 43.7355 139.48 43.7327 139.48 43.73C139.48 43.7273 139.48 43.7245 139.48 43.7218C139.48 43.7191 139.48 43.7163 139.48 43.7136C139.48 43.7109 139.48 43.7081 139.48 43.7054C139.48 43.7027 139.48 43.6999 139.48 43.6972C139.48 43.6944 139.48 43.6917 139.48 43.689C139.48 43.6862 139.48 43.6835 139.48 43.6808C139.48 43.678 139.48 43.6753 139.48 43.6726C139.48 43.6698 139.48 43.6671 139.48 43.6643C139.48 43.6616 139.48 43.6589 139.48 43.6561C139.48 43.6534 139.48 43.6507 139.48 43.6479C139.48 43.6452 139.48 43.6424 139.48 43.6397C139.48 43.637 139.48 43.6342 139.48 43.6315C139.48 43.6288 139.48 43.626 139.48 43.6233C139.48 43.6205 139.48 43.6178 139.48 43.6151C139.48 43.6123 139.48 43.6096 139.48 43.6068C139.48 43.6041 139.48 43.6014 139.48 43.5986C139.48 43.5959 139.48 43.5932 139.48 43.5904C139.48 43.5877 139.48 43.5849 139.48 43.5822C139.48 43.5795 139.48 43.5767 139.48 43.574C139.48 43.5712 139.48 43.5685 139.48 43.5658C139.48 43.563 139.48 43.5603 139.48 43.5575C139.48 43.5548 139.48 43.552 139.48 43.5493C139.48 43.5466 139.48 43.5438 139.48 43.5411C139.48 43.5383 139.48 43.5356 139.48 43.5329C139.48 43.5301 139.48 43.5274 139.48 43.5246C139.48 43.5219 139.48 43.5191 139.48 43.5164C139.48 43.5137 139.48 43.5109 139.48 43.5082C139.48 43.5054 139.48 43.5027 139.48 43.5C139.48 43.4972 139.48 43.4945 139.48 43.4917C139.48 43.489 139.48 43.4862 139.48 43.4835C139.48 43.4808 139.48 43.478 139.48 43.4753C139.48 43.4725 139.48 43.4698 139.48 43.467C139.48 43.4643 139.48 43.4615 139.48 43.4588C139.48 43.4561 139.48 43.4533 139.48 43.4506C139.48 43.4478 139.48 43.4451 139.48 43.4423C139.48 43.4396 139.48 43.4368 139.48 43.4341C139.48 43.4313 139.48 43.4286 139.48 43.4259C139.48 43.4231 139.48 43.4204 139.48 43.4176C139.48 43.4149 139.48 43.4121 139.48 43.4094C139.48 43.4066 139.48 43.4039 139.48 43.4011C139.48 43.3984 139.48 43.3956 139.48 43.3929C139.48 43.3902 139.48 43.3874 139.48 43.3847C139.48 43.3819 139.48 43.3792 139.48 43.3764C139.48 43.3737 139.48 43.3709 139.48 43.3682C139.48 43.3654 139.48 43.3627 139.48 43.3599C139.48 43.3572 139.48 43.3544 139.48 43.3517C139.48 43.3489 139.48 43.3462 139.48 43.3434C139.48 43.3407 139.48 43.3379 139.48 43.3352C139.48 43.3324 139.48 43.3297 139.48 43.3269C139.48 43.3242 139.48 43.3214 139.48 43.3187C139.48 43.3159 139.48 43.3132 139.48 43.3104C139.48 43.3077 139.48 43.3049 139.48 43.3022C139.48 43.2994 139.48 43.2967 139.48 43.2939C139.48 43.2912 139.48 43.2884 139.48 43.2857C139.48 43.2829 139.48 43.2802 139.48 43.2774C139.48 43.2747 139.48 43.2719 139.48 43.2692C139.48 43.2664 139.48 43.2637 139.48 43.2609C139.48 43.2582 139.48 43.2554 139.48 43.2527C139.48 43.2499 139.48 43.2472 139.48 43.2444C139.48 43.2417 139.48 43.2389 139.48 43.2362C139.48 43.2334 139.48 43.2307 139.48 43.2279C139.48 43.2252 139.48 43.2224 139.48 43.2196C139.48 43.2169 139.48 43.2141 139.48 43.2114C139.48 43.2086 139.48 43.2059 139.48 43.2031C139.48 43.2004 139.48 43.1976 139.48 43.1949C139.48 43.1921 139.48 43.1894 139.48 43.1866C139.48 43.1838 139.48 43.1811 139.48 43.1783C139.48 43.1756 139.48 43.1728 139.48 43.1701C139.48 43.1673 139.48 43.1646 139.48 43.1618C139.48 43.159 139.48 43.1563 139.48 43.1535C139.48 43.1508 139.48 43.148 139.48 43.1453C139.48 43.1425 139.48 43.1398 139.48 43.137C139.48 43.1342 139.48 43.1315 139.48 43.1287C139.48 43.126 139.48 43.1232 139.48 43.1205C139.48 43.1177 139.48 43.1149 139.48 43.1122C139.48 43.1094 139.48 43.1067 139.48 43.1039C139.48 43.1012 139.48 43.0984 139.48 43.0956C139.48 43.0929 139.48 43.0901 139.48 43.0874C139.48 43.0846 139.48 43.0819 139.48 43.0791C139.48 43.0763 139.48 43.0736 139.48 43.0708C139.48 43.0681 139.48 43.0653 139.48 43.0625C139.48 43.0598 139.48 43.057 139.48 43.0543C139.48 43.0515 139.48 43.0487 139.48 43.046C139.48 43.0432 139.48 43.0405 139.48 43.0377C139.48 43.0349 139.48 43.0322 139.48 43.0294C139.48 43.0267 139.48 43.0239 139.48 43.0211C139.48 43.0184 139.48 43.0156 139.48 43.0129C139.48 43.0101 139.48 43.0073 139.48 43.0046C139.48 43.0018 139.48 42.9991 139.48 42.9963C139.48 42.9935 139.48 42.9908 139.48 42.988C139.48 42.9852 139.48 42.9825 139.48 42.9797C139.48 42.977 139.48 42.9742 139.48 42.9714C139.48 42.9687 139.48 42.9659 139.48 42.9632C139.48 42.9604 139.48 42.9576 139.48 42.9549C139.48 42.9521 139.48 42.9493 139.48 42.9466C139.48 42.9438 139.48 42.941 139.48 42.9383C139.48 42.9355 139.48 42.9328 139.48 42.93C139.48 42.9272 139.48 42.9245 139.48 42.9217C139.48 42.9189 139.48 42.9162 139.48 42.9134C139.48 42.9106 139.48 42.9079 139.48 42.9051C139.48 42.9023 139.48 42.8996 139.48 42.8968C139.48 42.8941 139.48 42.8913 139.48 42.8885C139.48 42.8857 139.48 42.883 139.48 42.8802C139.48 42.8775 139.48 42.8747 139.48 42.8719C139.48 42.8692 139.48 42.8664 139.48 42.8636C139.48 42.8609 139.48 42.8581 139.48 42.8553C139.48 42.8526 139.48 42.8498 139.48 42.847C139.48 42.8443 139.48 42.8415 139.48 42.8387C139.48 42.836 139.48 42.8332 139.48 42.8304C139.48 42.8277 139.48 42.8249 139.48 42.8221C139.48 42.8194 139.48 42.8166 139.48 42.8138C139.48 42.811 139.48 42.8083 139.48 42.8055C139.48 42.8027 139.48 42.8 139.48 42.7972C139.48 42.7944 139.48 42.7917 139.48 42.7889C139.48 42.7861 139.48 42.7834 139.48 42.7806C139.48 42.7778 139.48 42.775 139.48 42.7723C139.48 42.7695 139.48 42.7667 139.48 42.764C139.48 42.7612 139.48 42.7584 139.48 42.7557C139.48 42.7529 139.48 42.7501 139.48 42.7473C139.48 42.7446 139.48 42.7418 139.48 42.739C139.48 42.7363 139.48 42.7335 139.48 42.7307C139.48 42.7279 139.48 42.7252 139.48 42.7224C139.48 42.7196 139.48 42.7169 139.48 42.7141C139.48 42.7113 139.48 42.7085 139.48 42.7058C139.48 42.703 139.48 42.7002 139.48 42.6975C139.48 42.6947 139.48 42.6919 139.48 42.6891C139.48 42.6864 139.48 42.6836 139.48 42.6808C139.48 42.678 139.48 42.6753 139.48 42.6725C139.48 42.6697 139.48 42.667 139.48 42.6642C139.48 42.6614 139.48 42.6586 139.48 42.6559C139.48 42.6531 139.48 42.6503 139.48 42.6475C139.48 42.6448 139.48 42.642 139.48 42.6392C139.48 42.6364 139.48 42.6337 139.48 42.6309C139.48 42.6281 139.48 42.6253 139.48 42.6226C139.48 42.6198 139.48 42.617 139.48 42.6142C139.48 42.6115 139.48 42.6087 139.48 42.6059C139.48 42.6031 139.48 42.6004 139.48 42.5976C139.48 42.5948 139.48 42.592 139.48 42.5892C139.48 42.5865 139.48 42.5837 139.48 42.5809C139.48 42.5781 139.48 42.5754 139.48 42.5726C139.48 42.5698 139.48 42.567 139.48 42.5643C139.48 42.5615 139.48 42.5587 139.48 42.5559C139.48 42.5531 139.48 42.5504 139.48 42.5476C139.48 42.5448 139.48 42.542 139.48 42.5393C139.48 42.5365 139.48 42.5337 139.48 42.5309C139.48 42.5281 139.48 42.5254 139.48 42.5226C139.48 42.5198 139.48 42.517 139.48 42.5142C139.48 42.5115 139.48 42.5087 139.48 42.5059C139.48 42.5031 139.48 42.5004 139.48 42.4976C139.48 42.4948 139.48 42.492 139.48 42.4892C139.48 42.4865 139.48 42.4837 139.48 42.4809C139.48 42.4781 139.48 42.4753 139.48 42.4725C139.48 42.4698 139.48 42.467 139.48 42.4642C139.48 42.4614 139.48 42.4586 139.48 42.4559C139.48 42.4531 139.48 42.4503 139.48 42.4475C139.48 42.4447 139.48 42.442 139.48 42.4392C139.48 42.4364 139.48 42.4336 139.48 42.4308C139.48 42.428 139.48 42.4253 139.48 42.4225C139.48 42.4197 139.48 42.4169 139.48 42.4141C139.48 42.4113 139.48 42.4086 139.48 42.4058C139.48 42.403 139.48 42.4002 139.48 42.3974C139.48 42.3946 139.48 42.3919 139.48 42.3891C139.48 42.3863 139.48 42.3835 139.48 42.3807C139.48 42.3779 139.48 42.3752 139.48 42.3724C139.48 42.3696 139.48 42.3668 139.48 42.364C139.48 42.3612 139.48 42.3585 139.48 42.3557C139.48 42.3529 139.48 42.3501 139.48 42.3473C139.48 42.3445 139.48 42.3417 139.48 42.339C139.48 42.3362 139.48 42.3334 139.48 42.3306C139.48 42.3278 139.48 42.325 139.48 42.3222C139.48 42.3195 139.48 42.3167 139.48 42.3139C139.48 42.3111 139.48 42.3083 139.48 42.3055C139.48 42.3027 139.48 42.2999 139.48 42.2972C139.48 42.2944 139.48 42.2916 139.48 42.2888C139.48 42.286 139.48 42.2832 139.48 42.2804C139.48 42.2776 139.48 42.2749 139.48 42.2721C139.48 42.2693 139.48 42.2665 139.48 42.2637C139.48 42.2609 139.48 42.2581 139.48 42.2553C139.48 42.2525 139.48 42.2498 139.48 42.247C139.48 42.2442 139.48 42.2414 139.48 42.2386C139.48 42.2358 139.48 42.233 139.48 42.2302C139.48 42.2274 139.48 42.2247 139.48 42.2219C139.48 42.2191 139.48 42.2163 139.48 42.2135C139.48 42.2107 139.48 42.2079 139.48 42.2051C139.48 42.2023 139.48 42.1995 139.48 42.1968C139.48 42.194 139.48 42.1912 139.48 42.1884C139.48 42.1856 139.48 42.1828 139.48 42.18C139.48 42.1772 139.48 42.1744 139.48 42.1716C139.48 42.1688 139.48 42.166 139.48 42.1633C139.48 42.1605 139.48 42.1577 139.48 42.1549C139.48 42.1521 139.48 42.1493 139.48 42.1465C139.48 42.1437 139.48 42.1409 139.48 42.1381C139.48 42.1353 139.48 42.1325 139.48 42.1297C139.48 42.127 139.48 42.1242 139.48 42.1214C139.48 42.1186 139.48 42.1158 139.48 42.113C139.48 42.1102 139.48 42.1074 139.48 42.1046C139.48 42.1018 139.48 42.099 139.48 42.0962C139.48 42.0934 139.48 42.0906 139.48 42.0878C139.48 42.085 139.48 42.0822 139.48 42.0795C139.48 42.0767 139.48 42.0739 139.48 42.0711C139.48 42.0683 139.48 42.0655 139.48 42.0627C139.48 42.0599 139.48 42.0571 139.48 42.0543C139.48 42.0515 139.48 42.0487 139.48 42.0459C139.48 42.0431 139.48 42.0403 139.48 42.0375C139.48 42.0347 139.48 42.0319 139.48 42.0291C139.48 42.0263 139.48 42.0235 139.48 42.0207C139.48 42.0179 139.48 42.0151 139.48 42.0123C139.48 42.0095 139.48 42.0067 139.48 42.0039C139.48 42.0011 139.48 41.9984 139.48 41.9956C139.48 41.9928 139.48 41.99 139.48 41.9872C139.48 41.9844 139.48 41.9816 139.48 41.9788C139.48 41.976 139.48 41.9732 139.48 41.9704C139.48 41.9676 139.48 41.9648 139.48 41.962C139.48 41.9592 139.48 41.9564 139.48 41.9536C139.48 41.9508 139.48 41.948 139.48 41.9452C139.48 41.9424 139.48 41.9396 139.48 41.9368C139.48 41.934 139.48 41.9312 139.48 41.9284C139.48 41.9256 139.48 41.9228 139.48 41.92C139.48 41.9172 139.48 41.9144 139.48 41.9116C139.48 41.9088 139.48 41.906 139.48 41.9032C139.48 41.9004 139.48 41.8976 139.48 41.8948C139.48 41.892 139.48 41.8891 139.48 41.8863C139.48 41.8835 139.48 41.8807 139.48 41.8779C139.48 41.8751 139.48 41.8723 139.48 41.8695C139.48 41.8667 139.48 41.8639 139.48 41.8611C139.48 41.8583 139.48 41.8555 139.48 41.8527C139.48 41.8499 139.48 41.8471 139.48 41.8443C139.48 41.8415 139.48 41.8387 139.48 41.8359C139.48 41.8331 139.48 41.8303 139.48 41.8275C139.48 41.8247 139.48 41.8219 139.48 41.8191C139.48 41.8163 139.48 41.8135 139.48 41.8107C139.48 41.8078 139.48 41.805 139.48 41.8022C139.48 41.7994 139.48 41.7966 139.48 41.7938C139.48 41.791 139.48 41.7882 139.48 41.7854C139.48 41.7826 139.48 41.7798 139.48 41.777C139.48 41.7742 139.48 41.7714 139.48 41.7686C139.48 41.7658 139.48 41.763 139.48 41.7601C139.48 41.7573 139.48 41.7545 139.48 41.7517C139.48 41.7489 139.48 41.7461 139.48 41.7433C139.48 41.7405 139.48 41.7377 139.48 41.7349C139.48 41.7321 139.48 41.7293 139.48 41.7265C139.48 41.7236 139.48 41.7208 139.48 41.718C139.48 41.7152 139.48 41.7124 139.48 41.7096C139.48 41.7068 139.48 41.704 139.48 41.7012C139.48 41.6984 139.48 41.6956 139.48 41.6928C139.48 41.6899 139.48 41.6871 139.48 41.6843C139.48 41.6815 139.48 41.6787 139.48 41.6759C139.48 41.6731 139.48 41.6703 139.48 41.6675C139.48 41.6647 139.48 41.6618 139.48 41.659C139.48 41.6562 139.48 41.6534 139.48 41.6506C139.48 41.6478 139.48 41.645 139.48 41.6422C139.48 41.6394 139.48 41.6366 139.48 41.6337C139.48 41.6309 139.48 41.6281 139.48 41.6253C139.48 41.6225 139.48 41.6197 139.48 41.6169C139.48 41.6141 139.48 41.6113 139.48 41.6084C139.48 41.6056 139.48 41.6028 139.48 41.6H137.48C137.48 41.6028 137.48 41.6056 137.48 41.6084C137.48 41.6113 137.48 41.6141 137.48 41.6169C137.48 41.6197 137.48 41.6225 137.48 41.6253C137.48 41.6281 137.48 41.6309 137.48 41.6337C137.48 41.6366 137.48 41.6394 137.48 41.6422C137.48 41.645 137.48 41.6478 137.48 41.6506C137.48 41.6534 137.48 41.6562 137.48 41.659C137.48 41.6618 137.48 41.6647 137.48 41.6675C137.48 41.6703 137.48 41.6731 137.48 41.6759C137.48 41.6787 137.48 41.6815 137.48 41.6843C137.48 41.6871 137.48 41.6899 137.48 41.6928C137.48 41.6956 137.48 41.6984 137.48 41.7012C137.48 41.704 137.48 41.7068 137.48 41.7096C137.48 41.7124 137.48 41.7152 137.48 41.718C137.48 41.7208 137.48 41.7236 137.48 41.7265C137.48 41.7293 137.48 41.7321 137.48 41.7349C137.48 41.7377 137.48 41.7405 137.48 41.7433C137.48 41.7461 137.48 41.7489 137.48 41.7517C137.48 41.7545 137.48 41.7573 137.48 41.7601C137.48 41.763 137.48 41.7658 137.48 41.7686C137.48 41.7714 137.48 41.7742 137.48 41.777C137.48 41.7798 137.48 41.7826 137.48 41.7854C137.48 41.7882 137.48 41.791 137.48 41.7938C137.48 41.7966 137.48 41.7994 137.48 41.8022C137.48 41.805 137.48 41.8078 137.48 41.8107C137.48 41.8135 137.48 41.8163 137.48 41.8191C137.48 41.8219 137.48 41.8247 137.48 41.8275C137.48 41.8303 137.48 41.8331 137.48 41.8359C137.48 41.8387 137.48 41.8415 137.48 41.8443C137.48 41.8471 137.48 41.8499 137.48 41.8527C137.48 41.8555 137.48 41.8583 137.48 41.8611C137.48 41.8639 137.48 41.8667 137.48 41.8695C137.48 41.8723 137.48 41.8751 137.48 41.8779C137.48 41.8807 137.48 41.8835 137.48 41.8863C137.48 41.8891 137.48 41.892 137.48 41.8948C137.48 41.8976 137.48 41.9004 137.48 41.9032C137.48 41.906 137.48 41.9088 137.48 41.9116C137.48 41.9144 137.48 41.9172 137.48 41.92C137.48 41.9228 137.48 41.9256 137.48 41.9284C137.48 41.9312 137.48 41.934 137.48 41.9368C137.48 41.9396 137.48 41.9424 137.48 41.9452C137.48 41.948 137.48 41.9508 137.48 41.9536C137.48 41.9564 137.48 41.9592 137.48 41.962C137.48 41.9648 137.48 41.9676 137.48 41.9704C137.48 41.9732 137.48 41.976 137.48 41.9788C137.48 41.9816 137.48 41.9844 137.48 41.9872C137.48 41.99 137.48 41.9928 137.48 41.9956C137.48 41.9984 137.48 42.0011 137.48 42.0039C137.48 42.0067 137.48 42.0095 137.48 42.0123C137.48 42.0151 137.48 42.0179 137.48 42.0207C137.48 42.0235 137.48 42.0263 137.48 42.0291C137.48 42.0319 137.48 42.0347 137.48 42.0375C137.48 42.0403 137.48 42.0431 137.48 42.0459C137.48 42.0487 137.48 42.0515 137.48 42.0543C137.48 42.0571 137.48 42.0599 137.48 42.0627C137.48 42.0655 137.48 42.0683 137.48 42.0711C137.48 42.0739 137.48 42.0767 137.48 42.0795C137.48 42.0822 137.48 42.085 137.48 42.0878C137.48 42.0906 137.48 42.0934 137.48 42.0962C137.48 42.099 137.48 42.1018 137.48 42.1046C137.48 42.1074 137.48 42.1102 137.48 42.113C137.48 42.1158 137.48 42.1186 137.48 42.1214C137.48 42.1242 137.48 42.127 137.48 42.1297C137.48 42.1325 137.48 42.1353 137.48 42.1381C137.48 42.1409 137.48 42.1437 137.48 42.1465C137.48 42.1493 137.48 42.1521 137.48 42.1549C137.48 42.1577 137.48 42.1605 137.48 42.1633C137.48 42.166 137.48 42.1688 137.48 42.1716C137.48 42.1744 137.48 42.1772 137.48 42.18C137.48 42.1828 137.48 42.1856 137.48 42.1884C137.48 42.1912 137.48 42.194 137.48 42.1968C137.48 42.1995 137.48 42.2023 137.48 42.2051C137.48 42.2079 137.48 42.2107 137.48 42.2135C137.48 42.2163 137.48 42.2191 137.48 42.2219C137.48 42.2247 137.48 42.2274 137.48 42.2302C137.48 42.233 137.48 42.2358 137.48 42.2386C137.48 42.2414 137.48 42.2442 137.48 42.247C137.48 42.2498 137.48 42.2525 137.48 42.2553C137.48 42.2581 137.48 42.2609 137.48 42.2637C137.48 42.2665 137.48 42.2693 137.48 42.2721C137.48 42.2749 137.48 42.2776 137.48 42.2804C137.48 42.2832 137.48 42.286 137.48 42.2888C137.48 42.2916 137.48 42.2944 137.48 42.2972C137.48 42.2999 137.48 42.3027 137.48 42.3055C137.48 42.3083 137.48 42.3111 137.48 42.3139C137.48 42.3167 137.48 42.3195 137.48 42.3222C137.48 42.325 137.48 42.3278 137.48 42.3306C137.48 42.3334 137.48 42.3362 137.48 42.339C137.48 42.3417 137.48 42.3445 137.48 42.3473C137.48 42.3501 137.48 42.3529 137.48 42.3557C137.48 42.3585 137.48 42.3612 137.48 42.364C137.48 42.3668 137.48 42.3696 137.48 42.3724C137.48 42.3752 137.48 42.3779 137.48 42.3807C137.48 42.3835 137.48 42.3863 137.48 42.3891C137.48 42.3919 137.48 42.3946 137.48 42.3974C137.48 42.4002 137.48 42.403 137.48 42.4058C137.48 42.4086 137.48 42.4113 137.48 42.4141C137.48 42.4169 137.48 42.4197 137.48 42.4225C137.48 42.4253 137.48 42.428 137.48 42.4308C137.48 42.4336 137.48 42.4364 137.48 42.4392C137.48 42.442 137.48 42.4447 137.48 42.4475C137.48 42.4503 137.48 42.4531 137.48 42.4559C137.48 42.4586 137.48 42.4614 137.48 42.4642C137.48 42.467 137.48 42.4698 137.48 42.4725C137.48 42.4753 137.48 42.4781 137.48 42.4809C137.48 42.4837 137.48 42.4865 137.48 42.4892C137.48 42.492 137.48 42.4948 137.48 42.4976C137.48 42.5004 137.48 42.5031 137.48 42.5059C137.48 42.5087 137.48 42.5115 137.48 42.5142C137.48 42.517 137.48 42.5198 137.48 42.5226C137.48 42.5254 137.48 42.5281 137.48 42.5309C137.48 42.5337 137.48 42.5365 137.48 42.5393C137.48 42.542 137.48 42.5448 137.48 42.5476C137.48 42.5504 137.48 42.5531 137.48 42.5559C137.48 42.5587 137.48 42.5615 137.48 42.5643C137.48 42.567 137.48 42.5698 137.48 42.5726C137.48 42.5754 137.48 42.5781 137.48 42.5809C137.48 42.5837 137.48 42.5865 137.48 42.5892C137.48 42.592 137.48 42.5948 137.48 42.5976C137.48 42.6004 137.48 42.6031 137.48 42.6059C137.48 42.6087 137.48 42.6115 137.48 42.6142C137.48 42.617 137.48 42.6198 137.48 42.6226C137.48 42.6253 137.48 42.6281 137.48 42.6309C137.48 42.6337 137.48 42.6364 137.48 42.6392C137.48 42.642 137.48 42.6448 137.48 42.6475C137.48 42.6503 137.48 42.6531 137.48 42.6559C137.48 42.6586 137.48 42.6614 137.48 42.6642C137.48 42.667 137.48 42.6697 137.48 42.6725C137.48 42.6753 137.48 42.678 137.48 42.6808C137.48 42.6836 137.48 42.6864 137.48 42.6891C137.48 42.6919 137.48 42.6947 137.48 42.6975C137.48 42.7002 137.48 42.703 137.48 42.7058C137.48 42.7085 137.48 42.7113 137.48 42.7141C137.48 42.7169 137.48 42.7196 137.48 42.7224C137.48 42.7252 137.48 42.7279 137.48 42.7307C137.48 42.7335 137.48 42.7363 137.48 42.739C137.48 42.7418 137.48 42.7446 137.48 42.7473C137.48 42.7501 137.48 42.7529 137.48 42.7557C137.48 42.7584 137.48 42.7612 137.48 42.764C137.48 42.7667 137.48 42.7695 137.48 42.7723C137.48 42.775 137.48 42.7778 137.48 42.7806C137.48 42.7834 137.48 42.7861 137.48 42.7889C137.48 42.7917 137.48 42.7944 137.48 42.7972C137.48 42.8 137.48 42.8027 137.48 42.8055C137.48 42.8083 137.48 42.811 137.48 42.8138C137.48 42.8166 137.48 42.8194 137.48 42.8221C137.48 42.8249 137.48 42.8277 137.48 42.8304C137.48 42.8332 137.48 42.836 137.48 42.8387C137.48 42.8415 137.48 42.8443 137.48 42.847C137.48 42.8498 137.48 42.8526 137.48 42.8553C137.48 42.8581 137.48 42.8609 137.48 42.8636C137.48 42.8664 137.48 42.8692 137.48 42.8719C137.48 42.8747 137.48 42.8775 137.48 42.8802C137.48 42.883 137.48 42.8857 137.48 42.8885C137.48 42.8913 137.48 42.8941 137.48 42.8968C137.48 42.8996 137.48 42.9023 137.48 42.9051C137.48 42.9079 137.48 42.9106 137.48 42.9134C137.48 42.9162 137.48 42.9189 137.48 42.9217C137.48 42.9245 137.48 42.9272 137.48 42.93C137.48 42.9328 137.48 42.9355 137.48 42.9383C137.48 42.941 137.48 42.9438 137.48 42.9466C137.48 42.9493 137.48 42.9521 137.48 42.9549C137.48 42.9576 137.48 42.9604 137.48 42.9632C137.48 42.9659 137.48 42.9687 137.48 42.9714C137.48 42.9742 137.48 42.977 137.48 42.9797C137.48 42.9825 137.48 42.9852 137.48 42.988C137.48 42.9908 137.48 42.9935 137.48 42.9963C137.48 42.9991 137.48 43.0018 137.48 43.0046C137.48 43.0073 137.48 43.0101 137.48 43.0129C137.48 43.0156 137.48 43.0184 137.48 43.0211C137.48 43.0239 137.48 43.0267 137.48 43.0294C137.48 43.0322 137.48 43.0349 137.48 43.0377C137.48 43.0405 137.48 43.0432 137.48 43.046C137.48 43.0487 137.48 43.0515 137.48 43.0543C137.48 43.057 137.48 43.0598 137.48 43.0625C137.48 43.0653 137.48 43.0681 137.48 43.0708C137.48 43.0736 137.48 43.0763 137.48 43.0791C137.48 43.0819 137.48 43.0846 137.48 43.0874C137.48 43.0901 137.48 43.0929 137.48 43.0956C137.48 43.0984 137.48 43.1012 137.48 43.1039C137.48 43.1067 137.48 43.1094 137.48 43.1122C137.48 43.1149 137.48 43.1177 137.48 43.1205C137.48 43.1232 137.48 43.126 137.48 43.1287C137.48 43.1315 137.48 43.1342 137.48 43.137C137.48 43.1398 137.48 43.1425 137.48 43.1453C137.48 43.148 137.48 43.1508 137.48 43.1535C137.48 43.1563 137.48 43.159 137.48 43.1618C137.48 43.1646 137.48 43.1673 137.48 43.1701C137.48 43.1728 137.48 43.1756 137.48 43.1783C137.48 43.1811 137.48 43.1838 137.48 43.1866C137.48 43.1894 137.48 43.1921 137.48 43.1949C137.48 43.1976 137.48 43.2004 137.48 43.2031C137.48 43.2059 137.48 43.2086 137.48 43.2114C137.48 43.2141 137.48 43.2169 137.48 43.2196C137.48 43.2224 137.48 43.2252 137.48 43.2279C137.48 43.2307 137.48 43.2334 137.48 43.2362C137.48 43.2389 137.48 43.2417 137.48 43.2444C137.48 43.2472 137.48 43.2499 137.48 43.2527C137.48 43.2554 137.48 43.2582 137.48 43.2609C137.48 43.2637 137.48 43.2664 137.48 43.2692C137.48 43.2719 137.48 43.2747 137.48 43.2774C137.48 43.2802 137.48 43.2829 137.48 43.2857C137.48 43.2884 137.48 43.2912 137.48 43.2939C137.48 43.2967 137.48 43.2994 137.48 43.3022C137.48 43.3049 137.48 43.3077 137.48 43.3104C137.48 43.3132 137.48 43.3159 137.48 43.3187C137.48 43.3214 137.48 43.3242 137.48 43.3269C137.48 43.3297 137.48 43.3324 137.48 43.3352C137.48 43.3379 137.48 43.3407 137.48 43.3434C137.48 43.3462 137.48 43.3489 137.48 43.3517C137.48 43.3544 137.48 43.3572 137.48 43.3599C137.48 43.3627 137.48 43.3654 137.48 43.3682C137.48 43.3709 137.48 43.3737 137.48 43.3764C137.48 43.3792 137.48 43.3819 137.48 43.3847C137.48 43.3874 137.48 43.3902 137.48 43.3929C137.48 43.3956 137.48 43.3984 137.48 43.4011C137.48 43.4039 137.48 43.4066 137.48 43.4094C137.48 43.4121 137.48 43.4149 137.48 43.4176C137.48 43.4204 137.48 43.4231 137.48 43.4259C137.48 43.4286 137.48 43.4313 137.48 43.4341C137.48 43.4368 137.48 43.4396 137.48 43.4423C137.48 43.4451 137.48 43.4478 137.48 43.4506C137.48 43.4533 137.48 43.4561 137.48 43.4588C137.48 43.4615 137.48 43.4643 137.48 43.467C137.48 43.4698 137.48 43.4725 137.48 43.4753C137.48 43.478 137.48 43.4808 137.48 43.4835C137.48 43.4862 137.48 43.489 137.48 43.4917C137.48 43.4945 137.48 43.4972 137.48 43.5C137.48 43.5027 137.48 43.5054 137.48 43.5082C137.48 43.5109 137.48 43.5137 137.48 43.5164C137.48 43.5191 137.48 43.5219 137.48 43.5246C137.48 43.5274 137.48 43.5301 137.48 43.5329C137.48 43.5356 137.48 43.5383 137.48 43.5411C137.48 43.5438 137.48 43.5466 137.48 43.5493C137.48 43.552 137.48 43.5548 137.48 43.5575C137.48 43.5603 137.48 43.563 137.48 43.5658C137.48 43.5685 137.48 43.5712 137.48 43.574C137.48 43.5767 137.48 43.5795 137.48 43.5822C137.48 43.5849 137.48 43.5877 137.48 43.5904C137.48 43.5932 137.48 43.5959 137.48 43.5986C137.48 43.6014 137.48 43.6041 137.48 43.6068C137.48 43.6096 137.48 43.6123 137.48 43.6151C137.48 43.6178 137.48 43.6205 137.48 43.6233C137.48 43.626 137.48 43.6288 137.48 43.6315C137.48 43.6342 137.48 43.637 137.48 43.6397C137.48 43.6424 137.48 43.6452 137.48 43.6479C137.48 43.6507 137.48 43.6534 137.48 43.6561C137.48 43.6589 137.48 43.6616 137.48 43.6643C137.48 43.6671 137.48 43.6698 137.48 43.6726C137.48 43.6753 137.48 43.678 137.48 43.6808C137.48 43.6835 137.48 43.6862 137.48 43.689C137.48 43.6917 137.48 43.6944 137.48 43.6972C137.48 43.6999 137.48 43.7027 137.48 43.7054C137.48 43.7081 137.48 43.7109 137.48 43.7136C137.48 43.7163 137.48 43.7191 137.48 43.7218C137.48 43.7245 137.48 43.7273 137.48 43.73C137.48 43.7327 137.48 43.7355 137.48 43.7382C137.48 43.7409 137.48 43.7437 137.48 43.7464C137.48 43.7491 137.48 43.7519 137.48 43.7546C137.48 43.7573 137.48 43.7601 137.48 43.7628C137.48 43.7655 137.48 43.7683 137.48 43.771C137.48 43.7737 137.48 43.7765 137.48 43.7792C137.48 43.7819 137.48 43.7847 137.48 43.7874C137.48 43.7901 137.48 43.7929 137.48 43.7956C137.48 43.7983 137.48 43.8011 137.48 43.8038C137.48 43.8065 137.48 43.8092 137.48 43.812C137.48 43.8147 137.48 43.8174 137.48 43.8202C137.48 43.8229 137.48 43.8256 137.48 43.8284C137.48 43.8311 137.48 43.8338 137.48 43.8366C137.48 43.8393 137.48 43.842 137.48 43.8447C137.48 43.8475 137.48 43.8502 137.48 43.8529C137.48 43.8557 137.48 43.8584 137.48 43.8611C137.48 43.8639 137.48 43.8666 137.48 43.8693C137.48 43.872 137.48 43.8748 137.48 43.8775C137.48 43.8802 137.48 43.883 137.48 43.8857C137.48 43.8884 137.48 43.8912 137.48 43.8939C137.48 43.8966 137.48 43.8993 137.48 43.9021C137.48 43.9048 137.48 43.9075 137.48 43.9102C137.48 43.913 137.48 43.9157 137.48 43.9184C137.48 43.9212 137.48 43.9239 137.48 43.9266C137.48 43.9293 137.48 43.9321 137.48 43.9348C137.48 43.9375 137.48 43.9402 137.48 43.943C137.48 43.9457 137.48 43.9484 137.48 43.9511C137.48 43.9539 137.48 43.9566 137.48 43.9593C137.48 43.9621 137.48 43.9648 137.48 43.9675C137.48 43.9702 137.48 43.973 137.48 43.9757C137.48 43.9784 137.48 43.9811 137.48 43.9839C137.48 43.9866 137.48 43.9893 137.48 43.992C137.48 43.9948 137.48 43.9975 137.48 44.0002C137.48 44.0029 137.48 44.0057 137.48 44.0084C137.48 44.0111 137.48 44.0138 137.48 44.0165C137.48 44.0193 137.48 44.022 137.48 44.0247C137.48 44.0274 137.48 44.0302 137.48 44.0329C137.48 44.0356 137.48 44.0383 137.48 44.0411C137.48 44.0438 137.48 44.0465 137.48 44.0492C137.48 44.0519 137.48 44.0547 137.48 44.0574C137.48 44.0601 137.48 44.0628 137.48 44.0656C137.48 44.0683 137.48 44.071 137.48 44.0737C137.48 44.0764 137.48 44.0792 137.48 44.0819C137.48 44.0846 137.48 44.0873 137.48 44.09C137.48 44.0928 137.48 44.0955 137.48 44.0982C137.48 44.1009 137.48 44.1037 137.48 44.1064C137.48 44.1091 137.48 44.1118 137.48 44.1145C137.48 44.1173 137.48 44.12 137.48 44.1227C137.48 44.1254 137.48 44.1281 137.48 44.1309C137.48 44.1336 137.48 44.1363 137.48 44.139C137.48 44.1417 137.48 44.1444 137.48 44.1472C137.48 44.1499 137.48 44.1526 137.48 44.1553C137.48 44.158 137.48 44.1608 137.48 44.1635C137.48 44.1662 137.48 44.1689 137.48 44.1716C137.48 44.1743 137.48 44.1771 137.48 44.1798C137.48 44.1825 137.48 44.1852 137.48 44.1879C137.48 44.1907 137.48 44.1934 137.48 44.1961C137.48 44.1988 137.48 44.2015 137.48 44.2042C137.48 44.207 137.48 44.2097 137.48 44.2124C137.48 44.2151 137.48 44.2178 137.48 44.2205C137.48 44.2233 137.48 44.226 137.48 44.2287C137.48 44.2314 137.48 44.2341 137.48 44.2368C137.48 44.2395 137.48 44.2423 137.48 44.245C137.48 44.2477 137.48 44.2504 137.48 44.2531C137.48 44.2558 137.48 44.2586 137.48 44.2613C137.48 44.264 137.48 44.2667 137.48 44.2694C137.48 44.2721 137.48 44.2748 137.48 44.2775C137.48 44.2803 137.48 44.283 137.48 44.2857C137.48 44.2884 137.48 44.2911 137.48 44.2938C137.48 44.2965 137.48 44.2993 137.48 44.302C137.48 44.3047 137.48 44.3074 137.48 44.3101C137.48 44.3128 137.48 44.3155 137.48 44.3183C137.48 44.321 137.48 44.3237 137.48 44.3264C137.48 44.3291 137.48 44.3318 137.48 44.3345C137.48 44.3372 137.48 44.3399 137.48 44.3427C137.48 44.3454 137.48 44.3481 137.48 44.3508C137.48 44.3535 137.48 44.3562 137.48 44.3589C137.48 44.3616 137.48 44.3643 137.48 44.3671C137.48 44.3698 137.48 44.3725 137.48 44.3752C137.48 44.3779 137.48 44.3806 137.48 44.3833C137.48 44.386 137.48 44.3887 137.48 44.3914C137.48 44.3942 137.48 44.3969 137.48 44.3996C137.48 44.4023 137.48 44.405 137.48 44.4077C137.48 44.4104 137.48 44.4131 137.48 44.4158C137.48 44.4185 137.48 44.4212 137.48 44.424C137.48 44.4267 137.48 44.4294 137.48 44.4321C137.48 44.4348 137.48 44.4375 137.48 44.4402C137.48 44.4429 137.48 44.4456 137.48 44.4483C137.48 44.451 137.48 44.4537 137.48 44.4565C137.48 44.4592 137.48 44.4619 137.48 44.4646C137.48 44.4673 137.48 44.47 137.48 44.4727C137.48 44.4754 137.48 44.4781 137.48 44.4808C137.48 44.4835 137.48 44.4862 137.48 44.4889C137.48 44.4916 137.48 44.4943 137.48 44.497C137.48 44.4998 137.48 44.5025 137.48 44.5052C137.48 44.5079 137.48 44.5106 137.48 44.5133C137.48 44.516 137.48 44.5187 137.48 44.5214C137.48 44.5241 137.48 44.5268 137.48 44.5295C137.48 44.5322 137.48 44.5349 137.48 44.5376C137.48 44.5403 137.48 44.543 137.48 44.5457C137.48 44.5484 137.48 44.5511 137.48 44.5538C137.48 44.5565 137.48 44.5592 137.48 44.562C137.48 44.5647 137.48 44.5674 137.48 44.5701C137.48 44.5728 137.48 44.5755 137.48 44.5782C137.48 44.5809 137.48 44.5836 137.48 44.5863C137.48 44.589 137.48 44.5917 137.48 44.5944C137.48 44.5971 137.48 44.5998 137.48 44.6025C137.48 44.6052 137.48 44.6079 137.48 44.6106C137.48 44.6133 137.48 44.616 137.48 44.6187C137.48 44.6214 137.48 44.6241 137.48 44.6268C137.48 44.6295 137.48 44.6322 137.48 44.6349C137.48 44.6376 137.48 44.6403 137.48 44.643C137.48 44.6457 137.48 44.6484 137.48 44.6511C137.48 44.6538 137.48 44.6565 137.48 44.6592C137.48 44.6619 137.48 44.6646 137.48 44.6673C137.48 44.67 137.48 44.6727 137.48 44.6754C137.48 44.6781 137.48 44.6808 137.48 44.6835C137.48 44.6862 137.48 44.6889 137.48 44.6916C137.48 44.6943 137.48 44.697 137.48 44.6997C137.48 44.7024 137.48 44.7051 137.48 44.7078C137.48 44.7105 137.48 44.7132 137.48 44.7159C137.48 44.7186 137.48 44.7213 137.48 44.724C137.48 44.7267 137.48 44.7294 137.48 44.7321C137.48 44.7348 137.48 44.7374 137.48 44.7402C137.48 44.7428 137.48 44.7455 137.48 44.7482C137.48 44.7509 137.48 44.7536 137.48 44.7563C137.48 44.759 137.48 44.7617 137.48 44.7644C137.48 44.7671 137.48 44.7698 137.48 44.7725C137.48 44.7752 137.48 44.7779 137.48 44.7806C137.48 44.7833 137.48 44.786 137.48 44.7887C137.48 44.7914 137.48 44.7941 137.48 44.7968C137.48 44.7994 137.48 44.8021 137.48 44.8048C137.48 44.8075 137.48 44.8102 137.48 44.8129C137.48 44.8156 137.48 44.8183 137.48 44.821C137.48 44.8237 137.48 44.8264 137.48 44.8291C137.48 44.8318 137.48 44.8345 137.48 44.8372C137.48 44.8399 137.48 44.8425 137.48 44.8452C137.48 44.8479 137.48 44.8506 137.48 44.8533C137.48 44.856 137.48 44.8587 137.48 44.8614C137.48 44.8641 137.48 44.8668 137.48 44.8695C137.48 44.8722 137.48 44.8748 137.48 44.8775C137.48 44.8802 137.48 44.8829 137.48 44.8856C137.48 44.8883 137.48 44.891 137.48 44.8937C137.48 44.8964 137.48 44.8991 137.48 44.9018C137.48 44.9044 137.48 44.9071 137.48 44.9098C137.48 44.9125 137.48 44.9152 137.48 44.9179C137.48 44.9206 137.48 44.9233 137.48 44.926C137.48 44.9287 137.48 44.9313 137.48 44.934C137.48 44.9367 137.48 44.9394 137.48 44.9421C137.48 44.9448 137.48 44.9475 137.48 44.9502C137.48 44.9529 137.48 44.9555 137.48 44.9582C137.48 44.9609 137.48 44.9636 137.48 44.9663C137.48 44.969 137.48 44.9717 137.48 44.9744C137.48 44.9771 137.48 44.9797 137.48 44.9824C137.48 44.9851 137.48 44.9878 137.48 44.9905C137.48 44.9932 137.48 44.9959 137.48 44.9985C137.48 45.0012 137.48 45.0039 137.48 45.0066C137.48 45.0093 137.48 45.012 137.48 45.0147C137.48 45.0173 137.48 45.02 137.48 45.0227C137.48 45.0254 137.48 45.0281 137.48 45.0308C137.48 45.0335 137.48 45.0361 137.48 45.0388C137.48 45.0415 137.48 45.0442 137.48 45.0469C137.48 45.0496 137.48 45.0523 137.48 45.0549C137.48 45.0576 137.48 45.0603 137.48 45.063C137.48 45.0657 137.48 45.0684 137.48 45.0711C137.48 45.0737 137.48 45.0764 137.48 45.0791C137.48 45.0818 137.48 45.0845 137.48 45.0872C137.48 45.0898 137.48 45.0925 137.48 45.0952C137.48 45.0979 137.48 45.1006 137.48 45.1032C137.48 45.1059 137.48 45.1086 137.48 45.1113C137.48 45.114 137.48 45.1167 137.48 45.1193C137.48 45.122 137.48 45.1247 137.48 45.1274C137.48 45.1301 137.48 45.1328 137.48 45.1354C137.48 45.1381 137.48 45.1408 137.48 45.1435C137.48 45.1462 137.48 45.1488 137.48 45.1515C137.48 45.1542 137.48 45.1569 137.48 45.1596C137.48 45.1622 137.48 45.1649 137.48 45.1676C137.48 45.1703 137.48 45.173 137.48 45.1757C137.48 45.1783 137.48 45.181 137.48 45.1837C137.48 45.1864 137.48 45.189 137.48 45.1917C137.48 45.1944 137.48 45.1971 137.48 45.1998C137.48 45.2024 137.48 45.2051 137.48 45.2078C137.48 45.2105 137.48 45.2132 137.48 45.2158C137.48 45.2185 137.48 45.2212 137.48 45.2239C137.48 45.2266 137.48 45.2292 137.48 45.2319C137.48 45.2346 137.48 45.2373 137.48 45.2399C137.48 45.2426 137.48 45.2453 137.48 45.248C137.48 45.2507 137.48 45.2533 137.48 45.256C137.48 45.2587 137.48 45.2614 137.48 45.264C137.48 45.2667 137.48 45.2694 137.48 45.2721C137.48 45.2747 137.48 45.2774 137.48 45.2801C137.48 45.2828 137.48 45.2854 137.48 45.2881C137.48 45.2908 137.48 45.2935 137.48 45.2962C137.48 45.2988 137.48 45.3015 137.48 45.3042C137.48 45.3069 137.48 45.3095 137.48 45.3122C137.48 45.3149 137.48 45.3176 137.48 45.3202C137.48 45.3229 137.48 45.3256 137.48 45.3282C137.48 45.3309 137.48 45.3336 137.48 45.3363C137.48 45.3389 137.48 45.3416 137.48 45.3443C137.48 45.347 137.48 45.3496 137.48 45.3523C137.48 45.355 137.48 45.3577 137.48 45.3603C137.48 45.363 137.48 45.3657 137.48 45.3684C137.48 45.371 137.48 45.3737 137.48 45.3764C137.48 45.379 137.48 45.3817 137.48 45.3844C137.48 45.3871 137.48 45.3897 137.48 45.3924C137.48 45.3951 137.48 45.3977 137.48 45.4004C137.48 45.4031 137.48 45.4058 137.48 45.4084C137.48 45.4111 137.48 45.4138 137.48 45.4164C137.48 45.4191 137.48 45.4218 137.48 45.4245C137.48 45.4271 137.48 45.4298 137.48 45.4325C137.48 45.4351 137.48 45.4378 137.48 45.4405C137.48 45.4431 137.48 45.4458 137.48 45.4485C137.48 45.4512 137.48 45.4538 137.48 45.4565C137.48 45.4592 137.48 45.4618 137.48 45.4645C137.48 45.4672 137.48 45.4698 137.48 45.4725C137.48 45.4752 137.48 45.4778 137.48 45.4805C137.48 45.4832 137.48 45.4859 137.48 45.4885C137.48 45.4912 137.48 45.4939 137.48 45.4965C137.48 45.4992 137.48 45.5019 137.48 45.5045C137.48 45.5072 137.48 45.5099 137.48 45.5125C137.48 45.5152 137.48 45.5179 137.48 45.5205C137.48 45.5232 137.48 45.5259 137.48 45.5285C137.48 45.5312 137.48 45.5339 137.48 45.5365C137.48 45.5392 137.48 45.5419 137.48 45.5445C137.48 45.5472 137.48 45.5499 137.48 45.5525C137.48 45.5552 137.48 45.5579 137.48 45.5605C137.48 45.5632 137.48 45.5659 137.48 45.5685C137.48 45.5712 137.48 45.5739 137.48 45.5765C137.48 45.5792 137.48 45.5818 137.48 45.5845C137.48 45.5872 137.48 45.5898 137.48 45.5925C137.48 45.5952 137.48 45.5978 137.48 45.6005C137.48 45.6032 137.48 45.6058 137.48 45.6085C137.48 45.6111 137.48 45.6138 137.48 45.6165C137.48 45.6191 137.48 45.6218 137.48 45.6245C137.48 45.6271 137.48 45.6298 137.48 45.6325C137.48 45.6351 137.48 45.6378 137.48 45.6404C137.48 45.6431 137.48 45.6458 137.48 45.6484C137.48 45.6511 137.48 45.6537 137.48 45.6564C137.48 45.6591 137.48 45.6617 137.48 45.6644C137.48 45.6671 137.48 45.6697 137.48 45.6724C137.48 45.675 137.48 45.6777 137.48 45.6804C137.48 45.683 137.48 45.6857 137.48 45.6883C137.48 45.691 137.48 45.6937 137.48 45.6963C137.48 45.699 137.48 45.7016 137.48 45.7043C137.48 45.707 137.48 45.7096 137.48 45.7123C137.48 45.715 137.48 45.7176 137.48 45.7203C137.48 45.7229 137.48 45.7256 137.48 45.7282C137.48 45.7309 137.48 45.7336 137.48 45.7362C137.48 45.7389 137.48 45.7415 137.48 45.7442C137.48 45.7469 137.48 45.7495 137.48 45.7522C137.48 45.7548 137.48 45.7575 137.48 45.7601C137.48 45.7628 137.48 45.7655 137.48 45.7681C137.48 45.7708 137.48 45.7734 137.48 45.7761C137.48 45.7787 137.48 45.7814 137.48 45.7841C137.48 45.7867 137.48 45.7894 137.48 45.792C137.48 45.7947 137.48 45.7973 137.48 45.8H139.48ZM139.48 41.6C139.48 40.0271 139.355 38.455 139.107 36.884L137.132 37.196C137.364 38.665 137.48 40.1329 137.48 41.6H139.48ZM137.478 37.8069L143.358 42.7269L144.641 41.1931L138.761 36.2731L137.478 37.8069ZM143.1 41.5225C141.715 44.3695 139.916 46.7379 137.707 48.6426L139.013 50.1574C141.443 48.0621 143.404 45.4705 144.899 42.3975L143.1 41.5225ZM137.707 48.6426C135.493 50.5514 132.889 52.0095 129.883 53.0113L130.516 54.9087C133.75 53.8305 136.587 52.2486 139.013 50.1574L137.707 48.6426ZM129.883 53.0113C126.885 54.0109 123.435 54.52 119.52 54.52V56.52C123.605 56.52 127.275 55.9891 130.516 54.9087L129.883 53.0113ZM119.52 54.52C114.38 54.52 109.693 53.4699 105.44 51.3823L104.559 53.1777C109.107 55.4101 114.099 56.52 119.52 56.52V54.52ZM105.46 51.3922C101.284 49.2269 97.9327 46.2583 95.3891 42.4814L93.7302 43.5986C96.4666 47.6617 100.075 50.8531 104.539 53.1678L105.46 51.3922ZM95.3943 42.4892C92.8747 38.6716 91.5997 34.1882 91.5997 29H89.5997C89.5997 34.5318 90.9647 39.4084 93.7251 43.5908L95.3943 42.4892ZM91.5997 29C91.5997 23.3372 93.0317 18.5033 95.8596 14.4524L94.2197 13.3076C91.1277 17.7367 89.5997 22.9828 89.5997 29H91.5997ZM95.8646 14.4452C98.719 10.2794 102.537 7.07375 107.343 4.82581L106.496 3.01419C101.382 5.40625 97.2804 8.84059 94.2148 13.3148L95.8646 14.4452ZM107.355 4.82016C112.166 2.49241 117.535 1.31999 123.48 1.31999V-0.680006C117.265 -0.680006 111.593 0.547579 106.484 3.01984L107.355 4.82016ZM125.04 16.24C122.667 16.24 120.543 16.7067 118.696 17.6742L119.624 19.4458C121.137 18.6533 122.932 18.24 125.04 18.24V16.24ZM118.696 17.6742C116.863 18.6343 115.374 19.9921 114.241 21.735L115.918 22.825C116.865 21.3679 118.097 20.2457 119.624 19.4458L118.696 17.6742ZM114.234 21.746C113.151 23.461 112.64 25.5373 112.64 27.92H114.64C114.64 25.8226 115.088 24.139 115.925 22.814L114.234 21.746ZM112.64 27.92C112.64 31.3589 113.769 34.1998 116.081 36.3348L117.438 34.8652C115.591 33.1602 114.64 30.8811 114.64 27.92H112.64ZM116.095 36.3474C118.472 38.4601 121.524 39.48 125.16 39.48V37.48C121.915 37.48 119.367 36.5799 117.424 34.8526L116.095 36.3474ZM125.16 39.48C127.607 39.48 129.805 39.0152 131.727 38.0544L130.832 36.2656C129.234 37.0648 127.352 37.48 125.16 37.48V39.48ZM131.727 38.0544C133.647 37.0942 135.154 35.7267 136.217 33.9545L134.502 32.9255C133.645 34.3533 132.432 35.4658 130.832 36.2656L131.727 38.0544ZM136.217 33.9545C137.284 32.176 137.8 30.1122 137.8 27.8H135.8C135.8 29.8078 135.355 31.504 134.502 32.9255L136.217 33.9545ZM137.8 27.8C137.8 25.5613 137.281 23.5696 136.205 21.866L134.514 22.934C135.358 24.2704 135.8 25.8787 135.8 27.8H137.8ZM136.217 21.8855C135.154 20.1133 133.647 18.7458 131.727 17.7856L130.832 19.5744C132.432 20.3742 133.645 21.4867 134.502 22.9145L136.217 21.8855ZM131.759 17.8021C129.825 16.7476 127.574 16.24 125.04 16.24V18.24C127.305 18.24 129.214 18.6924 130.801 19.5579L131.759 17.8021Z" fill="black" fill-opacity="0.08"/>
</svg>
