<svg width="60" height="60" viewBox="0 0 60 60" fill="none" xmlns="http://www.w3.org/2000/svg">
<g clip-path="url(#clip0_59_415)">
<path d="M32.525 39.1001L30.8001 39.8251C30.5501 39.9251 30.275 39.9751 30.025 39.9751C29.75 39.9751 29.4751 39.9251 29.2251 39.8251L27.5001 39.1001C25.7751 38.3751 24.2501 37.1751 23.1751 35.6251C22.1001 34.0751 21.4251 32.2751 21.3001 30.4001L20.925 25.2251C20.925 24.8001 21.0001 24.375 21.2001 24.025C21.4251 23.675 21.7501 23.3751 22.1251 23.2251L28.85 20.275C29.6 19.975 30.4501 19.975 31.2251 20.275L37.8 23.2001C38.175 23.3751 38.5001 23.675 38.7251 24.025C38.9501 24.4 39.0251 24.8001 39.0001 25.2251L38.6251 30.4001C38.5001 32.2751 37.8751 34.0751 36.8001 35.6001C35.7251 37.1251 34.25 38.3501 32.525 39.1001V39.1001Z" stroke="#D1292E" stroke-width="2" stroke-miterlimit="10" stroke-linecap="round"/>
<path d="M51.9499 25C52.2999 26.65 52.4999 28.325 52.4999 30C52.4999 35.975 50.1249 41.7 45.9249 45.9C41.6999 50.125 35.9749 52.5 29.9999 52.5C25.7499 52.5 21.5999 51.3 18.0249 49.025" stroke="#D1292E" stroke-width="2" stroke-miterlimit="10" stroke-linecap="round"/>
<path d="M8.07499 35.025C7.69999 33.375 7.5 31.7 7.5 30C7.5 24.025 9.875 18.325 14.1 14.1C18.325 9.87504 24.025 7.5 30 7.5C34.2 7.5 38.3 8.67496 41.85 10.9" stroke="#D1292E" stroke-width="2" stroke-miterlimit="10" stroke-linecap="round"/>
<path d="M45.925 19.075C48.7 19.075 50.925 16.85 50.925 14.075C50.925 11.3 48.7 9.07495 45.925 9.07495C43.15 9.07495 40.925 11.3 40.925 14.075C40.925 16.85 43.15 19.075 45.925 19.075Z" stroke="#D1292E" stroke-width="2" stroke-miterlimit="10" stroke-linecap="round"/>
<path d="M14.075 50.925C16.85 50.925 19.075 48.7 19.075 45.925C19.075 43.15 16.85 40.925 14.075 40.925C11.3 40.925 9.07495 43.15 9.07495 45.925C9.07495 48.7 11.3 50.925 14.075 50.925Z" stroke="#D1292E" stroke-width="2" stroke-miterlimit="10" stroke-linecap="round"/>
</g>
<defs>
<clipPath id="clip0_59_415">
<rect width="60" height="60" fill="white"/>
</clipPath>
</defs>
</svg>
